<?xml version="1.0" encoding="UTF-8" standalone="no"?>
<!DOCTYPE svg PUBLIC "-//W3C//DTD SVG 1.0//EN" "http://www.w3.org/TR/2001/PR-SVG-20010719/DTD/svg10.dtd">
<svg width="74cm" height="80cm" viewBox="-1440 -57 1479 1584" xmlns="http://www.w3.org/2000/svg" xmlns:xlink="http://www.w3.org/1999/xlink">
  <rect style="fill: none; fill-opacity:0; stroke-width: 2; stroke: #000000" x="-1400" y="0" width="800" height="400"/>
  <rect style="fill: none; fill-opacity:0; stroke-width: 2; stroke: #000000" x="-1400" y="640" width="1400" height="800"/>
  <g>
    <rect style="fill: #bfbfbf" x="-1200" y="840" width="1000" height="400"/>
    <rect style="fill: none; fill-opacity:0; stroke-width: 2; stroke: #000000" x="-1200" y="840" width="1000" height="400"/>
  </g>
  <line style="fill: none; fill-opacity:0; stroke-width: 2; stroke: #000000" x1="-1000" y1="1229" x2="-1000" y2="850.999"/>
  <line style="fill: none; fill-opacity:0; stroke-width: 2; stroke: #000000" x1="-600" y1="1229" x2="-600" y2="850.999"/>
  <line style="fill: none; fill-opacity:0; stroke-width: 2; stroke: #000000" x1="-400" y1="1229" x2="-400" y2="850.999"/>
  <line style="fill: none; fill-opacity:0; stroke-width: 2; stroke: #000000" x1="-800" y1="1229" x2="-800" y2="850.999"/>
  <line style="fill: none; fill-opacity:0; stroke-width: 2; stroke: #000000" x1="-200" y1="1040" x2="-1200" y2="1040"/>
  <text font-size="36.1244" style="fill: #000000;text-anchor:start;font-family:sans-serif;font-style:italic;font-weight:normal" x="-1440" y="620">
    <tspan x="-1440" y="620">(0,1)</tspan>
  </text>
  <text font-size="36.1244" style="fill: #000000;text-anchor:start;font-family:sans-serif;font-style:italic;font-weight:normal" x="-1440" y="1480">
    <tspan x="-1440" y="1480">(0,0)</tspan>
  </text>
  <text font-size="36.1244" style="fill: #000000;text-anchor:start;font-family:sans-serif;font-style:italic;font-weight:normal" x="-40" y="620">
    <tspan x="-40" y="620">(1,1)</tspan>
  </text>
  <text font-size="36.1244" style="fill: #000000;text-anchor:start;font-family:sans-serif;font-style:italic;font-weight:normal" x="-40" y="1480">
    <tspan x="-40" y="1480">(1,0)</tspan>
  </text>
  <line style="fill: none; fill-opacity:0; stroke-width: 2; stroke: #000000" x1="-800" y1="200" x2="-1200" y2="200"/>
  <text font-size="36.1244" style="fill: #000000;text-anchor:start;font-family:sans-serif;font-style:italic;font-weight:normal" x="-1440" y="-20">
    <tspan x="-1440" y="-20">(0,1)</tspan>
  </text>
  <text font-size="36.1244" style="fill: #000000;text-anchor:start;font-family:sans-serif;font-style:italic;font-weight:normal" x="-1440" y="440">
    <tspan x="-1440" y="440">(0,0)</tspan>
  </text>
  <text font-size="36.1244" style="fill: #000000;text-anchor:start;font-family:sans-serif;font-style:italic;font-weight:normal" x="-640" y="-20">
    <tspan x="-640" y="-20">(1,1)</tspan>
  </text>
  <text font-size="36.1244" style="fill: #000000;text-anchor:start;font-family:sans-serif;font-style:italic;font-weight:normal" x="-640" y="440">
    <tspan x="-640" y="440">(1,0)</tspan>
  </text>
  <g>
    <ellipse style="fill: #000000" cx="-1200" cy="200" rx="10" ry="10"/>
    <ellipse style="fill: none; fill-opacity:0; stroke-width: 2; stroke: #000000" cx="-1200" cy="200" rx="10" ry="10"/>
  </g>
  <g>
    <ellipse style="fill: #000000" cx="-1000" cy="200" rx="10" ry="10"/>
    <ellipse style="fill: none; fill-opacity:0; stroke-width: 2; stroke: #000000" cx="-1000" cy="200" rx="10" ry="10"/>
  </g>
  <g>
    <ellipse style="fill: #000000" cx="-800" cy="200" rx="10" ry="10"/>
    <ellipse style="fill: none; fill-opacity:0; stroke-width: 2; stroke: #000000" cx="-800" cy="200" rx="10" ry="10"/>
  </g>
  <g>
    <ellipse style="fill: #000000" cx="-1200" cy="840" rx="10" ry="10"/>
    <ellipse style="fill: none; fill-opacity:0; stroke-width: 2; stroke: #000000" cx="-1200" cy="840" rx="10" ry="10"/>
  </g>
  <g>
    <ellipse style="fill: #000000" cx="-1000" cy="840" rx="10" ry="10"/>
    <ellipse style="fill: none; fill-opacity:0; stroke-width: 2; stroke: #000000" cx="-1000" cy="840" rx="10" ry="10"/>
  </g>
  <g>
    <ellipse style="fill: #000000" cx="-800" cy="840" rx="10" ry="10"/>
    <ellipse style="fill: none; fill-opacity:0; stroke-width: 2; stroke: #000000" cx="-800" cy="840" rx="10" ry="10"/>
  </g>
  <g>
    <ellipse style="fill: #000000" cx="-600" cy="840" rx="10" ry="10"/>
    <ellipse style="fill: none; fill-opacity:0; stroke-width: 2; stroke: #000000" cx="-600" cy="840" rx="10" ry="10"/>
  </g>
  <g>
    <ellipse style="fill: #000000" cx="-200" cy="1040" rx="10" ry="10"/>
    <ellipse style="fill: none; fill-opacity:0; stroke-width: 2; stroke: #000000" cx="-200" cy="1040" rx="10" ry="10"/>
  </g>
  <g>
    <ellipse style="fill: #000000" cx="-400" cy="840" rx="10" ry="10"/>
    <ellipse style="fill: none; fill-opacity:0; stroke-width: 2; stroke: #000000" cx="-400" cy="840" rx="10" ry="10"/>
  </g>
  <g>
    <ellipse style="fill: #000000" cx="-1200" cy="1040" rx="10" ry="10"/>
    <ellipse style="fill: none; fill-opacity:0; stroke-width: 2; stroke: #000000" cx="-1200" cy="1040" rx="10" ry="10"/>
  </g>
  <g>
    <ellipse style="fill: #000000" cx="-200" cy="840" rx="10" ry="10"/>
    <ellipse style="fill: none; fill-opacity:0; stroke-width: 2; stroke: #000000" cx="-200" cy="840" rx="10" ry="10"/>
  </g>
  <g>
    <ellipse style="fill: #000000" cx="-1200" cy="1240" rx="10" ry="10"/>
    <ellipse style="fill: none; fill-opacity:0; stroke-width: 2; stroke: #000000" cx="-1200" cy="1240" rx="10" ry="10"/>
  </g>
  <g>
    <ellipse style="fill: #000000" cx="-1000" cy="1240" rx="10" ry="10"/>
    <ellipse style="fill: none; fill-opacity:0; stroke-width: 2; stroke: #000000" cx="-1000" cy="1240" rx="10" ry="10"/>
  </g>
  <g>
    <ellipse style="fill: #000000" cx="-800" cy="1240" rx="10" ry="10"/>
    <ellipse style="fill: none; fill-opacity:0; stroke-width: 2; stroke: #000000" cx="-800" cy="1240" rx="10" ry="10"/>
  </g>
  <g>
    <ellipse style="fill: #000000" cx="-600" cy="1240" rx="10" ry="10"/>
    <ellipse style="fill: none; fill-opacity:0; stroke-width: 2; stroke: #000000" cx="-600" cy="1240" rx="10" ry="10"/>
  </g>
  <g>
    <ellipse style="fill: #000000" cx="-400" cy="1240" rx="10" ry="10"/>
    <ellipse style="fill: none; fill-opacity:0; stroke-width: 2; stroke: #000000" cx="-400" cy="1240" rx="10" ry="10"/>
  </g>
  <g>
    <ellipse style="fill: #000000" cx="-200" cy="1240" rx="10" ry="10"/>
    <ellipse style="fill: none; fill-opacity:0; stroke-width: 2; stroke: #000000" cx="-200" cy="1240" rx="10" ry="10"/>
  </g>
  <text font-size="36.1244" style="fill: #000000;text-anchor:start;font-family:sans-serif;font-style:normal;font-weight:normal" x="-1020" y="480">
    <tspan x="-1020" y="480">(a)</tspan>
  </text>
  <text font-size="36.1244" style="fill: #000000;text-anchor:start;font-family:sans-serif;font-style:normal;font-weight:normal" x="-720" y="1520">
    <tspan x="-720" y="1520">(b)</tspan>
  </text>
  <g>
    <ellipse style="fill: #000000" cx="-1400" cy="640" rx="10" ry="10"/>
    <ellipse style="fill: none; fill-opacity:0; stroke-width: 2; stroke: #000000" cx="-1400" cy="640" rx="10" ry="10"/>
  </g>
  <g>
    <ellipse style="fill: #000000" cx="-1200" cy="640" rx="10" ry="10"/>
    <ellipse style="fill: none; fill-opacity:0; stroke-width: 2; stroke: #000000" cx="-1200" cy="640" rx="10" ry="10"/>
  </g>
  <g>
    <ellipse style="fill: #000000" cx="-1000" cy="640" rx="10" ry="10"/>
    <ellipse style="fill: none; fill-opacity:0; stroke-width: 2; stroke: #000000" cx="-1000" cy="640" rx="10" ry="10"/>
  </g>
  <g>
    <ellipse style="fill: #000000" cx="-800" cy="640" rx="10" ry="10"/>
    <ellipse style="fill: none; fill-opacity:0; stroke-width: 2; stroke: #000000" cx="-800" cy="640" rx="10" ry="10"/>
  </g>
  <g>
    <ellipse style="fill: #000000" cx="-600" cy="640" rx="10" ry="10"/>
    <ellipse style="fill: none; fill-opacity:0; stroke-width: 2; stroke: #000000" cx="-600" cy="640" rx="10" ry="10"/>
  </g>
  <g>
    <ellipse style="fill: #000000" cx="-400" cy="640" rx="10" ry="10"/>
    <ellipse style="fill: none; fill-opacity:0; stroke-width: 2; stroke: #000000" cx="-400" cy="640" rx="10" ry="10"/>
  </g>
  <g>
    <ellipse style="fill: #000000" cx="-200" cy="640" rx="10" ry="10"/>
    <ellipse style="fill: none; fill-opacity:0; stroke-width: 2; stroke: #000000" cx="-200" cy="640" rx="10" ry="10"/>
  </g>
  <g>
    <ellipse style="fill: #000000" cx="0" cy="640" rx="10" ry="10"/>
    <ellipse style="fill: none; fill-opacity:0; stroke-width: 2; stroke: #000000" cx="0" cy="640" rx="10" ry="10"/>
  </g>
  <g>
    <ellipse style="fill: #000000" cx="0" cy="840" rx="10" ry="10"/>
    <ellipse style="fill: none; fill-opacity:0; stroke-width: 2; stroke: #000000" cx="0" cy="840" rx="10" ry="10"/>
  </g>
  <g>
    <ellipse style="fill: #000000" cx="0" cy="1040" rx="10" ry="10"/>
    <ellipse style="fill: none; fill-opacity:0; stroke-width: 2; stroke: #000000" cx="0" cy="1040" rx="10" ry="10"/>
  </g>
  <g>
    <ellipse style="fill: #000000" cx="0" cy="1240" rx="10" ry="10"/>
    <ellipse style="fill: none; fill-opacity:0; stroke-width: 2; stroke: #000000" cx="0" cy="1240" rx="10" ry="10"/>
  </g>
  <g>
    <ellipse style="fill: #000000" cx="0" cy="1440" rx="10" ry="10"/>
    <ellipse style="fill: none; fill-opacity:0; stroke-width: 2; stroke: #000000" cx="0" cy="1440" rx="10" ry="10"/>
  </g>
  <g>
    <ellipse style="fill: #000000" cx="-200" cy="1440" rx="10" ry="10"/>
    <ellipse style="fill: none; fill-opacity:0; stroke-width: 2; stroke: #000000" cx="-200" cy="1440" rx="10" ry="10"/>
  </g>
  <g>
    <ellipse style="fill: #000000" cx="-800" cy="1440" rx="10" ry="10"/>
    <ellipse style="fill: none; fill-opacity:0; stroke-width: 2; stroke: #000000" cx="-800" cy="1440" rx="10" ry="10"/>
  </g>
  <g>
    <ellipse style="fill: #000000" cx="-600" cy="1440" rx="10" ry="10"/>
    <ellipse style="fill: none; fill-opacity:0; stroke-width: 2; stroke: #000000" cx="-600" cy="1440" rx="10" ry="10"/>
  </g>
  <g>
    <ellipse style="fill: #000000" cx="-400" cy="1440" rx="10" ry="10"/>
    <ellipse style="fill: none; fill-opacity:0; stroke-width: 2; stroke: #000000" cx="-400" cy="1440" rx="10" ry="10"/>
  </g>
  <g>
    <ellipse style="fill: #000000" cx="-1000" cy="1440" rx="10" ry="10"/>
    <ellipse style="fill: none; fill-opacity:0; stroke-width: 2; stroke: #000000" cx="-1000" cy="1440" rx="10" ry="10"/>
  </g>
  <g>
    <ellipse style="fill: #000000" cx="-1200" cy="1440" rx="10" ry="10"/>
    <ellipse style="fill: none; fill-opacity:0; stroke-width: 2; stroke: #000000" cx="-1200" cy="1440" rx="10" ry="10"/>
  </g>
  <g>
    <ellipse style="fill: #000000" cx="-1400" cy="840" rx="10" ry="10"/>
    <ellipse style="fill: none; fill-opacity:0; stroke-width: 2; stroke: #000000" cx="-1400" cy="840" rx="10" ry="10"/>
  </g>
  <g>
    <ellipse style="fill: #000000" cx="-1400" cy="1440" rx="10" ry="10"/>
    <ellipse style="fill: none; fill-opacity:0; stroke-width: 2; stroke: #000000" cx="-1400" cy="1440" rx="10" ry="10"/>
  </g>
  <g>
    <ellipse style="fill: #000000" cx="-1400" cy="1240" rx="10" ry="10"/>
    <ellipse style="fill: none; fill-opacity:0; stroke-width: 2; stroke: #000000" cx="-1400" cy="1240" rx="10" ry="10"/>
  </g>
  <g>
    <ellipse style="fill: #000000" cx="-1400" cy="1040" rx="10" ry="10"/>
    <ellipse style="fill: none; fill-opacity:0; stroke-width: 2; stroke: #000000" cx="-1400" cy="1040" rx="10" ry="10"/>
  </g>
  <g>
    <ellipse style="fill: #000000" cx="-600" cy="400" rx="10" ry="10"/>
    <ellipse style="fill: none; fill-opacity:0; stroke-width: 2; stroke: #000000" cx="-600" cy="400" rx="10" ry="10"/>
  </g>
  <g>
    <ellipse style="fill: #000000" cx="-1400" cy="0" rx="10" ry="10"/>
    <ellipse style="fill: none; fill-opacity:0; stroke-width: 2; stroke: #000000" cx="-1400" cy="0" rx="10" ry="10"/>
  </g>
  <g>
    <ellipse style="fill: #000000" cx="-1400" cy="200" rx="10" ry="10"/>
    <ellipse style="fill: none; fill-opacity:0; stroke-width: 2; stroke: #000000" cx="-1400" cy="200" rx="10" ry="10"/>
  </g>
  <g>
    <ellipse style="fill: #000000" cx="-1200" cy="400" rx="10" ry="10"/>
    <ellipse style="fill: none; fill-opacity:0; stroke-width: 2; stroke: #000000" cx="-1200" cy="400" rx="10" ry="10"/>
  </g>
  <g>
    <ellipse style="fill: #000000" cx="-1000" cy="400" rx="10" ry="10"/>
    <ellipse style="fill: none; fill-opacity:0; stroke-width: 2; stroke: #000000" cx="-1000" cy="400" rx="10" ry="10"/>
  </g>
  <g>
    <ellipse style="fill: #000000" cx="-800" cy="400" rx="10" ry="10"/>
    <ellipse style="fill: none; fill-opacity:0; stroke-width: 2; stroke: #000000" cx="-800" cy="400" rx="10" ry="10"/>
  </g>
  <g>
    <ellipse style="fill: #000000" cx="-600" cy="0" rx="10" ry="10"/>
    <ellipse style="fill: none; fill-opacity:0; stroke-width: 2; stroke: #000000" cx="-600" cy="0" rx="10" ry="10"/>
  </g>
  <g>
    <ellipse style="fill: #000000" cx="-800" cy="0" rx="10" ry="10"/>
    <ellipse style="fill: none; fill-opacity:0; stroke-width: 2; stroke: #000000" cx="-800" cy="0" rx="10" ry="10"/>
  </g>
  <g>
    <ellipse style="fill: #000000" cx="-1000" cy="0" rx="10" ry="10"/>
    <ellipse style="fill: none; fill-opacity:0; stroke-width: 2; stroke: #000000" cx="-1000" cy="0" rx="10" ry="10"/>
  </g>
  <g>
    <ellipse style="fill: #000000" cx="-600" cy="200" rx="10" ry="10"/>
    <ellipse style="fill: none; fill-opacity:0; stroke-width: 2; stroke: #000000" cx="-600" cy="200" rx="10" ry="10"/>
  </g>
  <g>
    <ellipse style="fill: #000000" cx="-1400" cy="400" rx="10" ry="10"/>
    <ellipse style="fill: none; fill-opacity:0; stroke-width: 2; stroke: #000000" cx="-1400" cy="400" rx="10" ry="10"/>
  </g>
  <g>
    <ellipse style="fill: #000000" cx="-1200" cy="0" rx="10" ry="10"/>
    <ellipse style="fill: none; fill-opacity:0; stroke-width: 2; stroke: #000000" cx="-1200" cy="0" rx="10" ry="10"/>
  </g>
  <g>
    <line style="fill: none; fill-opacity:0; stroke-width: 2; stroke-dasharray: 12; stroke: #000000" x1="-1000" y1="640" x2="-1000" y2="829.002"/>
    <line style="fill: none; fill-opacity:0; stroke-width: 2; stroke-dasharray: 12; stroke: #000000" x1="-200" y1="640" x2="-200" y2="829.002"/>
    <line style="fill: none; fill-opacity:0; stroke-width: 2; stroke-dasharray: 12; stroke: #000000" x1="-1200" y1="640" x2="-1200" y2="840"/>
    <line style="fill: none; fill-opacity:0; stroke-width: 2; stroke-dasharray: 12; stroke: #000000" x1="-400" y1="640" x2="-400" y2="829.002"/>
    <line style="fill: none; fill-opacity:0; stroke-width: 2; stroke-dasharray: 12; stroke: #000000" x1="-600" y1="640" x2="-600" y2="829.002"/>
    <line style="fill: none; fill-opacity:0; stroke-width: 2; stroke-dasharray: 12; stroke: #000000" x1="-800" y1="640" x2="-800" y2="829.002"/>
    <line style="fill: none; fill-opacity:0; stroke-width: 2; stroke-dasharray: 12; stroke: #000000" x1="-1000" y1="1251" x2="-1000" y2="1440"/>
    <line style="fill: none; fill-opacity:0; stroke-width: 2; stroke-dasharray: 12; stroke: #000000" x1="-200" y1="1251" x2="-200" y2="1440"/>
    <line style="fill: none; fill-opacity:0; stroke-width: 2; stroke-dasharray: 12; stroke: #000000" x1="-1200" y1="1240" x2="-1200" y2="1440"/>
    <line style="fill: none; fill-opacity:0; stroke-width: 2; stroke-dasharray: 12; stroke: #000000" x1="-400" y1="1251" x2="-400" y2="1440"/>
    <line style="fill: none; fill-opacity:0; stroke-width: 2; stroke-dasharray: 12; stroke: #000000" x1="-600" y1="1251" x2="-600" y2="1440"/>
    <line style="fill: none; fill-opacity:0; stroke-width: 2; stroke-dasharray: 12; stroke: #000000" x1="-800" y1="1251" x2="-800" y2="1440"/>
    <line style="fill: none; fill-opacity:0; stroke-width: 2; stroke-dasharray: 12; stroke: #000000" x1="-1400" y1="840" x2="-1200" y2="840"/>
    <line style="fill: none; fill-opacity:0; stroke-width: 2; stroke-dasharray: 12; stroke: #000000" x1="-1400" y1="1240" x2="-1200" y2="1240"/>
    <line style="fill: none; fill-opacity:0; stroke-width: 2; stroke-dasharray: 12; stroke: #000000" x1="-1400" y1="1040" x2="-1200" y2="1040"/>
    <line style="fill: none; fill-opacity:0; stroke-width: 2; stroke-dasharray: 12; stroke: #000000" x1="-189.001" y1="840" x2="0" y2="840"/>
    <line style="fill: none; fill-opacity:0; stroke-width: 2; stroke-dasharray: 12; stroke: #000000" x1="-189.001" y1="1240" x2="0" y2="1240"/>
    <line style="fill: none; fill-opacity:0; stroke-width: 2; stroke-dasharray: 12; stroke: #000000" x1="-189.001" y1="1040" x2="0" y2="1040"/>
    <line style="fill: none; fill-opacity:0; stroke-width: 2; stroke-dasharray: 12; stroke: #000000" x1="-1400" y1="200" x2="-1200" y2="200"/>
    <line style="fill: none; fill-opacity:0; stroke-width: 2; stroke-dasharray: 12; stroke: #000000" x1="-800" y1="200" x2="-600" y2="200"/>
    <line style="fill: none; fill-opacity:0; stroke-width: 2; stroke-dasharray: 12; stroke: #000000" x1="-800" y1="0" x2="-800" y2="200"/>
    <line style="fill: none; fill-opacity:0; stroke-width: 2; stroke-dasharray: 12; stroke: #000000" x1="-1200" y1="0" x2="-1200" y2="200"/>
    <line style="fill: none; fill-opacity:0; stroke-width: 2; stroke-dasharray: 12; stroke: #000000" x1="-1200" y1="200" x2="-1200" y2="400"/>
    <line style="fill: none; fill-opacity:0; stroke-width: 2; stroke-dasharray: 12; stroke: #000000" x1="-1000" y1="0" x2="-1000" y2="200"/>
    <line style="fill: none; fill-opacity:0; stroke-width: 2; stroke-dasharray: 12; stroke: #000000" x1="-1000" y1="200" x2="-1000" y2="400"/>
    <line style="fill: none; fill-opacity:0; stroke-width: 2; stroke-dasharray: 12; stroke: #000000" x1="-800" y1="200" x2="-800" y2="400"/>
  </g>
</svg>
