<?xml version="1.0" encoding="UTF-8" standalone="no"?>
<!DOCTYPE svg PUBLIC "-//W3C//DTD SVG 1.1//EN" "http://www.w3.org/Graphics/SVG/1.1/DTD/svg11.dtd">
<!-- Generováno Microsoft Visiem, export SVG vulkantexture2.svg Stránka-1 -->
<svg xmlns="http://www.w3.org/2000/svg" xmlns:xlink="http://www.w3.org/1999/xlink" xmlns:ev="http://www.w3.org/2001/xml-events"
		width="3.94742in" height="3.94742in" viewBox="0 0 284.215 284.215" xml:space="preserve" color-interpolation-filters="sRGB"
		class="st2">
	<style type="text/css">
	<![CDATA[
		.st1 {fill:none;stroke:none;stroke-linecap:round;stroke-linejoin:round;stroke-width:0.75}
		.st2 {fill:none;fill-rule:evenodd;font-size:12px;overflow:visible;stroke-linecap:square;stroke-miterlimit:3}
	]]>
	</style>

	<g>
		<title>Stránka-1</title>
		<g id="shape1-1" transform="translate(0.375,-0.375)">
			<title>List.1</title>
			<rect x="0" y="0.750002" width="283.465" height="283.465" class="st1"/>
			<svg viewBox="0 0 354.43 354.73" enable-background="new" color-interpolation-filters="sRGB" height="283.465"
					preserveAspectRatio="none" width="283.465" x="0" y="0.750002">
				<defs>
					<clipPath id="mfid1">
						<rect id="mfid2" x="0" y="0" width="354.43" height="354.73"/>
					</clipPath>
				</defs>
				<g clip-path="url(#mfid1)">
					<g transform="matrix(0.0354, 0, 0, 0.0355, 0, 0)">
						<g fill-rule="evenodd" stroke-width="26.491" stroke="none" fill="#ffffff">
							<path d="M4999,9999 L0,9999 L0,0 L9999,0 L9999,9999 L4999,9999 Z"/>
						</g>
						<g fill-rule="evenodd" stroke-width="26.491" stroke="none" fill="#000000">
							<polygon points="402,9349 402,9312 402,9275 6739,9274 6739,9311 6739,9348 402,9349"/>
							<path d="M6721,9450 L6721,9172 L7455,9311 L6721,9450 Z"/>
						</g>
						<g fill-rule="evenodd" stroke-width="26.491" stroke="none" fill="#ffffff">
							<path d="M3929,9865 L3601,9865 L3601,8752 L4255,8752 L4255,9865 L3929,9865 Z"/>
							<g font-family="&#39;Calibri&#39;,swiss,sans-serif" font-style="italic" font-weight="400"
									font-size="784">
								<text stroke="none" fill="#000000" x="0,311" y="0" transform="translate(3775,9622)"
										xml:space="preserve">s</text>
							</g>
						</g>
						<g fill-rule="evenodd" stroke-width="26.491" stroke="none" fill="#000000">
							<polygon points="9264,6914 9227,6914 9190,6914 9191,498 9228,498 9265,498 9264,6914"/>
							<path d="M9088,6896 L9366,6896 L9227,7630 L9088,6896 Z"/>
						</g>
						<g fill-rule="evenodd" stroke-width="26.491" stroke="none" fill="#ffffff">
							<path d="M9780,4069 L9780,4373 L8668,4373 L8668,3764 L9780,3764 L9780,4069 Z"/>
							<g font-family="&#39;Calibri&#39;,swiss,sans-serif" font-style="italic" font-weight="400"
									font-size="784">
								<text stroke="none" fill="#000000" x="0,254" y="0" transform="translate(9539,4200) rotate(-90)"
										xml:space="preserve">t</text>
							</g>
						</g>
						<g fill-rule="evenodd" stroke-width="26.491" stroke="none" fill="#d9d9d9">
							<path d="M3929,7552 L402,7552 L402,499 L7455,499 L7455,7552 L3929,7552 Z"/>
						</g>
						<g fill-rule="evenodd" stroke-width="26.491" stroke="none" fill="#4a7ebb">
							<polygon points="402,509 402,500 402,491 7457,492 7457,501 7457,510 402,509"/>
							<polygon points="402,4038 402,4028 402,4019 7457,4019 7457,4028 7457,4038 402,4038"/>
							<polygon points="7448,500 7457,500 7466,500 7467,7555 7458,7555 7449,7555 7448,500"/>
						</g>
						<g fill-rule="evenodd" stroke-width="26.491" stroke="none" fill="#000000">
							<path
									d="M1945,2272 L1945,2272 L1945,2260 L1947,2249 L1948,2237 L1950,2226 L1952,2215 L1956,2203 L1959,2192 L1963,2182 L1968,2171 L1974,2161 L1979,2151 L1986,2141 L1993,2132 L2000,2123 L2008,2115 L2016,2106 L2024,2099 L2034,2091 L2043,2084 L2052,2078 L2062,2072 L2072,2067 L2083,2062 L2094,2058 L2105,2053 L2116,2051 L2127,2048 L2138,2046 L2150,2044 L2161,2043 L2173,2043 L2173,2043 L2185,2043 L2197,2044 L2208,2046 L2220,2048 L2232,2051 L2243,2054 L2254,2058 L2265,2063 L2277,2068 L2287,2074 L2297,2080 L2306,2087 L2316,2094 L2325,2101 L2334,2110 L2342,2118 L2350,2128 L2357,2137 L2364,2147 L2370,2157 L2376,2167 L2381,2178 L2386,2189 L2390,2201 L2393,2212 L2396,2224 L2398,2235 L2399,2247 L2400,2259 L2401,2271 L2401,2271 L2401,2283 L2399,2294 L2398,2306 L2396,2318 L2393,2330 L2390,2341 L2386,2353 L2381,2364 L2376,2374 L2370,2385 L2364,2395 L2357,2405 L2350,2415 L2343,2424 L2334,2432 L2326,2440 L2316,2448 L2307,2456 L2297,2462 L2287,2469 L2277,2474 L2265,2479 L2255,2484 L2243,2488 L2232,2492 L2220,2494 L2208,2497 L2197,2498 L2185,2499 L2173,2499 L2173,2499 L2161,2499 L2149,2498 L2138,2497 L2126,2494 L2114,2492 L2103,2488 L2091,2484 L2080,2480 L2070,2474 L2059,2469 L2049,2462 L2039,2456 L2029,2449 L2020,2441 L2012,2433 L2004,2424 L1996,2415 L1988,2406 L1981,2396 L1975,2385 L1970,2375 L1965,2364 L1960,2353 L1956,2342 L1952,2331 L1949,2319 L1947,2307 L1946,2295 L1945,2283 L1945,2272 L1945,2272 Z M1945,2043 L1945,2043 Z M2402,2500 L2402,2500 Z"/>
							<path
									d="M1945,5799 L1945,5799 L1945,5787 L1947,5776 L1948,5764 L1950,5753 L1952,5742 L1956,5731 L1959,5720 L1963,5709 L1968,5698 L1974,5689 L1979,5678 L1986,5669 L1993,5659 L2000,5650 L2008,5642 L2016,5634 L2024,5626 L2034,5619 L2043,5612 L2052,5605 L2062,5600 L2072,5594 L2083,5589 L2094,5585 L2105,5581 L2116,5578 L2127,5575 L2138,5573 L2150,5572 L2161,5571 L2173,5571 L2173,5571 L2185,5571 L2197,5572 L2208,5573 L2220,5575 L2232,5578 L2243,5582 L2254,5586 L2265,5590 L2277,5596 L2287,5601 L2297,5607 L2306,5614 L2316,5621 L2325,5629 L2334,5637 L2342,5646 L2350,5655 L2357,5664 L2364,5674 L2370,5684 L2376,5695 L2381,5706 L2386,5716 L2390,5728 L2393,5739 L2396,5751 L2398,5763 L2399,5775 L2400,5787 L2401,5798 L2401,5798 L2401,5810 L2399,5822 L2398,5834 L2396,5846 L2393,5857 L2390,5869 L2386,5880 L2381,5891 L2376,5902 L2370,5912 L2364,5923 L2357,5932 L2350,5942 L2343,5951 L2334,5959 L2326,5968 L2316,5975 L2307,5983 L2297,5990 L2287,5996 L2277,6002 L2265,6007 L2255,6012 L2243,6016 L2232,6019 L2220,6022 L2208,6024 L2197,6025 L2185,6026 L2173,6027 L2173,6027 L2161,6027 L2149,6025 L2138,6024 L2126,6022 L2114,6019 L2103,6016 L2091,6012 L2080,6007 L2070,6002 L2059,5996 L2049,5990 L2039,5983 L2029,5976 L2020,5969 L2012,5960 L2004,5952 L1996,5942 L1988,5933 L1981,5923 L1975,5913 L1970,5903 L1965,5891 L1960,5881 L1956,5869 L1952,5858 L1949,5846 L1947,5834 L1946,5823 L1945,5811 L1945,5799 L1945,5799 Z M1945,5571 L1945,5571 Z M2402,6028 L2402,6028 Z"/>
							<path
									d="M5473,2272 L5473,2272 L5473,2260 L5474,2249 L5476,2237 L5478,2226 L5480,2215 L5483,2203 L5487,2192 L5491,2182 L5496,2171 L5501,2161 L5507,2151 L5513,2141 L5520,2132 L5528,2123 L5535,2115 L5544,2106 L5552,2099 L5561,2091 L5570,2084 L5580,2078 L5590,2072 L5600,2067 L5610,2062 L5621,2058 L5633,2053 L5644,2051 L5655,2048 L5666,2046 L5678,2044 L5689,2043 L5701,2043 L5701,2043 L5712,2043 L5724,2044 L5736,2046 L5748,2048 L5760,2051 L5771,2054 L5782,2058 L5793,2063 L5804,2068 L5814,2074 L5824,2080 L5834,2087 L5844,2094 L5853,2101 L5862,2110 L5869,2118 L5878,2128 L5885,2137 L5892,2147 L5898,2157 L5903,2167 L5908,2178 L5913,2189 L5917,2201 L5921,2212 L5924,2224 L5926,2235 L5927,2247 L5928,2259 L5928,2271 L5928,2271 L5928,2283 L5927,2294 L5926,2306 L5924,2318 L5921,2330 L5917,2341 L5913,2353 L5909,2364 L5903,2374 L5898,2385 L5892,2395 L5885,2405 L5878,2415 L5870,2424 L5862,2432 L5853,2440 L5844,2448 L5835,2456 L5825,2462 L5814,2469 L5804,2474 L5793,2479 L5783,2484 L5771,2488 L5760,2492 L5748,2494 L5736,2497 L5724,2498 L5712,2499 L5701,2499 L5701,2499 L5689,2499 L5677,2498 L5665,2497 L5653,2494 L5642,2492 L5630,2488 L5619,2484 L5608,2480 L5597,2474 L5587,2469 L5576,2462 L5567,2456 L5557,2449 L5548,2441 L5540,2433 L5531,2424 L5524,2415 L5516,2406 L5509,2396 L5503,2385 L5497,2375 L5492,2364 L5487,2353 L5483,2342 L5480,2331 L5477,2319 L5475,2307 L5474,2295 L5473,2283 L5472,2272 L5473,2272 Z M5473,2043 L5473,2043 Z M5930,2500 L5930,2500 Z"/>
							<path
									d="M5473,5799 L5473,5799 L5473,5787 L5474,5776 L5476,5764 L5478,5753 L5480,5742 L5483,5731 L5487,5720 L5491,5709 L5496,5698 L5501,5689 L5507,5678 L5513,5669 L5520,5659 L5528,5650 L5535,5642 L5544,5634 L5552,5626 L5561,5619 L5570,5612 L5580,5605 L5590,5600 L5600,5594 L5610,5589 L5621,5585 L5633,5581 L5644,5578 L5655,5575 L5666,5573 L5678,5572 L5689,5571 L5701,5571 L5701,5571 L5712,5571 L5724,5572 L5736,5573 L5748,5575 L5760,5578 L5771,5582 L5782,5586 L5793,5590 L5804,5596 L5814,5601 L5824,5607 L5834,5614 L5844,5621 L5853,5629 L5862,5637 L5869,5646 L5878,5655 L5885,5664 L5892,5674 L5898,5684 L5903,5695 L5908,5706 L5913,5716 L5917,5728 L5921,5739 L5924,5751 L5926,5763 L5927,5775 L5928,5787 L5928,5798 L5928,5798 L5928,5810 L5927,5822 L5926,5834 L5924,5846 L5921,5857 L5917,5869 L5913,5880 L5909,5891 L5903,5902 L5898,5912 L5892,5923 L5885,5932 L5878,5942 L5870,5951 L5862,5959 L5853,5968 L5844,5975 L5835,5983 L5825,5990 L5814,5996 L5804,6002 L5793,6007 L5783,6012 L5771,6016 L5760,6019 L5748,6022 L5736,6024 L5724,6025 L5712,6026 L5701,6027 L5701,6027 L5689,6027 L5677,6025 L5665,6024 L5653,6022 L5642,6019 L5630,6016 L5619,6012 L5608,6007 L5597,6002 L5587,5996 L5576,5990 L5567,5983 L5557,5976 L5548,5969 L5540,5960 L5531,5952 L5524,5942 L5516,5933 L5509,5923 L5503,5913 L5497,5903 L5492,5891 L5487,5881 L5483,5869 L5480,5858 L5477,5846 L5475,5834 L5474,5823 L5473,5811 L5472,5799 L5473,5799 Z M5473,5571 L5473,5571 Z M5930,6028 L5930,6028 Z"/>
						</g>
						<g fill-rule="evenodd" stroke-width="26.491" stroke="none" fill="#4a7ebb">
							<polygon points="402,7564 402,7555 402,7546 7457,7547 7457,7556 7457,7565 402,7564"/>
							<polygon points="393,500 402,500 411,500 412,7555 403,7555 394,7555 393,500"/>
							<polygon points="3930,499 3939,499 3948,499 3939,7555 3930,7555 3921,7555 3930,499"/>
						</g>
						<g fill-rule="evenodd" stroke-width="26.491" stroke="none" fill="#ff0000">
							<polygon points="2130,2883 2167,2883 2204,2883 2209,5172 2172,5172 2135,5172 2130,2883"/>
							<path d="M2166,2485 L2028,2901 L2306,2901 L2166,2485 Z"/>
							<path d="M2173,5570 L2311,5153 L2034,5153 L2173,5570 Z"/>
							<polygon points="5665,2899 5702,2899 5739,2899 5740,5171 5703,5171 5666,5171 5665,2899"/>
							<path d="M5702,2501 L5563,2918 L5841,2918 L5702,2501 Z"/>
							<path d="M5703,5569 L5842,5153 L5565,5153 L5703,5569 Z"/>
							<polygon points="2802,2306 2802,2269 2802,2232 5074,2226 5074,2263 5074,2300 2802,2306"/>
							<path d="M2404,2269 L2820,2408 L2820,2130 L2404,2269 Z"/>
							<path d="M5471,2263 L5055,2124 L5055,2402 L5471,2263 Z"/>
							<polygon points="2802,5837 2802,5800 2802,5763 5074,5764 5074,5801 5074,5838 2802,5837"/>
							<path d="M2404,5800 L2820,5939 L2820,5661 L2404,5800 Z"/>
							<path d="M5471,5801 L5055,5662 L5055,5940 L5471,5801 Z"/>
						</g>
						<g stroke-width="26.491" stroke="#ff0000" stroke-miterlimit="10" fill="none">
							<g font-family="&#39;Calibri&#39;,swiss,sans-serif" font-style="italic" font-weight="400"
									font-size="784">
								<text stroke="none" fill="#ff0000" x="0,403,794,1196,1594" y="0" transform="translate(3141,1701)"
										xml:space="preserve">dPdx</text>
							</g>
							<g font-family="&#39;Calibri&#39;,swiss,sans-serif" font-style="normal" font-weight="400"
									font-size="455">
								<text stroke="none" fill="#ff0000" x="0,226" y="0" transform="translate(4678,1897)"
										xml:space="preserve">0</text>
							</g>
							<g font-family="&#39;Calibri&#39;,swiss,sans-serif" font-style="italic" font-weight="400"
									font-size="784">
								<text stroke="none" fill="#ff0000" x="0,403,794,1196,1594" y="0" transform="translate(3031,7103)"
										xml:space="preserve">dPdx</text>
							</g>
							<g font-family="&#39;Calibri&#39;,swiss,sans-serif" font-style="normal" font-weight="400"
									font-size="455">
								<text stroke="none" fill="#ff0000" x="0,226" y="0" transform="translate(4569,7362)"
										xml:space="preserve">1</text>
							</g>
							<g font-family="&#39;Calibri&#39;,swiss,sans-serif" font-style="italic" font-weight="400"
									font-size="784">
								<text stroke="none" fill="#ff0000" x="0,403,794,1196,1594" y="0"
										transform="translate(1714,4891) rotate(-90)" xml:space="preserve">dPdy</text>
							</g>
							<g font-family="&#39;Calibri&#39;,swiss,sans-serif" font-style="normal" font-weight="400"
									font-size="455">
								<text stroke="none" fill="#ff0000" x="0,225" y="0" transform="translate(1972,3344) rotate(-90)"
										xml:space="preserve">0</text>
							</g>
							<g font-family="&#39;Calibri&#39;,swiss,sans-serif" font-style="italic" font-weight="400"
									font-size="784">
								<text stroke="none" fill="#ff0000" x="0,403,794,1196,1594" y="0"
										transform="translate(6785,4780) rotate(-90)" xml:space="preserve">dPdy</text>
							</g>
							<g font-family="&#39;Calibri&#39;,swiss,sans-serif" font-style="normal" font-weight="400"
									font-size="455">
								<text stroke="none" fill="#ff0000" x="0,225" y="0" transform="translate(7043,3234) rotate(-90)"
										xml:space="preserve">1</text>
							</g>
						</g>
					</g>
					<mask id="mfid3" fill-rule="evenodd" fill="white" stroke="none"/>
				</g>
			</svg>
			<rect x="0" y="0.750002" width="283.465" height="283.465" class="st1"/>
		</g>
	</g>
</svg>
