<?xml version="1.0" encoding="utf-8"?>
<svg viewBox="73.923 107.251 327.192 209.593" width="327.192" height="209.593" xmlns="http://www.w3.org/2000/svg" xmlns:bx="https://boxy-svg.com">
  <path d="M 148.794 172.547 L 213.338 301.635 L 84.25 301.635 L 148.794 172.547 Z" style="fill: rgb(216, 216, 216); stroke: rgb(0, 0, 0);" bx:shape="triangle 84.25 172.547 129.088 129.088 0.5 0 1@2f5ba8d9"/>
  <path d="M 148.654 -301.635 L 180.926 -237.952 L 116.382 -237.952 L 148.654 -301.635 Z" style="fill: rgb(216, 216, 216); stroke: rgb(0, 0, 0);" transform="matrix(1, 0, 0, -1, 0, 0)" bx:shape="triangle 116.382 -301.635 64.544 63.683 0.5 0 1@2be11a3d"/>
  <text style="white-space: pre; fill: rgb(51, 51, 51); font-family: Arial, sans-serif; font-size: 12px;" x="73.923" y="314.066">v0</text>
  <text style="white-space: pre; fill: rgb(51, 51, 51); font-family: Arial, sans-serif; font-size: 12px;" x="209.465" y="312.775">v1</text>
  <text style="white-space: pre; fill: rgb(51, 51, 51); font-family: Arial, sans-serif; font-size: 12px;" x="142.769" y="162.172">v2</text>
  <text style="white-space: pre; fill: rgb(51, 51, 51); font-family: Arial, sans-serif; font-size: 12px;" x="110.497" y="284.376">0</text>
  <text style="white-space: pre; fill: rgb(51, 51, 51); font-family: Arial, sans-serif; font-size: 12px;" x="145.642" y="261.279">1</text>
  <text style="white-space: pre; fill: rgb(51, 51, 51); font-family: Arial, sans-serif; font-size: 12px;" x="180.205" y="284.376">2</text>
  <text style="white-space: pre; fill: rgb(51, 51, 51); font-family: Arial, sans-serif; font-size: 12px;" x="145.2" y="220.262">3</text>
  <path d="M 327.763 171.485 L 392.307 300.573 L 263.219 300.573 L 327.763 171.485 Z" style="fill: rgb(216, 216, 216); stroke: rgb(0, 0, 0);" bx:shape="triangle 263.219 171.485 129.088 129.088 0.5 0 1@8ef7d94b"/>
  <path d="M 327.623 -300.573 L 359.895 -236.89 L 295.351 -236.89 L 327.623 -300.573 Z" style="fill: rgb(216, 216, 216); stroke: rgb(0, 0, 0);" transform="matrix(1, 0, 0, -1, 0, 0)" bx:shape="triangle 295.351 -300.573 64.544 63.683 0.5 0 1@9020b4f4"/>
  <text style="white-space: pre; fill: rgb(51, 51, 51); font-family: Arial, sans-serif; font-size: 12px;" x="252.892" y="313.004">v0</text>
  <text style="white-space: pre; fill: rgb(51, 51, 51); font-family: Arial, sans-serif; font-size: 12px;" x="388.434" y="311.713">v1</text>
  <text style="white-space: pre; fill: rgb(51, 51, 51); font-family: Arial, sans-serif; font-size: 12px;" x="321.738" y="161.11">v2</text>
  <path d="M 295.684 -300.573 L 312.107 -268.164 L 279.26 -268.164 L 295.684 -300.573 Z" style="fill: rgb(216, 216, 216); stroke: rgb(0, 0, 0);" transform="matrix(1, 0, 0, -1, 0, 0)" bx:shape="triangle 279.26 -300.573 32.847 32.409 0.5 0 1@0507e9e0"/>
  <path d="M 359.792 -300.416 L 376.215 -268.007 L 343.368 -268.007 L 359.792 -300.416 Z" style="fill: rgb(216, 216, 216); stroke: rgb(0, 0, 0);" transform="matrix(1, 0, 0, -1, 0, 0)" bx:shape="triangle 343.368 -300.416 32.847 32.409 0.5 0 1@92a3e3ee"/>
  <path d="M 327.879 -236.442 L 344.302 -204.033 L 311.455 -204.033 L 327.879 -236.442 Z" style="fill: rgb(216, 216, 216); stroke: rgb(0, 0, 0);" transform="matrix(1, 0, 0, -1, 0, 0)" bx:shape="triangle 311.455 -236.442 32.847 32.409 0.5 0 1@fe99ef55"/>
  <path d="M 327.799 235.644 L 344.223 268.053 L 311.376 268.053 L 327.799 235.644 Z" style="fill: rgb(216, 216, 216); stroke: rgb(0, 0, 0);" bx:shape="triangle 311.376 235.644 32.847 32.409 0.5 0 1@30302937"/>
  <text style="white-space: pre; fill: rgb(51, 51, 51); font-family: Arial, sans-serif; font-size: 28px;" transform="matrix(0.312849, 0, 0, 0.312846, 309.186122, 249.271405)">4</text>
  <text style="white-space: pre; fill: rgb(51, 51, 51); font-family: Arial, sans-serif; font-size: 28px;" transform="matrix(0.312849, 0, 0, 0.312846, 325.397365, 259.078793)">5</text>
  <text style="white-space: pre; fill: rgb(51, 51, 51); font-family: Arial, sans-serif; font-size: 28px;" transform="matrix(0.312849, 0, 0, 0.312846, 341.893001, 248.702587)">6</text>
  <text style="white-space: pre; fill: rgb(51, 51, 51); font-family: Arial, sans-serif; font-size: 28px;" transform="matrix(0.312849, 0, 0, 0.312846, 325.112941, 281.40002)">7</text>
  <text style="white-space: pre; fill: rgb(51, 51, 51); font-family: Arial, sans-serif; font-size: 28px;" transform="matrix(0.312849, 0, 0, 0.312846, 276.19479, 291.656917)">0</text>
  <text style="white-space: pre; fill: rgb(51, 51, 51); font-family: Arial, sans-serif; font-size: 28px;" transform="matrix(0.312849, 0, 0, 0.312846, 292.415188, 280.702755)">1</text>
  <text style="white-space: pre; fill: rgb(51, 51, 51); font-family: Arial, sans-serif; font-size: 28px;" transform="matrix(0.312849, 0, 0, 0.312846, 310.030178, 292.923)">2</text>
  <text style="white-space: pre; fill: rgb(51, 51, 51); font-family: Arial, sans-serif; font-size: 28px;" transform="matrix(0.312849, 0, 0, 0.312846, 292.121639, 258.225582)">3</text>
  <text style="white-space: pre; fill: rgb(51, 51, 51); font-family: Arial, sans-serif; font-size: 28px;" transform="matrix(0.312849, 0, 0, 0.312846, 340.755366, 293.198238)">8</text>
  <text style="white-space: pre; fill: rgb(51, 51, 51); font-family: Arial, sans-serif; font-size: 28px;" transform="matrix(0.312849, 0, 0, 0.312846, 356.682215, 280.546779)">9</text>
  <text style="white-space: pre; fill: rgb(51, 51, 51); font-family: Arial, sans-serif; font-size: 28px;" transform="matrix(0.312849, 0, 0, 0.312846, 372.893458, 292.785366)">10</text>
  <text style="white-space: pre; fill: rgb(51, 51, 51); font-family: Arial, sans-serif; font-size: 28px;" transform="matrix(0.312849, 0, 0, 0.312846, 356.251033, 259.363186)">11</text>
  <text style="white-space: pre; fill: rgb(51, 51, 51); font-family: Arial, sans-serif; font-size: 28px;" transform="matrix(0.312849, 0, 0, 0.312846, 339.333308, 228.22543)">12</text>
  <text style="white-space: pre; fill: rgb(51, 51, 51); font-family: Arial, sans-serif; font-size: 28px;" transform="matrix(0.312849, 0, 0, 0.312846, 322.268855, 217.427197)">13</text>
  <text style="white-space: pre; fill: rgb(51, 51, 51); font-family: Arial, sans-serif; font-size: 28px;" transform="matrix(0.312849, 0, 0, 0.312846, 305.488796, 228.638287)">14</text>
  <text style="white-space: pre; fill: rgb(51, 51, 51); font-family: Arial, sans-serif; font-size: 28px;" transform="matrix(0.312849, 0, 0, 0.312846, 323.2597, 195.80325)">15</text>
  <text style="white-space: pre; fill: rgb(51, 51, 51); font-family: Arial, sans-serif; font-size: 28px;" transform="matrix(0.611032, 0, 0, 0.611027, 121.846228, 124.47064)">Level 1</text>
  <text style="white-space: pre; fill: rgb(51, 51, 51); font-family: Arial, sans-serif; font-size: 28px;" transform="matrix(0.611032, 0, 0, 0.611027, 299.707607, 122.804205)">Level 2<tspan x="0" dy="1em">​</tspan></text>
</svg>