<?xml version="1.0" encoding="UTF-8"?>
<!DOCTYPE svg PUBLIC "-//W3C//DTD SVG 1.1//EN"
  "http://www.w3.org/Graphics/SVG/1.1/DTD/svg11.dtd">

<svg xmlns="http://www.w3.org/2000/svg" version="1.1" viewBox="-125 20 450 100">
  <defs>
    <marker id="lineend" viewBox="0 0 1 3" refX="1" refY="1.5" markerWidth="1" markerHeight="3" orient="auto">
      <rect width="1" height="3" x="0" y="0" fill="black" />
    </marker>
    <!-- The VKSpec SVG to PDF does not like auto-start-reverse -->
    <marker id="linestart" viewBox="0 0 1 3" refX="0" refY="1.5" markerWidth="1" markerHeight="3" orient="auto">
      <rect width="1" height="3" x="0" y="0" fill="black" />
    </marker>
    <marker id="arrow" viewBox="0 0 2 3" refX="1" refY="1.5" markerWidth="3" markerHeight="4" orient="auto">
      <path d="M 0 0.5 l 0.5 -0.5 l 1.5 1.5 l -1.5 1.5 l -0.5 -0.5 l 1 -1 z" style="fill:black;" stroke-linecap="butt" />
    </marker>
  </defs>

  <line x1="200" y1="50" x2="250" y2="37.5" style="stroke:black;stroke-width:2;" stroke-dasharray="3,3" />
  <circle fill="#008000" r="3" cx="200" cy="50" />
  <line x1="150" y1="62.5" x2="200" y2="50" style="stroke:black;stroke-width:2;" />
  <path d="M 150 100 L 100 50 L 200 25 z" fill="#FF8080" opacity="0.75" stroke="none" />
  <circle fill="#FF0000" r="3" cx="150" cy="62.5" />
  <line x1="100" y1="75" x2="150" y2="62.5" style="stroke:black;stroke-width:2;" />
  <circle fill="#0000FF" r="3" cx="100" cy="75" />
  <line x1="50" y1="87.5" x2="100" y2="75" style="stroke:black;stroke-width:2;" stroke-dasharray="3,3" />
  <path d="M 0 100 l 25 -6.125 l 25 -6.125" style="stroke:black;stroke-width:2;" marker-end="url(#lineend)" marker-mid="url(#arrow)" marker-start="url(#linestart)"/>
  <line x1="-50" y1="112.5" x2="0" y2="100" style="stroke:black;stroke-width:2;" stroke-dasharray="3,3" />
  <text x="-3.75" y="93" style="font-style:normal;font-weight:bold;font-size:11px;font-family:serif;">o</text>
  <text x="20" y="86.875" style="font-style:normal;font-weight:bold;font-size:11px;font-family:serif;">d</text>
  <text x="82.5" y="90" style="font-style:normal;font-weight:bold;font-size:11px;font-family:serif;">o</text>
  <text x="90" y="91" style="font-style:italic;font-weight:normal;font-size:11px;font-family:serif;">+</text>
  <text x="100" y="90" style="font-style:italic;font-weight:normal;font-size:11px;font-family:serif;">t</text>
  <text x="104" y="92" style="font-style:italic;font-weight:normal;font-size:6px;font-family:serif;">min</text>
  <text x="115" y="90" style="font-style:normal;font-weight:bold;font-size:11px;font-family:serif;">d</text>
  <text x="134.5" y="55" style="font-style:normal;font-weight:bold;font-size:11px;font-family:serif;">o</text>
  <text x="141" y="56" style="font-style:italic;font-weight:normal;font-size:11px;font-family:serif;">+</text>
  <text x="150" y="55" style="font-style:italic;font-weight:normal;font-size:11px;font-family:serif;">t</text>
  <text x="155" y="55" style="font-style:normal;font-weight:bold;font-size:11px;font-family:serif;">d</text>
  <text x="182.5" y="65" style="font-style:normal;font-weight:bold;font-size:11px;font-family:serif;">o</text>
  <text x="190" y="66" style="font-style:italic;font-weight:normal;font-size:11px;font-family:serif;">+</text>
  <text x="200" y="65" style="font-style:italic;font-weight:normal;font-size:11px;font-family:serif;">t</text>
  <text x="204" y="67" style="font-style:italic;font-weight:normal;font-size:6px;font-family:serif;">max</text>
  <text x="216" y="65" style="font-style:normal;font-weight:bold;font-size:11px;font-family:serif;">d</text>
</svg>
