<?xml version="1.0" encoding="UTF-8" standalone="no"?>
<!DOCTYPE svg PUBLIC "-//W3C//DTD SVG 1.1//EN" "http://www.w3.org/Graphics/SVG/1.1/DTD/svg11.dtd">
<svg width="160" height="160" viewBox="-500 -500 11000 11000" xmlns="http://www.w3.org/2000/svg" version="1.1">
	<desc>VK_SAMPLE_COUNT_8_BIT</desc>
	<defs>
		<marker id="Triangle" viewBox="0 0 10 10" refX="0" refY="5" markerUnits="strokeWidth" markerWidth="8" markerHeight="8" orient="auto">
			<path d="M 0 0 L 10 5 L 0 10 z" />
		</marker>
	</defs>
	<g>
		<!-- Axes -->
		<line x1="00000" x2="10000" y1="00000" y2="00000" stroke-width="00050" stroke="black" marker-end="url(#Triangle)" />
		<line x1="00000" x2="00000" y1="00000" y2="10000" stroke-width="00050" stroke="black" marker-end="url(#Triangle)" />
		<!-- Helper-lines -->
		<line x1="00000" x2="10000" y1="10000" y2="10000" stroke-width="00010" stroke="black" stroke-dasharray="00100" />
		<line x1="10000" x2="10000" y1="00000" y2="10000" stroke-width="00010" stroke="black" stroke-dasharray="00100" />
		<!-- Helper-lines horizontal -->
		<line x1="00000" x2="10000" y1="00625" y2="00625" stroke-width="00010" stroke="black" stroke-dasharray="00100" />
		<line x1="00000" x2="10000" y1="01875" y2="01875" stroke-width="00010" stroke="black" stroke-dasharray="00100" />
		<line x1="00000" x2="10000" y1="03125" y2="03125" stroke-width="00010" stroke="black" stroke-dasharray="00100" />
		<line x1="00000" x2="10000" y1="04375" y2="04375" stroke-width="00010" stroke="black" stroke-dasharray="00100" />
		<line x1="00000" x2="10000" y1="05625" y2="05625" stroke-width="00010" stroke="black" stroke-dasharray="00100" />
		<line x1="00000" x2="10000" y1="06875" y2="06875" stroke-width="00010" stroke="black" stroke-dasharray="00100" />
		<line x1="00000" x2="10000" y1="08125" y2="08125" stroke-width="00010" stroke="black" stroke-dasharray="00100" />
		<line x1="00000" x2="10000" y1="09375" y2="09375" stroke-width="00010" stroke="black" stroke-dasharray="00100" />
		<!-- Helper-lines vertical -->
		<line x1="00625" x2="00625" y1="00000" y2="10000" stroke-width="00010" stroke="black" stroke-dasharray="00100" />
		<line x1="01875" x2="01875" y1="00000" y2="10000" stroke-width="00010" stroke="black" stroke-dasharray="00100" />
		<line x1="03125" x2="03125" y1="00000" y2="10000" stroke-width="00010" stroke="black" stroke-dasharray="00100" />
		<line x1="04375" x2="04375" y1="00000" y2="10000" stroke-width="00010" stroke="black" stroke-dasharray="00100" />
		<line x1="05625" x2="05625" y1="00000" y2="10000" stroke-width="00010" stroke="black" stroke-dasharray="00100" />
		<line x1="06875" x2="06875" y1="00000" y2="10000" stroke-width="00010" stroke="black" stroke-dasharray="00100" />
		<line x1="08125" x2="08125" y1="00000" y2="10000" stroke-width="00010" stroke="black" stroke-dasharray="00100" />
		<line x1="09375" x2="09375" y1="00000" y2="10000" stroke-width="00010" stroke="black" stroke-dasharray="00100" />
		<!-- Dots -->
		<circle cx="05625" cy="03125" r="00200" fill="black" /><text x="05625" y="03125" fill="red" font-size="01100" transform="translate(00200 -00200)">0</text>
		<circle cx="04375" cy="06875" r="00200" fill="black" /><text x="04375" y="06875" fill="red" font-size="01100" transform="translate(00200 -00200)">1</text>
		<circle cx="08125" cy="05625" r="00200" fill="black" /><text x="08125" y="05625" fill="red" font-size="01100" transform="translate(00200 -00200)">2</text>
		<circle cx="03125" cy="01875" r="00200" fill="black" /><text x="03125" y="01875" fill="red" font-size="01100" transform="translate(00200 -00200)">3</text>
		<circle cx="01875" cy="08125" r="00200" fill="black" /><text x="01875" y="08125" fill="red" font-size="01100" transform="translate(00200 -00200)">4</text>
		<circle cx="00625" cy="04375" r="00200" fill="black" /><text x="00625" y="04375" fill="red" font-size="01100" transform="translate(00200 -00200)">5</text>
		<circle cx="06875" cy="09375" r="00200" fill="black" /><text x="06875" y="09375" fill="red" font-size="01100" transform="translate(00200 -00200)">6</text>
		<circle cx="09375" cy="00625" r="00200" fill="black" /><text x="09375" y="00625" fill="red" font-size="01100" transform="translate(00200  00700)">7</text>
	</g>
</svg>
