<?xml version="1.0" encoding="UTF-8" standalone="no"?>
<!DOCTYPE svg PUBLIC "-//W3C//DTD SVG 1.1//EN" "http://www.w3.org/Graphics/SVG/1.1/DTD/svg11.dtd">
<svg width="160" height="160" viewBox="-500 -500 11000 11000" xmlns="http://www.w3.org/2000/svg" version="1.1">
	<desc>VK_SAMPLE_COUNT_4_BIT</desc>
	<defs>
		<marker id="Triangle" viewBox="0 0 10 10" refX="0" refY="5" markerUnits="strokeWidth" markerWidth="8" markerHeight="8" orient="auto">
			<path d="M 0 0 L 10 5 L 0 10 z" />
		</marker>
	</defs>
	<g>
		<!-- Axises -->
		<line x1="00000" x2="10000" y1="00000" y2="00000" stroke-width="00050" stroke="black" marker-end="url(#Triangle)" />
		<line x1="00000" x2="00000" y1="00000" y2="10000" stroke-width="00050" stroke="black" marker-end="url(#Triangle)" />
		<!-- Helper-lines -->
		<line x1="00000" x2="10000" y1="10000" y2="10000" stroke-width="00010" stroke="black" stroke-dasharray="00100" />
		<line x1="10000" x2="10000" y1="00000" y2="10000" stroke-width="00010" stroke="black" stroke-dasharray="00100" />
		<!-- Helper-lines horizontal -->
		<line x1="00000" x2="10000" y1="01250" y2="01250" stroke-width="00010" stroke="black" stroke-dasharray="00100" />
		<line x1="00000" x2="10000" y1="03750" y2="03750" stroke-width="00010" stroke="black" stroke-dasharray="00100" />
		<line x1="00000" x2="10000" y1="06250" y2="06250" stroke-width="00010" stroke="black" stroke-dasharray="00100" />
		<line x1="00000" x2="10000" y1="08750" y2="08750" stroke-width="00010" stroke="black" stroke-dasharray="00100" />
		<!-- Helper-lines vertical -->
		<line x1="01250" x2="01250" y1="00000" y2="10000" stroke-width="00010" stroke="black" stroke-dasharray="00100" />
		<line x1="03750" x2="03750" y1="00000" y2="10000" stroke-width="00010" stroke="black" stroke-dasharray="00100" />
		<line x1="06250" x2="06250" y1="00000" y2="10000" stroke-width="00010" stroke="black" stroke-dasharray="00100" />
		<line x1="08750" x2="08750" y1="00000" y2="10000" stroke-width="00010" stroke="black" stroke-dasharray="00100" />
		<!-- Dots -->
		<circle cx="03750" cy="01250" r="00200" fill="black" /><text x="03750" y="01250" fill="red" font-size="01100" transform="translate(00200 -00200)">0</text>
		<circle cx="08750" cy="03750" r="00200" fill="black" /><text x="08750" y="03750" fill="red" font-size="01100" transform="translate(00200 -00200)">1</text>
		<circle cx="01250" cy="06250" r="00200" fill="black" /><text x="01250" y="06250" fill="red" font-size="01100" transform="translate(00200 -00200)">2</text>
		<circle cx="06250" cy="08750" r="00200" fill="black" /><text x="06250" y="08750" fill="red" font-size="01100" transform="translate(00200 -00200)">3</text>
	</g>
</svg>
