<?xml version="1.0" encoding="utf-8"?>
<!-- Generator: Adobe Illustrator 22.0.1, SVG Export Plug-In . SVG Version: 6.00 Build 0)  -->
<svg version="1.1" id="Vulkan" xmlns="http://www.w3.org/2000/svg" xmlns:xlink="http://www.w3.org/1999/xlink" x="0px" y="0px"
	 width="1715px" height="500px" viewBox="0 0 1715 500" enable-background="new 0 0 1715 500" xml:space="preserve">
<g>
	<path fill="#A41E22" d="M724.1,385.1h-40.6c0,0,0-99,0-129.7c13,7.2,30.1,20.5,40.6,33.3V385.1z"/>
	<g>
		<path fill="#A41E22" d="M381.8,385.1h-50.6l-66-204h46l45.4,143.5h0.6l46-143.5h46.3L381.8,385.1z"/>
		<path fill="#A41E22" d="M585.5,385.1h-38.6v-20.6h-0.9c-5.1,8.6-11.8,14.8-20,18.6c-8.2,3.8-16.6,5.7-25.1,5.7
			c-10.9,0-19.8-1.4-26.7-4.3c-7-2.9-12.4-6.9-16.4-12.1c-4-5.2-6.8-11.6-8.4-19.1c-1.6-7.5-2.4-15.9-2.4-25v-90.9h40.6v83.4
			c0,12.2,1.9,21.3,5.7,27.3c3.8,6,10.6,9,20.3,9c11,0,19.1-3.3,24-9.9c5-6.6,7.4-17.4,7.4-32.4v-77.4h40.6V385.1z"/>
	</g>
	<polygon fill="#A41E22" points="730.8,296.2 730.7,290.5 781.9,237.3 829.9,237.3 774.2,291.6 836.2,385.1 787,385.1 	"/>
	<path fill="#A41E22" d="M843.6,282.8c0.6-9.5,3-17.4,7.2-23.7c4.2-6.3,9.5-11.3,16-15.1c6.5-3.8,13.8-6.5,21.9-8.1
		c8.1-1.6,16.2-2.4,24.4-2.4c7.4,0,15,0.5,22.6,1.6c7.6,1.1,14.6,3.1,20.9,6.1c6.3,3.1,11.4,7.3,15.4,12.7c4,5.4,6,12.6,6,21.6v76.9
		c0,6.7,0.4,13.1,1.1,19.1c0.8,6.1,2.1,10.7,4,13.7h-41.2c-0.8-2.3-1.4-4.6-1.9-7c-0.5-2.4-0.8-4.8-1-7.3
		c-6.5,6.7-14.1,11.3-22.9,14c-8.8,2.7-17.7,4-26.9,4c-7,0-13.6-0.9-19.7-2.6c-6.1-1.7-11.4-4.4-16-8c-4.6-3.6-8.2-8.2-10.7-13.7
		c-2.6-5.5-3.9-12.1-3.9-19.7c0-8.4,1.5-15.3,4.4-20.7c3-5.4,6.8-9.8,11.4-13c4.7-3.2,10-5.7,16-7.3c6-1.6,12-2.9,18.1-3.9
		c6.1-0.9,12.1-1.7,18-2.3c5.9-0.6,11.1-1.4,15.7-2.6c4.6-1.1,8.2-2.8,10.9-5c2.7-2.2,3.9-5.4,3.7-9.6c0-4.4-0.7-7.9-2.2-10.4
		c-1.4-2.6-3.3-4.6-5.7-6c-2.4-1.4-5.1-2.4-8.3-2.9c-3.1-0.5-6.5-0.7-10.1-0.7c-8,0-14.3,1.7-18.9,5.1c-4.6,3.4-7.2,9.1-8,17.1
		H843.6z M937.4,312.8c-1.7,1.5-3.9,2.7-6.4,3.6c-2.6,0.9-5.3,1.6-8.3,2.2c-3,0.6-6,1-9.3,1.4c-3.2,0.4-6.5,0.9-9.7,1.4
		c-3,0.6-6,1.3-9,2.3c-3,1-5.5,2.2-7.7,3.9c-2.2,1.6-4,3.7-5.3,6.1c-1.3,2.5-2,5.6-2,9.4c0,3.6,0.7,6.7,2,9.1
		c1.3,2.5,3.1,4.4,5.4,5.9c2.3,1.4,5,2.4,8,3c3.1,0.6,6.2,0.9,9.4,0.9c8,0,14.2-1.3,18.6-4c4.4-2.7,7.6-5.9,9.7-9.6
		c2.1-3.7,3.4-7.5,3.9-11.3c0.5-3.8,0.7-6.9,0.7-9.1V312.8z"/>
	<path fill="#A41E22" d="M1004.2,237.3h38.6v20.6h0.9c5.1-8.6,11.8-14.8,20-18.7c8.2-3.9,16.6-5.9,25.1-5.9
		c10.9,0,19.8,1.5,26.7,4.4c7,3,12.4,7.1,16.4,12.3c4,5.2,6.8,11.6,8.4,19.1c1.6,7.5,2.4,15.9,2.4,25v90.9h-40.6v-83.4
		c0-12.2-1.9-21.3-5.7-27.3c-3.8-6-10.6-9-20.3-9c-11,0-19,3.3-24,9.9c-5,6.6-7.4,17.4-7.4,32.4v77.4h-40.6V237.3z"/>
	<g>
		<path fill="#A41E22" d="M612.4,211.8v173.2h40.6V234.2C639.9,226.2,626.4,218.7,612.4,211.8z"/>
	</g>
	<path fill="#A41E22" d="M198.4,219.2c23.5-68.9,164.2-94.2,314.1-56.4c90,22.6,163.5,66.5,211.5,109.9
		C702.3,215.1,596.7,133.1,451.2,105c-164.5-31.8-326.7-3.9-346.8,69.1c-14.5,52.7,49.2,114.5,147.7,156.7
		C207.8,295,186.3,254.8,198.4,219.2z"/>
	<g>
		<path fill="#A41E22" d="M724.2,247.6V181h-40.6v20.2C700.9,216.7,714.6,232.4,724.2,247.6z"/>
	</g>
</g>
<path fill="#A41E22" d="M1186.1,177.7c-3.5,0-6.4,2.9-6.4,6.4v198.7c0,3.5,2.9,6.4,6.4,6.4c3.5,0,6.4-2.9,6.4-6.4V184.2
	C1192.5,180.6,1189.7,177.7,1186.1,177.7z"/>
<path fill="#A41E22" d="M1532.8,181.1h-287.5c-7.9,0-14.4,6.4-14.4,14.4v115.4c0,25.8,15.7,48.8,39.5,58.4c30.3,12.3,82,28,104,34.5
	c6.8,2,14.1,2,21,0.1c23.1-6.6,78.5-22.8,111.1-35.2c24.5-9.3,40.6-32.7,40.6-58.9h0.1V195.5
	C1547.3,187.6,1540.9,181.1,1532.8,181.1z M1373.2,323.1c-3.1,5.3-7.2,9.6-12.3,12.8c-5,3.2-10.9,5.6-17.4,6.9
	c-6.5,1.4-13.2,2.1-20.1,2.1c-7.3,0-14.1-0.9-20.5-2.5c-6.5-1.6-12.2-4.3-17.2-7.9c-5-3.6-9-8.2-12-13.8c-3-5.6-4.5-12.4-4.5-20.4
	h32.6v0.2c0.3,7.4,2.7,12.4,6.8,15.2c4.2,2.8,9.8,4.2,16.8,4.2c2.5,0,4.9-0.2,7.3-0.7c2.4-0.4,4.5-1.2,6.4-2.1c1.8-1,3.4-2.4,4.6-4
	c1.2-1.6,1.7-3.6,1.7-6c0-2.8-1.1-5-3.1-6.8c-2-1.7-4.7-3.3-8.1-4.6c-3.4-1.3-7.2-2.5-11.4-3.4c-4.3-1-8.7-2.1-13.2-3.4
	c-4.4-1.3-8.9-2.8-13.2-4.6c-4.4-1.7-8.2-4-11.8-6.7c-3.4-2.8-6.2-6.1-8.4-10.2c-2.1-4.1-3.2-8.9-3.2-14.6c0-6.7,1.5-12.6,4.6-17.4
	c3.1-4.8,7.1-8.8,12-11.8s10.4-5.2,16.5-6.6c6.1-1.4,12-2.1,17.8-2.1c6.2,0,12.3,0.7,18.3,2.4c6,1.6,11.3,4,16,7.3
	c4.7,3.3,8.4,7.5,11.3,12.5c2.9,5,4.4,11.1,4.4,18.1h-32.5c0.1-2.8-0.4-5.1-1.6-7.1c-1.2-1.9-2.7-3.4-4.6-4.6
	c-1.9-1.2-4.1-2-6.5-2.6c-2.5-0.5-4.9-0.7-7.4-0.7c-1.7,0-3.5,0.2-5.4,0.5c-1.8,0.3-3.5,1-5,1.7c-1.5,0.9-2.8,1.9-3.7,3.2
	c-1,1.4-1.5,3.1-1.5,5.1c0,2.5,1.1,4.4,3.1,6c2,1.5,4.8,2.9,8.2,4.1c3.4,1.2,7.3,2.2,11.6,3.1c4.3,1,8.8,2,13.2,3.3
	c4.6,1.3,9,2.8,13.2,4.6c4.3,1.8,8.1,4.1,11.5,6.8c3.4,2.8,6.1,6.1,8.2,10.2c2.1,4.1,3.1,8.9,3.1,14.4
	C1377.8,311,1376.3,317.6,1373.2,323.1z M1467.8,248c-4.5-3.3-10.2-4.9-17.1-4.9c-5.2,0-9.7,1.1-13.4,3.1c-3.6,2.1-6.6,4.9-9,8.4
	c-2.4,3.5-4.1,7.5-5,11.9c-1.1,4.4-1.6,9-1.6,13.7c0,4.7,0.5,9.2,1.6,13.7c1.1,4.4,2.8,8.4,5,11.9c2.4,3.5,5.3,6.3,9,8.4
	c3.6,2.1,8.1,3.1,13.4,3.1c7.7,0,13.7-2,18-6.1c4.3-4.1,6.6-9.7,7.3-17h32.5c-0.4,8-2.2,15.3-5.2,21.6c-3,6.3-7.1,11.8-12.1,16.1
	c-5,4.4-10.9,7.7-17.6,9.9c-6.7,2.2-14.1,3.4-22,3.4c-9.4,0-18.1-1.7-25.8-5c-7.7-3.4-14.2-8-19.7-13.9c-5.4-5.9-9.6-12.7-12.5-20.6
	c-2.9-7.9-4.4-16.3-4.4-25.4s1.5-17.5,4.4-25.4c2.9-7.9,7.1-14.7,12.5-20.6c5.4-5.9,12-10.5,19.7-13.9c7.7-3.4,16.2-5,25.8-5
	c6.7,0,13.5,1.1,20.2,3.1c6.7,2.1,12.7,5.1,18.1,9.2c5.3,4.1,9.7,9,13.2,14.9c3.4,5.9,5.2,12.6,5.6,20h-32.6v-0.1
	C1474.9,256.1,1472.3,251.3,1467.8,248z"/>
<g id="TM_2_">
	<path fill="#A41E22" d="M1586.2,186.8h-7.5v19.6h-6.6v-19.6h-7.5v-5.6h21.6L1586.2,186.8L1586.2,186.8z"/>
	<path fill="#A41E22" d="M1589.1,181.2h9.7l4.3,16.8h0.1l4.3-16.8h9.7v25.2h-6.1v-19.2h-0.1l-5.3,19.2h-5l-5.3-19.2h-0.1v19.2h-6.1
		V181.2L1589.1,181.2z"/>
</g>
<g>
	<path fill="#A41E22" d="M1159,198.5c0,3.1-0.8,6.1-2.4,8.8s-3.7,4.9-6.4,6.4c-2.7,1.6-5.6,2.3-8.8,2.3c-3.1,0-6-0.8-8.8-2.3
		c-2.7-1.6-4.9-3.7-6.4-6.4c-1.6-2.7-2.4-5.6-2.4-8.8c0-3.1,0.8-6,2.4-8.8c1.6-2.7,3.7-4.9,6.4-6.4c2.7-1.6,5.6-2.3,8.8-2.3
		c3.1,0,6.1,0.8,8.8,2.3c2.7,1.6,4.9,3.7,6.4,6.4C1158.2,192.4,1159,195.3,1159,198.5z M1155.6,198.5c0-3.9-1.4-7.2-4.1-10
		c-2.8-2.8-6.1-4.1-10-4.1c-3.9,0-7.2,1.4-10,4.1c-2.8,2.8-4.1,6.1-4.1,10s1.4,7.2,4.1,10c2.8,2.8,6.1,4.1,10,4.1
		c3.9,0,7.2-1.4,10-4.1C1154.2,205.7,1155.6,202.4,1155.6,198.5z M1133.5,189.1h8.4c2.4,0,4.1,0.5,5.2,1.4c1.1,1,1.6,2.2,1.6,3.9
		c0,1.3-0.4,2.3-1.2,3.3c-0.8,0.9-2.1,1.6-3.8,2c0.7,0.3,1.2,0.6,1.6,0.9c0.5,0.4,1,1.1,1.5,1.9c0,0.1,1,1.9,3,5.4h-5.5
		c-1.8-3.6-3-5.7-3.6-6.4c-0.6-0.7-1.2-1-1.8-1c-0.1,0-0.3,0-0.6,0.1v7.4h-4.7L1133.5,189.1L1133.5,189.1z M1138.1,197h2
		c1.3,0,2.3-0.2,2.9-0.7c0.6-0.4,0.8-1,0.8-1.7c0-0.7-0.3-1.3-0.8-1.7c-0.5-0.4-1.4-0.7-2.7-0.7h-2.2L1138.1,197L1138.1,197z"/>
</g>
</svg>
