<svg width="122.63mm" height="111.37mm" version="1.1" viewBox="0 0 122.63 111.37" xmlns="http://www.w3.org/2000/svg"><defs><marker id="accelstructa" style="overflow:visible" orient="auto"><path transform="matrix(-.8 0 0 -.8 -10 0)" d="m0 0 5-5-17.5 5 17.5 5z" style="fill-rule:evenodd;stroke-width:1pt;stroke:#000"/></marker><marker id="accelstructe" style="overflow:visible" orient="auto"><path transform="matrix(-.8 0 0 -.8 -10 0)" d="m0 0 5-5-17.5 5 17.5 5z" style="fill-rule:evenodd;stroke-width:1pt;stroke:#000"/></marker><marker id="accelstructb" style="overflow:visible" orient="auto"><path transform="matrix(-.8 0 0 -.8 -10 0)" d="m0 0 5-5-17.5 5 17.5 5z" style="fill-rule:evenodd;stroke-width:1pt;stroke:#000"/></marker><marker id="accelstructc" style="overflow:visible" orient="auto"><path transform="matrix(-.8 0 0 -.8 -10 0)" d="m0 0 5-5-17.5 5 17.5 5z" style="fill-rule:evenodd;stroke-width:1pt;stroke:#000"/></marker><marker id="accelstructd" style="overflow:visible" orient="auto"><path transform="matrix(-.8 0 0 -.8 -10 0)" d="m0 0 5-5-17.5 5 17.5 5z" style="fill-rule:evenodd;stroke-width:1pt;stroke:#000"/></marker></defs><g transform="translate(-36.531 -66.302)"><rect x="39.499" y="66.435" width="117.55" height="33.64" style="fill:#cecece;stroke-width:.26511;stroke:#000"/><rect x="54.72" y="143.84" width="34.855" height="33.76" style="fill:#cecece;stroke-width:.14462;stroke:#000"/><rect x="120.37" y="143.84" width="34.855" height="33.76" style="fill:#cecece;stroke-width:.14462;stroke:#000"/><rect x="36.664" y="109.68" width="34.207" height="21.356" ry="6.6146" style="fill:#fff;stroke-linejoin:round;stroke-width:.26511;stroke:#000"/><rect x="82.682" y="109.68" width="34.207" height="21.356" ry="6.6146" style="fill:#fff;stroke-linejoin:round;stroke-width:.26511;stroke:#000"/><rect x="124.83" y="109.68" width="34.207" height="21.356" ry="6.6146" style="fill:#fff;stroke-linejoin:round;stroke-width:.26511;stroke:#000"/><path d="m53.862 100.45v9.0714" style="fill:none;marker-end:url(#accelstructe);stroke-width:.26458;stroke:#000"/><path d="m100.35 100.01v9.0714" style="fill:none;marker-end:url(#accelstructb);stroke-width:.26458;stroke:#000"/><path d="m141.17 100.38v9.0714" style="fill:none;marker-end:url(#accelstructc);stroke-width:.26458;stroke:#000"/><path d="m137.21 131.27v12.319" style="fill:none;marker-end:url(#accelstructd);stroke-width:.30833;stroke:#000"/><path d="m52.728 131.26v7.1816h18.899v5.2917" style="fill:none;marker-end:url(#accelstructa);stroke-width:.26458px;stroke:#000"/><path d="m100.35 130.5v7.9375h-28.726" style="fill:none;stroke-width:.27112px;stroke:#000"/><text x="46.680061" y="85.333328" style="fill:#000000;font-family:sans-serif;font-size:10.583px;letter-spacing:0px;line-height:1.25;stroke-width:.26458;word-spacing:0px" xml:space="preserve"><tspan x="46.680061" y="85.333328" style="font-size:6.35px;stroke-width:.26458">Top-Level Acceleration Structure</tspan></text><text x="55.942436" y="153.21938" style="fill:#000000;font-family:sans-serif;font-size:10.583px;letter-spacing:0px;line-height:0.75;stroke-width:.26458;word-spacing:0px" xml:space="preserve"><tspan x="55.942436" y="153.21938" style="font-size:4.9389px;line-height:0px;stroke-width:.26458">Bottom-Level</tspan><tspan x="55.942436" y="161.15685" style="font-size:4.9389px;line-height:0px;stroke-width:.26458">Acceleration</tspan><tspan x="55.942436" y="169.09433" style="font-size:4.9389px;line-height:0px;stroke-width:.26458">Structure</tspan></text><text x="120.77655" y="153.21938" style="fill:#000000;font-family:sans-serif;font-size:10.583px;letter-spacing:0px;line-height:0.75;stroke-width:.26458;word-spacing:0px" xml:space="preserve"><tspan x="120.77655" y="153.21938" style="font-size:4.9389px;line-height:0px;stroke-width:.26458">Bottom-Level</tspan><tspan x="120.77655" y="161.15685" style="font-size:4.9389px;line-height:0px;stroke-width:.26458">Acceleration</tspan><tspan x="120.77655" y="169.09433" style="font-size:4.9389px;line-height:0px;stroke-width:.26458">Structure</tspan></text><text x="41.388393" y="117.02173" style="fill:#000000;font-family:sans-serif;font-size:4.2333px;letter-spacing:0px;line-height:1.25;stroke-width:.26458;word-spacing:0px" xml:space="preserve"><tspan x="41.388393" y="117.02173" style="stroke-width:.26458">Transform</tspan><tspan x="41.388393" y="122.31339" style="stroke-width:.26458">and shading</tspan><tspan x="41.388393" y="127.60506" style="stroke-width:.26458">information</tspan></text><text x="87.024742" y="117.02173" style="fill:#000000;font-family:sans-serif;font-size:4.2333px;letter-spacing:0px;line-height:1.25;stroke-width:.26458;word-spacing:0px" xml:space="preserve"><tspan x="87.024742" y="117.02173" style="stroke-width:.26458">Transform</tspan><tspan x="87.024742" y="122.31339" style="stroke-width:.26458">and shading</tspan><tspan x="87.024742" y="127.60506" style="stroke-width:.26458">information</tspan></text><text x="129.92503" y="117.02173" style="fill:#000000;font-family:sans-serif;font-size:4.2333px;letter-spacing:0px;line-height:1.25;stroke-width:.26458;word-spacing:0px" xml:space="preserve"><tspan x="129.92503" y="117.02173" style="stroke-width:.26458">Transform</tspan><tspan x="129.92503" y="122.31339" style="stroke-width:.26458">and shading</tspan><tspan x="129.92503" y="127.60506" style="stroke-width:.26458">information</tspan></text></g></svg>
