<svg width="391" height="321" version="1.1" viewBox="0 0 103.45 84.931" xmlns="http://www.w3.org/2000/svg"><defs><marker id="bresenhama" style="overflow:visible" orient="auto"><path transform="scale(-.6)" d="m8.7186 4.0337-10.926-4.0177 10.926-4.0177c-1.7455 2.3721-1.7354 5.6175-6e-7 8.0354z" style="fill-rule:evenodd;stroke-linejoin:round;stroke-width:.625;stroke:#000"/></marker></defs><g transform="translate(-31.43 48.736)"><path d="m101.68-43.313-64.823 64.823" style="fill:none;stroke-dasharray:0.996356, 0.996356;stroke-width:.33212;stroke:#000"/><g transform="matrix(1.75 0 0 1.75 -27.969 -72.26)" style="stroke-width:.15119"><circle cx="42.333" cy="21.833" r=".52779"/><circle cx="52.917" cy="21.833" r=".52779"/><circle cx="63.5" cy="21.833" r=".52779"/><circle cx="74.083" cy="21.833" r=".52779"/><circle cx="84.667" cy="21.833" r=".52779"/><path d="m37.042 16.542h52.917v42.333l-52.917 4e-6 -5e-6 -42.333m10.583 0 4e-6 42.333m10.583 0-4e-6 -42.333m10.583 0 8e-6 42.333m10.583 0-8e-6 -42.333m10.583 0v42.333m-5e-6 -10.583h-52.917m1e-6 -10.583 52.917-2e-6m0-10.583-52.917 3e-6" style="fill:none;stroke-linecap:square;stroke-width:.15119;stroke:#808080"/><circle cx="42.333" cy="32.417" r=".52779"/><circle cx="52.917" cy="32.417" r=".52779"/><circle cx="63.5" cy="32.417" r=".52779"/><circle cx="74.083" cy="32.417" r=".52779"/><circle cx="84.667" cy="32.417" r=".52779"/><circle cx="42.333" cy="43" r=".52779"/><circle cx="52.917" cy="43" r=".52779"/><circle cx="63.5" cy="43" r=".52779"/><circle cx="74.083" cy="43" r=".52779"/><circle cx="84.667" cy="43" r=".52779"/><circle cx="42.333" cy="53.583" r=".52779"/><circle cx="52.917" cy="53.583" r=".52779"/><circle cx="63.5" cy="53.583" r=".52779"/><circle cx="74.083" cy="53.583" r=".52779"/><circle cx="84.667" cy="53.583" r=".52779"/></g><path d="m120.2-43.313-74.083 74.083" style="fill:none;stroke-dasharray:0.996356, 0.996356;stroke-width:.33212;stroke:#000"/><path d="m83.156-43.313-46.302 46.302" style="fill:none;stroke-dasharray:0.996356, 0.996356;stroke-width:.33212;stroke:#000"/><path d="m64.635-43.313-27.781 27.781" style="fill:none;stroke-dasharray:0.996356, 0.996356;stroke-width:.33212;stroke:#000"/><path d="m46.114-43.313-9.2604 9.2604" style="fill:none;stroke-dasharray:0.996356, 0.996356;stroke-width:.33212;stroke:#000"/><path d="m129.46-34.052-64.823 64.823" style="fill:none;stroke-dasharray:0.996356, 0.996356;stroke-width:.33212;stroke:#000"/><path d="m129.46-15.531-46.302 46.302" style="fill:none;stroke-dasharray:0.996356, 0.996356;stroke-width:.33212;stroke:#000"/><path d="m129.46 2.9896-27.781 27.781" style="fill:none;stroke-dasharray:0.996356, 0.996356;stroke-width:.33212;stroke:#000"/><path d="m129.46 21.51-9.2604 9.2604" style="fill:none;stroke-dasharray:0.996356, 0.996356;stroke-width:.33212;stroke:#000"/><path d="m64.635-43.313-27.781 27.781" style="fill:none;stroke-dasharray:0.996356, 0.996356;stroke-width:.33212;stroke:#000"/><path d="m36.854-34.052 64.823 64.823" style="fill:none;stroke-dasharray:0.996356, 0.996356;stroke-width:.33212;stroke:#000"/><path d="m36.854-15.531 46.302 46.302" style="fill:none;stroke-dasharray:0.996356, 0.996356;stroke-width:.33212;stroke:#000"/><path d="m36.854 2.9896 27.781 27.781" style="fill:none;stroke-dasharray:0.996356, 0.996356;stroke-width:.33212;stroke:#000"/><path d="m36.854 21.51 9.2604 9.2604" style="fill:none;stroke-dasharray:0.996356, 0.996356;stroke-width:.33212;stroke:#000"/><path d="m36.854-34.052 64.823 64.823" style="fill:none;stroke-dasharray:0.996356, 0.996356;stroke-width:.33212;stroke:#000"/><path d="m46.114-43.313 74.083 74.083" style="fill:none;stroke-dasharray:0.996356, 0.996356;stroke-width:.33212;stroke:#000"/><path d="m64.635-43.313 64.823 64.823" style="fill:none;stroke-dasharray:0.996356, 0.996356;stroke-width:.33212;stroke:#000"/><path d="m83.156-43.313 46.302 46.302" style="fill:none;stroke-dasharray:0.996356, 0.996356;stroke-width:.33212;stroke:#000"/><path d="m101.68-43.313 27.781 27.781" style="fill:none;stroke-dasharray:0.996356, 0.996356;stroke-width:.33212;stroke:#000"/><path d="m120.2-43.313 9.2604 9.2604" style="fill:none;stroke-dasharray:0.996356, 0.996356;stroke-width:.33212;stroke:#000"/><path d="m42.146 20.187 76.729-59.531" style="fill:none;marker-end:url(#bresenhama);stroke-width:.53;stroke:#000"/><g transform="translate(11.906 10.583)" style="fill:#f00;stroke:#f00"><path d="m32.885 9.6042 2.6458 2.6458" style="fill:#f00;stroke-width:.33205;stroke:#f00"/><path d="m35.531 9.6042-2.6458 2.6458" style="fill:#f00;stroke-width:.33205;stroke:#f00"/></g><g transform="translate(30.427 -7.9375)" style="fill:#f00;stroke:#f00"><path d="m32.885 9.6042 2.6458 2.6458" style="fill:#f00;stroke-width:.33205;stroke:#f00"/><path d="m35.531 9.6042-2.6458 2.6458" style="fill:#f00;stroke-width:.33205;stroke:#f00"/></g><g transform="translate(48.948 -26.458)" style="fill:#f00;stroke:#f00"><path d="m32.885 9.6042 2.6458 2.6458" style="fill:#f00;stroke-width:.33205;stroke:#f00"/><path d="m35.531 9.6042-2.6458 2.6458" style="fill:#f00;stroke-width:.33205;stroke:#f00"/></g><g transform="translate(67.469 -44.979)" style="fill:#f00;stroke:#f00"><path d="m32.885 9.6042 2.6458 2.6458" style="fill:#f00;stroke-width:.33205;stroke:#f00"/><path d="m35.531 9.6042-2.6458 2.6458" style="fill:#f00;stroke-width:.33205;stroke:#f00"/></g></g></svg>
