<svg width="212.49mm" height="82.038mm" version="1.1" viewBox="0 0 212.49 82.038" xmlns="http://www.w3.org/2000/svg"><g transform="translate(85.318 -20.891)"><path d="m42.333 43v31.75" style="fill:none;stroke-width:.39688;stroke:#f00"/><path d="m58.208 43v31.75" style="fill:none;stroke-width:.39688;stroke:#f00"/><path d="m74.083 43v31.75" style="fill:none;stroke-width:.39688;stroke:#f00"/><path d="m89.958 43v31.75" style="fill:none;stroke-width:.39688;stroke:#f00"/><path d="m26.458 58.875h79.375" style="fill:none;stroke-width:.39688;stroke:#f00"/><rect x="10.583" y="27.125" width="111.12" height="63.5" style="fill:none;opacity:.885;stroke-width:.39688;stroke:#000"/><path d="m26.458 27.125v15.875" style="fill:none;stroke-dasharray:1.588, 1.588;stroke-width:.397;stroke:#000"/><path d="m42.333 27.125v15.875" style="fill:none;stroke-dasharray:1.588, 1.588;stroke-width:.397;stroke:#000"/><path d="m58.208 27.125v15.875" style="fill:none;stroke-dasharray:1.588, 1.588;stroke-width:.397;stroke:#000"/><path d="m105.83 43h15.875" style="fill:none;stroke-dasharray:1.588, 1.588;stroke-width:.397;stroke:#000"/><path d="m10.583 43h15.875" style="fill:none;stroke-dasharray:1.588, 1.588;stroke-width:.397;stroke:#000"/><text x="5.5028787" y="25.213295" style="fill:#000000;font-family:sans-serif;font-feature-settings:normal;font-size:4.2333px;font-style:italic;font-variant-caps:normal;font-variant-ligatures:normal;font-variant-numeric:normal;letter-spacing:0px;line-height:1.25;stroke-width:.39688;word-spacing:0px" xml:space="preserve"><tspan x="5.5028787" y="25.213295" style="fill:#000000;font-family:sans-serif;font-feature-settings:normal;font-size:4.2333px;font-style:italic;font-variant-caps:normal;font-variant-ligatures:normal;font-variant-numeric:normal;stroke-width:.39688">(0,1)</tspan></text><text x="116.35319" y="25.102877" style="fill:#000000;font-family:sans-serif;font-feature-settings:normal;font-size:4.2333px;font-style:italic;font-variant-caps:normal;font-variant-ligatures:normal;font-variant-numeric:normal;letter-spacing:0px;line-height:1.25;stroke-width:.39688;word-spacing:0px" xml:space="preserve"><tspan x="116.35319" y="25.102877" style="fill:#000000;font-family:sans-serif;font-feature-settings:normal;font-size:4.2333px;font-style:italic;font-variant-caps:normal;font-variant-ligatures:normal;font-variant-numeric:normal;stroke-width:.39688">(1,1)</tspan></text><text x="5.313765" y="94.580177" style="fill:#000000;font-family:sans-serif;font-feature-settings:normal;font-size:4.2333px;font-style:italic;font-variant-caps:normal;font-variant-ligatures:normal;font-variant-numeric:normal;letter-spacing:0px;line-height:1.25;stroke-width:.39688;word-spacing:0px" xml:space="preserve"><tspan x="5.313765" y="94.580177" style="fill:#000000;font-family:sans-serif;font-feature-settings:normal;font-size:4.2333px;font-style:italic;font-variant-caps:normal;font-variant-ligatures:normal;font-variant-numeric:normal;stroke-width:.39688">(0,0)</tspan></text><text x="116.56095" y="94.66819" style="fill:#000000;font-family:sans-serif;font-feature-settings:normal;font-size:4.2333px;font-style:italic;font-variant-caps:normal;font-variant-ligatures:normal;font-variant-numeric:normal;letter-spacing:0px;line-height:1.25;stroke-width:.39688;word-spacing:0px" xml:space="preserve"><tspan x="116.56095" y="94.66819" style="fill:#000000;font-family:sans-serif;font-feature-settings:normal;font-size:4.2333px;font-style:italic;font-variant-caps:normal;font-variant-ligatures:normal;font-variant-numeric:normal;stroke-width:.39688">(1,0)</tspan></text><g transform="matrix(1.5 0 0 1.5 -46.794 -77.206)"><circle cx="38.29" cy="69.582" r=".52779"/><circle cx="48.873" cy="69.582" r=".52779"/><circle cx="59.456" cy="69.582" r=".52779"/><circle cx="70.04" cy="69.582" r=".52779"/><circle cx="80.623" cy="69.582" r=".52779"/><circle cx="38.29" cy="80.166" r=".52779"/><circle cx="48.873" cy="80.166" r=".52779"/><circle cx="59.456" cy="80.166" r=".52779"/><circle cx="70.04" cy="80.166" r=".52779"/><circle cx="80.623" cy="80.166" r=".52779"/><circle cx="38.29" cy="90.749" r=".52779"/><circle cx="48.873" cy="90.749" r=".52779"/><circle cx="91.206" cy="69.582" r=".52779"/><circle cx="101.79" cy="69.582" r=".52779"/><circle cx="112.37" cy="69.582" r=".52779"/><circle cx="91.206" cy="80.166" r=".52779"/><circle cx="101.79" cy="80.166" r=".52779"/><circle cx="112.37" cy="80.166" r=".52779"/><circle cx="101.79" cy="90.749" r=".52779"/><circle cx="112.37" cy="90.749" r=".52779"/><circle transform="scale(1,-1)" cx="38.256" cy="-111.92" r=".52779"/><circle transform="scale(1,-1)" cx="48.84" cy="-111.92" r=".52779"/><circle transform="scale(1,-1)" cx="59.423" cy="-111.92" r=".52779"/><circle transform="scale(1,-1)" cx="70.006" cy="-111.92" r=".52779"/><circle transform="scale(1,-1)" cx="80.59" cy="-111.92" r=".52779"/><circle transform="scale(1,-1)" cx="38.256" cy="-101.33" r=".52779"/><circle transform="scale(1,-1)" cx="48.84" cy="-101.33" r=".52779"/><circle transform="scale(1,-1)" cx="59.423" cy="-101.33" r=".52779"/><circle transform="scale(1,-1)" cx="70.006" cy="-101.33" r=".52779"/><circle transform="scale(1,-1)" cx="80.59" cy="-101.33" r=".52779"/><circle transform="scale(1,-1)" cx="38.256" cy="-90.752" r=".52779"/><circle transform="scale(1,-1)" cx="48.84" cy="-90.752" r=".52779"/><circle transform="scale(1,-1)" cx="91.173" cy="-111.92" r=".52779"/><circle transform="scale(1,-1)" cx="101.76" cy="-111.92" r=".52779"/><circle transform="scale(1,-1)" cx="112.34" cy="-111.92" r=".52779"/><circle transform="scale(1,-1)" cx="91.173" cy="-101.33" r=".52779"/><circle transform="scale(1,-1)" cx="101.76" cy="-101.33" r=".52779"/><circle transform="scale(1,-1)" cx="112.34" cy="-101.33" r=".52779"/><circle transform="scale(1,-1)" cx="101.76" cy="-90.752" r=".52779"/><circle transform="scale(1,-1)" cx="112.34" cy="-90.752" r=".52779"/></g><path d="m74.083 27.125v15.875" style="fill:none;stroke-dasharray:1.588, 1.588;stroke-width:.397;stroke:#000"/><path d="m89.958 27.125v15.875" style="fill:none;stroke-dasharray:1.588, 1.588;stroke-width:.397;stroke:#000"/><path d="m105.83 27.125v15.875" style="fill:none;stroke-dasharray:1.588, 1.588;stroke-width:.397;stroke:#000"/><path d="m26.458 74.75v15.875" style="fill:none;stroke-dasharray:1.588, 1.588;stroke-width:.397;stroke:#000"/><path d="m42.333 74.75v15.875" style="fill:none;stroke-dasharray:1.588, 1.588;stroke-width:.397;stroke:#000"/><path d="m58.208 74.75v15.875" style="fill:none;stroke-dasharray:1.588, 1.588;stroke-width:.397;stroke:#000"/><path d="m74.083 74.75v15.875" style="fill:none;stroke-dasharray:1.588, 1.588;stroke-width:.397;stroke:#000"/><path d="m89.958 74.75v15.875" style="fill:none;stroke-dasharray:1.588, 1.588;stroke-width:.397;stroke:#000"/><path d="m105.83 74.75v15.875" style="fill:none;stroke-dasharray:1.588, 1.588;stroke-width:.397;stroke:#000"/><path d="m105.83 58.875h15.875" style="fill:none;stroke-dasharray:1.588, 1.588;stroke-width:.397;stroke:#000"/><path d="m105.83 74.75h15.875" style="fill:none;stroke-dasharray:1.588, 1.588;stroke-width:.397;stroke:#000"/><path d="m10.583 74.75h15.875" style="fill:none;stroke-dasharray:1.588, 1.588;stroke-width:.397;stroke:#000"/><path d="m10.583 58.875h15.875" style="fill:none;stroke-dasharray:1.588, 1.588;stroke-width:.397;stroke:#000"/><path d="m26.458 43h79.375v31.75h-79.375v-31.75" style="fill:none;stroke-width:.39688;stroke:#f00"/><g transform="matrix(1.5 0 0 1.5 -136.08 -54.396)"><circle cx="37.798" cy="64.923" r=".52779"/><circle cx="48.381" cy="64.923" r=".52779"/><circle cx="58.964" cy="64.923" r=".52779"/><circle cx="69.548" cy="64.923" r=".52779"/><circle cx="80.131" cy="64.923" r=".52779"/><circle cx="37.798" cy="75.506" r=".52779"/><circle cx="48.381" cy="75.506" r=".52779"/><circle cx="58.964" cy="75.506" r=".52779"/><circle cx="69.548" cy="75.506" r=".52779"/><circle cx="80.131" cy="75.506" r=".52779"/><circle cx="37.798" cy="86.089" r=".52779"/><circle cx="48.381" cy="86.089" r=".52779"/><circle cx="58.964" cy="86.089" r=".52779"/><circle cx="69.548" cy="86.089" r=".52779"/><circle cx="80.131" cy="86.089" r=".52779"/></g><rect x="-79.375" y="43" width="63.5" height="31.75" style="fill:none;opacity:.885;stroke-width:.39688;stroke:#000"/><path d="m-63.5 43v31.75" style="fill:none;stroke-dasharray:1.588, 1.588;stroke-width:.397;stroke:#000"/><path d="m-47.625 43v31.75" style="fill:none;stroke-dasharray:1.588, 1.588;stroke-width:.397;stroke:#000"/><path d="m-31.75 43v31.75" style="fill:none;stroke-dasharray:1.588, 1.588;stroke-width:.397;stroke:#000"/><path d="m-31.75 58.875h15.875" style="fill:none;stroke-dasharray:1.588, 1.588;stroke-width:.397;stroke:#000"/><path d="m-63.5 58.875h31.75" style="fill:none;stroke-width:.39688;stroke:#f00"/><path d="m-79.375 58.875h15.875" style="fill:none;stroke-dasharray:1.588, 1.588;stroke-width:.397;stroke:#000"/><text x="-84.45546" y="41.088295" style="fill:#000000;font-family:sans-serif;font-feature-settings:normal;font-size:4.2333px;font-style:italic;font-variant-caps:normal;font-variant-ligatures:normal;font-variant-numeric:normal;letter-spacing:0px;line-height:1.25;stroke-width:.39688;word-spacing:0px" xml:space="preserve"><tspan x="-84.45546" y="41.088295" style="fill:#000000;font-family:sans-serif;font-feature-settings:normal;font-size:4.2333px;font-style:italic;font-variant-caps:normal;font-variant-ligatures:normal;font-variant-numeric:normal;stroke-width:.39688">(0,1)</tspan></text><text x="-21.031706" y="41.176315" style="fill:#000000;font-family:sans-serif;font-feature-settings:normal;font-size:4.2333px;font-style:italic;font-variant-caps:normal;font-variant-ligatures:normal;font-variant-numeric:normal;letter-spacing:0px;line-height:1.25;stroke-width:.39688;word-spacing:0px" xml:space="preserve"><tspan x="-21.031706" y="41.176315" style="fill:#000000;font-family:sans-serif;font-feature-settings:normal;font-size:4.2333px;font-style:italic;font-variant-caps:normal;font-variant-ligatures:normal;font-variant-numeric:normal;stroke-width:.39688">(1,1)</tspan></text><text x="-84.644569" y="78.903603" style="fill:#000000;font-family:sans-serif;font-feature-settings:normal;font-size:4.2333px;font-style:italic;font-variant-caps:normal;font-variant-ligatures:normal;font-variant-numeric:normal;letter-spacing:0px;line-height:1.25;stroke-width:.39688;word-spacing:0px" xml:space="preserve"><tspan x="-84.644569" y="78.903603" style="fill:#000000;font-family:sans-serif;font-feature-settings:normal;font-size:4.2333px;font-style:italic;font-variant-caps:normal;font-variant-ligatures:normal;font-variant-numeric:normal;stroke-width:.39688">(0,0)</tspan></text><text x="-21.220816" y="78.991623" style="fill:#000000;font-family:sans-serif;font-feature-settings:normal;font-size:4.2333px;font-style:italic;font-variant-caps:normal;font-variant-ligatures:normal;font-variant-numeric:normal;letter-spacing:0px;line-height:1.25;stroke-width:.39688;word-spacing:0px" xml:space="preserve"><tspan x="-21.220816" y="78.991623" style="fill:#000000;font-family:sans-serif;font-feature-settings:normal;font-size:4.2333px;font-style:italic;font-variant-caps:normal;font-variant-ligatures:normal;font-variant-numeric:normal;stroke-width:.39688">(1,0)</tspan></text><text x="-52.295326" y="85.413338" style="fill:#000000;font-family:sans-serif;font-feature-settings:normal;font-size:4.2333px;font-variant-caps:normal;font-variant-ligatures:normal;font-variant-numeric:normal;letter-spacing:0px;line-height:1.25;stroke-width:.39688;word-spacing:0px" xml:space="preserve"><tspan x="-52.295326" y="85.413338" style="font-family:sans-serif;font-feature-settings:normal;font-size:4.2333px;font-variant-caps:normal;font-variant-ligatures:normal;font-variant-numeric:normal;stroke-width:.39688">(a)</tspan></text><text x="61.65501" y="101.37095" style="fill:#000000;font-family:sans-serif;font-feature-settings:normal;font-size:4.2333px;font-variant-caps:normal;font-variant-ligatures:normal;font-variant-numeric:normal;letter-spacing:0px;line-height:1.25;stroke-width:.39688;word-spacing:0px" xml:space="preserve"><tspan x="61.65501" y="101.37095" style="font-family:sans-serif;font-feature-settings:normal;font-size:4.2333px;font-variant-caps:normal;font-variant-ligatures:normal;font-variant-numeric:normal;stroke-width:.39688">(b)</tspan></text></g></svg>
