<svg width="179.41mm" height="75.332mm" version="1.1" viewBox="0 0 179.41 75.332" xmlns="http://www.w3.org/2000/svg"><g transform="translate(66.39 -28.237)"><path d="m-26.458 61.521-15.875 23.812h31.75z" style="fill:none;stroke-width:.39688px;stroke:#f00"/><text x="-33.922741" y="44.355228" style="fill:#000000;font-family:sans-serif;font-feature-settings:normal;font-size:4.2333px;font-style:italic;font-variant-caps:normal;font-variant-ligatures:normal;font-variant-numeric:normal;letter-spacing:0px;line-height:1.25;stroke-width:.39688;word-spacing:0px" xml:space="preserve"><tspan x="-33.922741" y="44.355228" style="fill:#000000;font-family:sans-serif;font-feature-settings:normal;font-size:4.2333px;font-style:italic;font-variant-caps:normal;font-variant-ligatures:normal;font-variant-numeric:normal;stroke-width:.39688">(0,1,0)</tspan></text><text x="-29.592077" y="102.01035" style="fill:#000000;font-family:sans-serif;font-feature-settings:normal;font-size:4.2333px;font-variant-caps:normal;font-variant-ligatures:normal;font-variant-numeric:normal;letter-spacing:0px;line-height:1.25;stroke-width:.39688;word-spacing:0px" xml:space="preserve"><tspan x="-29.592077" y="102.01035" style="font-family:sans-serif;font-feature-settings:normal;font-size:4.2333px;font-variant-caps:normal;font-variant-ligatures:normal;font-variant-numeric:normal;stroke-width:.39688">(a)</tspan></text><text x="65.757034" y="99.802383" style="fill:#000000;font-family:sans-serif;font-feature-settings:normal;font-size:4.2333px;font-variant-caps:normal;font-variant-ligatures:normal;font-variant-numeric:normal;letter-spacing:0px;line-height:1.25;stroke-width:.39688;text-align:center;text-anchor:middle;word-spacing:0px" xml:space="preserve"><tspan x="65.757034" y="99.802383" style="font-family:sans-serif;font-feature-settings:normal;font-size:4.2333px;font-variant-caps:normal;font-variant-ligatures:normal;font-variant-numeric:normal;stroke-width:.39688;text-align:center;text-anchor:middle">(b)</tspan></text><circle cx="-26.462" cy="45.643" r=".79168"/><circle cx="-34.399" cy="57.549" r=".79168"/><circle cx="-42.337" cy="69.455" r=".79168"/><circle cx="-50.274" cy="81.361" r=".79168"/><circle transform="scale(-1)" cx="58.205" cy="-93.274" r=".79168"/><circle transform="scale(-1,1)" cx="18.517" cy="57.549" r=".79168"/><circle transform="scale(-1,1)" cx="10.58" cy="69.455" r=".79168"/><circle transform="scale(-1,1)" cx="2.6424" cy="81.361" r=".79168"/><circle transform="scale(1,-1)" cx="5.2883" cy="-93.274" r=".79168"/><circle transform="scale(-1)" cx="42.33" cy="-93.274" r=".79168"/><circle transform="scale(-1)" cx="26.455" cy="-93.274" r=".79168"/><circle transform="scale(-1)" cx="10.58" cy="-93.274" r=".79168"/><path d="m-26.458 45.646-31.75 47.625h63.5z" style="fill:none;stroke-width:.39688px;stroke:#000"/><circle cx="-26.462" cy="61.518" r=".79168"/><circle cx="-18.524" cy="73.424" r=".79168"/><circle transform="scale(1,-1)" cx="-34.399" cy="-73.43" r=".79168"/><circle transform="scale(1,-1)" cx="-42.337" cy="-85.337" r=".79168"/><circle transform="scale(-1)" cx="10.58" cy="-85.337" r=".79168"/><circle transform="scale(-1)" cx="26.455" cy="-85.337" r=".79168"/><path d="m-18.521 57.552-7.9375 3.9688" style="fill:none;stroke-dasharray:1.5875, 1.5875;stroke-width:.39688;stroke:#000"/><path d="m-10.583 69.458-7.9375 3.9688" style="fill:none;stroke-dasharray:1.5875, 1.5875;stroke-width:.39688;stroke:#000"/><path d="m-2.6458 81.365-7.9375 3.9688" style="fill:none;stroke-dasharray:1.5875, 1.5875;stroke-width:.39688;stroke:#000"/><path d="m-10.583 93.271v-7.9375" style="fill:none;stroke-dasharray:1.5875, 1.5875;stroke-width:.39688;stroke:#000"/><path d="m-26.458 93.271v-7.9375" style="fill:none;stroke-dasharray:1.5875, 1.5875;stroke-width:.39688;stroke:#000"/><path d="m-42.333 93.271v-7.9375" style="fill:none;stroke-dasharray:1.5875, 1.5875;stroke-width:.39688;stroke:#000"/><path d="m-50.271 81.365 7.9375 3.9688" style="fill:none;stroke-dasharray:1.5875, 1.5875;stroke-width:.39688;stroke:#000"/><path d="m-42.333 69.458 7.9375 3.9688" style="fill:none;stroke-dasharray:1.5875, 1.5875;stroke-width:.39688;stroke:#000"/><path d="m-34.396 57.552 7.9375 3.9688" style="fill:none;stroke-dasharray:1.5875, 1.5875;stroke-width:.39688;stroke:#000"/><text x="-2.1713245" y="97.675507" style="fill:#000000;font-family:sans-serif;font-feature-settings:normal;font-size:4.2333px;font-style:italic;font-variant-caps:normal;font-variant-ligatures:normal;font-variant-numeric:normal;letter-spacing:0px;line-height:1.25;stroke-width:.39688;word-spacing:0px" xml:space="preserve"><tspan x="-2.1713245" y="97.675507" style="fill:#000000;font-family:sans-serif;font-feature-settings:normal;font-size:4.2333px;font-style:italic;font-variant-caps:normal;font-variant-ligatures:normal;font-variant-numeric:normal;stroke-width:.39688">(1,0,0)</tspan></text><text x="-65.716164" y="97.612831" style="fill:#000000;font-family:sans-serif;font-feature-settings:normal;font-size:4.2333px;font-style:italic;font-variant-caps:normal;font-variant-ligatures:normal;font-variant-numeric:normal;letter-spacing:0px;line-height:1.25;stroke-width:.39688;word-spacing:0px" xml:space="preserve"><tspan x="-65.716164" y="97.612831" style="fill:#000000;font-family:sans-serif;font-feature-settings:normal;font-size:4.2333px;font-style:italic;font-variant-caps:normal;font-variant-ligatures:normal;font-variant-numeric:normal;stroke-width:.39688">(0,0,1)</tspan></text><text x="58.681427" y="32.448986" style="fill:#000000;font-family:sans-serif;font-feature-settings:normal;font-size:4.2333px;font-style:italic;font-variant-caps:normal;font-variant-ligatures:normal;font-variant-numeric:normal;letter-spacing:0px;line-height:1.25;stroke-width:.39688;word-spacing:0px" xml:space="preserve"><tspan x="58.681427" y="32.448986" style="fill:#000000;font-family:sans-serif;font-feature-settings:normal;font-size:4.2333px;font-style:italic;font-variant-caps:normal;font-variant-ligatures:normal;font-variant-numeric:normal;stroke-width:.39688">(0,1,0)</tspan></text><circle cx="66.142" cy="33.736" r=".79168"/><circle cx="58.205" cy="45.643" r=".79168"/><circle cx="50.267" cy="57.549" r=".79168"/><circle cx="42.33" cy="69.455" r=".79168"/><circle transform="scale(-1)" cx="-34.399" cy="-81.368" r=".79168"/><circle transform="scale(-1,1)" cx="-74.087" cy="45.643" r=".79168"/><circle transform="scale(-1,1)" cx="-82.024" cy="57.549" r=".79168"/><circle transform="scale(-1,1)" cx="-89.962" cy="69.455" r=".79168"/><circle transform="scale(1,-1)" cx="97.892" cy="-81.368" r=".79168"/><circle cx="66.142" cy="49.611" r=".79168"/><circle cx="74.08" cy="61.518" r=".79168"/><circle transform="scale(1,-1)" cx="58.205" cy="-61.524" r=".79168"/><circle transform="scale(1,-1)" cx="50.267" cy="-73.43" r=".79168"/><circle transform="scale(-1)" cx="-82.024" cy="-73.43" r=".79168"/><path d="m66.146 61.521-11.906 17.859h23.812z" style="fill:none;stroke-width:.39688;stroke:#f00"/><circle cx="66.142" cy="61.518" r=".79168"/><circle transform="scale(1,-1)" cx="54.236" cy="-79.396" r=".79168"/><circle transform="scale(1,-1)" cx="78.061" cy="-79.396" r=".79168"/><circle cx="50.267" cy="73.424" r=".79168"/><circle cx="58.205" cy="85.33" r=".79168"/><circle transform="scale(1,-1)" cx="42.33" cy="-85.337" r=".79168"/><circle cx="82.017" cy="73.424" r=".79168"/><circle cx="89.955" cy="85.33" r=".79168"/><circle transform="scale(1,-1)" cx="74.08" cy="-85.337" r=".79168"/><circle cx="105.83" cy="93.268" r=".79168"/><circle transform="scale(1,-1)" cx="89.955" cy="-93.274" r=".79168"/><circle cx="42.33" cy="93.268" r=".79168"/><circle transform="scale(1,-1)" cx="26.455" cy="-93.274" r=".79168"/><circle cx="58.205" cy="93.268" r=".79168"/><circle transform="scale(1,-1)" cx="74.08" cy="-93.274" r=".79168"/><path d="m66.146 49.615-23.812 35.719h47.625z" style="fill:none;stroke-width:.39688;stroke:#f00"/><path d="m66.146 33.74-39.687 59.531h79.375z" style="fill:none;stroke-width:.39688px;stroke:#000"/><path d="m74.083 45.646-7.9375 3.9688-7.9375-3.9688" style="fill:none;stroke-dasharray:1.5875, 1.5875;stroke-width:.39688;stroke:#000"/><path d="m50.271 57.552 7.9375 3.9688h15.875l7.9375-3.9688" style="fill:none;stroke-dasharray:1.5875, 1.5875;stroke-width:.39688;stroke:#000"/><path d="m89.958 69.458-7.9375 3.9688-7.9375 11.906v7.9375" style="fill:none;stroke-dasharray:1.5875, 1.5875;stroke-width:.39688;stroke:#000"/><path d="m42.333 69.458 7.9375 3.9688 7.9375 11.906v7.9375" style="fill:none;stroke-dasharray:1.5875, 1.5875;stroke-width:.39688;stroke:#000"/><path d="m34.396 81.365 7.9375 3.9688v7.9375" style="fill:none;stroke-dasharray:1.5875, 1.5875;stroke-width:.39688;stroke:#000"/><path d="m97.896 81.365-7.9375 3.9688v7.9375" style="fill:none;stroke-dasharray:1.5875, 1.5875;stroke-width:.39688;stroke:#000"/><text x="98.370346" y="97.675514" style="fill:#000000;font-family:sans-serif;font-feature-settings:normal;font-size:4.2333px;font-style:italic;font-variant-caps:normal;font-variant-ligatures:normal;font-variant-numeric:normal;letter-spacing:0px;line-height:1.25;stroke-width:.39688;word-spacing:0px" xml:space="preserve"><tspan x="98.370346" y="97.675514" style="fill:#000000;font-family:sans-serif;font-feature-settings:normal;font-size:4.2333px;font-style:italic;font-variant-caps:normal;font-variant-ligatures:normal;font-variant-numeric:normal;stroke-width:.39688">(1,0,0)</tspan></text><text x="19.148937" y="97.811272" style="fill:#000000;font-family:sans-serif;font-feature-settings:normal;font-size:4.2333px;font-style:italic;font-variant-caps:normal;font-variant-ligatures:normal;font-variant-numeric:normal;letter-spacing:0px;line-height:1.25;stroke-width:.39688;word-spacing:0px" xml:space="preserve"><tspan x="19.148937" y="97.811272" style="fill:#000000;font-family:sans-serif;font-feature-settings:normal;font-size:4.2333px;font-style:italic;font-variant-caps:normal;font-variant-ligatures:normal;font-variant-numeric:normal;stroke-width:.39688">(0,0,1)</tspan></text></g></svg>
