<svg width="774.47" height="418" version="1.1" viewBox="0 0 774.47 418" xmlns="http://www.w3.org/2000/svg"><defs><marker id="pipelinek" style="overflow:visible" orient="auto"><path transform="matrix(.4 0 0 .4 4 0)" d="m0 0 5-5-17.5 5 17.5 5z" style="fill-rule:evenodd;stroke-width:1pt;stroke:#000"/></marker><marker id="pipelinel" style="overflow:visible" orient="auto"><path transform="matrix(.4 0 0 .4 4 0)" d="m0 0 5-5-17.5 5 17.5 5z" style="fill-rule:evenodd;stroke-width:1pt;stroke:#000"/></marker><marker id="pipelinem" style="overflow:visible" orient="auto"><path transform="matrix(-.4 0 0 -.4 -4 0)" d="m0 0 5-5-17.5 5 17.5 5z" style="fill-rule:evenodd;stroke-width:1pt;stroke:#000"/></marker><marker id="pipelinen" style="overflow:visible" orient="auto"><path transform="matrix(-.4 0 0 -.4 -4 0)" d="m0 0 5-5-17.5 5 17.5 5z" style="fill-rule:evenodd;stroke-width:1pt;stroke:#000"/></marker><marker id="pipelineaa" style="overflow:visible" orient="auto"><path transform="matrix(-.4 0 0 -.4 -4 0)" d="m0 0 5-5-17.5 5 17.5 5z" style="fill-rule:evenodd;stroke-width:1pt;stroke:#000"/></marker><marker id="pipelineab" style="overflow:visible" orient="auto"><path transform="matrix(-.4 0 0 -.4 -4 0)" d="m0 0 5-5-17.5 5 17.5 5z" style="fill-rule:evenodd;stroke-width:1pt;stroke:#000"/></marker><marker id="pipelineac" style="overflow:visible" orient="auto"><path transform="matrix(-.4 0 0 -.4 -4 0)" d="m0 0 5-5-17.5 5 17.5 5z" style="fill-rule:evenodd;stroke-width:1pt;stroke:#000"/></marker><marker id="pipelinead" style="overflow:visible" orient="auto"><path transform="matrix(-.4 0 0 -.4 -4 0)" d="m0 0 5-5-17.5 5 17.5 5z" style="fill-rule:evenodd;stroke-width:1pt;stroke:#000"/></marker><marker id="pipelineae" style="overflow:visible" orient="auto"><path transform="matrix(-.4 0 0 -.4 -4 0)" d="m0 0 5-5-17.5 5 17.5 5z" style="fill-rule:evenodd;stroke-width:1pt;stroke:#000"/></marker><marker id="pipelineaf" style="overflow:visible" orient="auto"><path transform="matrix(.4 0 0 .4 4 0)" d="m0 0 5-5-17.5 5 17.5 5z" style="fill-rule:evenodd;stroke-width:1pt;stroke:#000"/></marker><marker id="pipelineag" style="overflow:visible" orient="auto"><path transform="matrix(-.4 0 0 -.4 -4 0)" d="m0 0 5-5-17.5 5 17.5 5z" style="fill-rule:evenodd;stroke-width:1pt;stroke:#000"/></marker><marker id="pipelineah" style="overflow:visible" orient="auto"><path transform="matrix(-.4 0 0 -.4 -4 0)" d="m0 0 5-5-17.5 5 17.5 5z" style="fill-rule:evenodd;stroke-width:1pt;stroke:#000"/></marker><marker id="pipelineai" style="overflow:visible" orient="auto"><path transform="matrix(-.4 0 0 -.4 -4 0)" d="m0 0 5-5-17.5 5 17.5 5z" style="fill-rule:evenodd;stroke-width:1pt;stroke:#000"/></marker><marker id="pipelineaj" style="overflow:visible" orient="auto"><path transform="matrix(-.4 0 0 -.4 -4 0)" d="m0 0 5-5-17.5 5 17.5 5z" style="fill-rule:evenodd;stroke-width:1pt;stroke:#000"/></marker><marker id="pipelinea" style="overflow:visible" orient="auto"><path transform="matrix(-.4 0 0 -.4 -4 0)" d="m0 0 5-5-17.5 5 17.5 5z" style="fill-rule:evenodd;stroke-width:1pt;stroke:#000"/></marker><marker id="pipelinec" style="overflow:visible" orient="auto"><path transform="matrix(-.4 0 0 -.4 -4 0)" d="m0 0 5-5-17.5 5 17.5 5z" style="fill-rule:evenodd;stroke-width:1pt;stroke:#000"/></marker><marker id="pipelined" style="overflow:visible" orient="auto"><path transform="matrix(-.4 0 0 -.4 -4 0)" d="m0 0 5-5-17.5 5 17.5 5z" style="fill-rule:evenodd;stroke-width:1pt;stroke:#000"/></marker><marker id="pipelinee" style="overflow:visible" orient="auto"><path transform="matrix(-.4 0 0 -.4 -4 0)" d="m0 0 5-5-17.5 5 17.5 5z" style="fill-rule:evenodd;stroke-width:1pt;stroke:#000"/></marker><marker id="pipelineh" style="overflow:visible" orient="auto"><path transform="matrix(.4 0 0 .4 4 0)" d="m0 0 5-5-17.5 5 17.5 5z" style="fill-rule:evenodd;stroke-width:1pt;stroke:#000"/></marker><marker id="pipelinej" style="overflow:visible" orient="auto"><path transform="matrix(-.4 0 0 -.4 -4 0)" d="m0 0 5-5-17.5 5 17.5 5z" style="fill-rule:evenodd;stroke-width:1pt;stroke:#000"/></marker><marker id="pipelineg" style="overflow:visible" orient="auto"><path transform="matrix(.4 0 0 .4 4 0)" d="m0 0 5-5-17.5 5 17.5 5z" style="fill-rule:evenodd;stroke-width:1pt;stroke:#000"/></marker><marker id="pipelinef" style="overflow:visible" orient="auto"><path transform="matrix(-.4 0 0 -.4 -4 0)" d="m0 0 5-5-17.5 5 17.5 5z" style="fill-rule:evenodd;stroke-width:1pt;stroke:#000"/></marker><marker id="pipelinez" style="overflow:visible" orient="auto"><path transform="matrix(-.4 0 0 -.4 -4 0)" d="m0 0 5-5-17.5 5 17.5 5z" style="fill-rule:evenodd;stroke-width:1pt;stroke:#000"/></marker><marker id="pipeliney" style="overflow:visible" orient="auto"><path transform="matrix(-.4 0 0 -.4 -4 0)" d="m0 0 5-5-17.5 5 17.5 5z" style="fill-rule:evenodd;stroke-width:1pt;stroke:#000"/></marker><marker id="pipelinev" style="overflow:visible" orient="auto"><path transform="matrix(-.4 0 0 -.4 -4 0)" d="m0 0 5-5-17.5 5 17.5 5z" style="fill-rule:evenodd;stroke-width:1pt;stroke:#000"/></marker><marker id="pipelineu" style="overflow:visible" orient="auto"><path transform="matrix(-.4 0 0 -.4 -4 0)" d="m0 0 5-5-17.5 5 17.5 5z" style="fill-rule:evenodd;stroke-width:1pt;stroke:#000"/></marker><marker id="pipelinet" style="overflow:visible" orient="auto"><path transform="matrix(-.4 0 0 -.4 -4 0)" d="m0 0 5-5-17.5 5 17.5 5z" style="fill-rule:evenodd;stroke-width:1pt;stroke:#000"/></marker><marker id="pipelinex" style="overflow:visible" orient="auto"><path transform="matrix(-.4 0 0 -.4 -4 0)" d="m0 0 5-5-17.5 5 17.5 5z" style="fill-rule:evenodd;stroke-width:1pt;stroke:#000"/></marker><marker id="pipelineak" style="overflow:visible" orient="auto"><path transform="matrix(.4 0 0 .4 4 0)" d="m0 0 5-5-17.5 5 17.5 5z" style="fill-rule:evenodd;stroke-width:1pt;stroke:#000"/></marker><marker id="pipelinei" style="overflow:visible" orient="auto"><path transform="matrix(-.4 0 0 -.4 -4 0)" d="m0 0 5-5-17.5 5 17.5 5z" style="fill-rule:evenodd;stroke-width:1pt;stroke:#000"/></marker><marker id="pipelinew" style="overflow:visible" orient="auto"><path transform="matrix(-.4 0 0 -.4 -4 0)" d="m0 0 5-5-17.5 5 17.5 5z" style="fill-rule:evenodd;stroke-width:1pt;stroke:#000"/></marker><marker id="pipelines" style="overflow:visible" orient="auto"><path transform="matrix(-.4 0 0 -.4 -4 0)" d="m0 0 5-5-17.5 5 17.5 5z" style="fill-rule:evenodd;stroke-width:1pt;stroke:#000"/></marker><marker id="pipeliner" style="overflow:visible" orient="auto"><path transform="matrix(-.4 0 0 -.4 -4 0)" d="m0 0 5-5-17.5 5 17.5 5z" style="fill-rule:evenodd;stroke-width:1pt;stroke:#000"/></marker><marker id="pipelineo" style="overflow:visible" orient="auto"><path transform="matrix(-.4 0 0 -.4 -4 0)" d="m0 0 5-5-17.5 5 17.5 5z" style="fill-rule:evenodd;stroke-width:1pt;stroke:#000"/></marker><marker id="pipelineq" style="overflow:visible" orient="auto"><path transform="matrix(-.4 0 0 -.4 -4 0)" d="m0 0 5-5-17.5 5 17.5 5z" style="fill-rule:evenodd;stroke-width:1pt;stroke:#000"/></marker><marker id="pipelinep" style="overflow:visible" orient="auto"><path transform="matrix(-.4 0 0 -.4 -4 0)" d="m0 0 5-5-17.5 5 17.5 5z" style="fill-rule:evenodd;stroke-width:1pt;stroke:#000"/></marker><marker id="pipelineb" style="overflow:visible" orient="auto"><path transform="matrix(-.4 0 0 -.4 -4 0)" d="m0 0 5-5-17.5 5 17.5 5z" style="fill-rule:evenodd;stroke-width:1pt;stroke:#000"/></marker></defs><g transform="translate(37.965 2.1124)"><rect x="-24.995" y="269.39" width="220" height="20" style="fill:#fff;stroke-width:.89574;stroke:#000"/><rect x="-24.995" y="159.39" width="220" height="20" style="fill:#fff;stroke-width:.89574;stroke:#f00"/><rect x="-24.995" y="129.39" width="220" height="20" style="fill:#fff;stroke-width:.89574;stroke:#000"/><rect x="-24.995" y="99.388" width="220" height="20" style="fill:#fff;stroke-width:.89574;stroke:#f00"/><rect x="-24.995" y="59.388" width="220" height="20" style="fill:#fff;stroke-width:.89574;stroke:#f00"/><rect x="-24.995" y="-.61241" width="220" height="20" style="fill:#fff;stroke-width:.89574;stroke:#000"/><rect x="-24.995" y="29.388" width="220" height="20" style="fill:#fff;stroke-width:.89574;stroke:#000"/><text x="84.9011" y="74.351746" style="fill:#000000;font-family:sans-serif;font-feature-settings:normal;font-size:13.333px;font-variant-caps:normal;font-variant-ligatures:normal;font-variant-numeric:normal;letter-spacing:0px;line-height:1.25;stroke-width:1.27;text-align:center;text-anchor:middle;word-spacing:0px" xml:space="preserve"><tspan x="84.9011" y="74.351746" style="font-family:sans-serif;font-feature-settings:normal;font-size:13.333px;font-variant-caps:normal;font-variant-ligatures:normal;font-variant-numeric:normal;stroke-width:1.27;text-align:center;text-anchor:middle">Vertex Shader</tspan></text><text x="84.634171" y="14.133646" style="fill:#000000;font-family:sans-serif;font-feature-settings:normal;font-size:13.333px;font-variant-caps:normal;font-variant-ligatures:normal;font-variant-numeric:normal;letter-spacing:0px;line-height:1.25;stroke-width:1.27;text-align:center;text-anchor:middle;word-spacing:0px" xml:space="preserve"><tspan x="84.634171" y="14.133646" style="font-family:sans-serif;font-feature-settings:normal;font-size:13.333px;font-variant-caps:normal;font-variant-ligatures:normal;font-variant-numeric:normal;stroke-width:1.27;text-align:center;text-anchor:middle">Draw</tspan></text><text x="84.539764" y="43.111511" style="fill:#000000;font-family:sans-serif;font-feature-settings:normal;font-size:13.333px;font-variant-caps:normal;font-variant-ligatures:normal;font-variant-numeric:normal;letter-spacing:0px;line-height:1.25;stroke-width:1.27;text-align:center;text-anchor:middle;word-spacing:0px" xml:space="preserve"><tspan x="84.539764" y="43.111511" style="font-family:sans-serif;font-feature-settings:normal;font-size:13.333px;font-variant-caps:normal;font-variant-ligatures:normal;font-variant-numeric:normal;stroke-width:1.27;text-align:center;text-anchor:middle">Input Assembler</tspan></text><text x="84.985733" y="114.35175" style="fill:#000000;font-family:sans-serif;font-feature-settings:normal;font-size:13.333px;font-variant-caps:normal;font-variant-ligatures:normal;font-variant-numeric:normal;letter-spacing:0px;line-height:1.25;stroke-width:1.27;text-align:center;text-anchor:middle;word-spacing:0px" xml:space="preserve"><tspan x="84.985733" y="114.35175" style="font-family:sans-serif;font-feature-settings:normal;font-size:13.333px;font-variant-caps:normal;font-variant-ligatures:normal;font-variant-numeric:normal;stroke-width:1.27;text-align:center;text-anchor:middle">Tessellation Control Shader</tspan></text><text x="84.985733" y="144.35175" style="fill:#000000;font-family:sans-serif;font-feature-settings:normal;font-size:13.333px;font-variant-caps:normal;font-variant-ligatures:normal;font-variant-numeric:normal;letter-spacing:0px;line-height:1.25;stroke-width:1.27;text-align:center;text-anchor:middle;word-spacing:0px" xml:space="preserve"><tspan x="84.985725" y="144.35175" style="font-family:sans-serif;font-feature-settings:normal;font-size:13.333px;font-variant-caps:normal;font-variant-ligatures:normal;font-variant-numeric:normal;stroke-width:1.27;text-align:center;text-anchor:middle">Tessellation Primitive Generator</tspan></text><text x="84.985733" y="174.35175" style="fill:#000000;font-family:sans-serif;font-feature-settings:normal;font-size:13.333px;font-variant-caps:normal;font-variant-ligatures:normal;font-variant-numeric:normal;letter-spacing:0px;line-height:1.25;stroke-width:1.27;text-align:center;text-anchor:middle;word-spacing:0px" xml:space="preserve"><tspan x="84.985733" y="174.35175" style="font-family:sans-serif;font-feature-settings:normal;font-size:13.333px;font-variant-caps:normal;font-variant-ligatures:normal;font-variant-numeric:normal;stroke-width:1.27;text-align:center;text-anchor:middle">Tessellation Evaluation Shader</tspan></text><text x="84.930397" y="284.1662" style="fill:#000000;font-family:sans-serif;font-feature-settings:normal;font-size:13.333px;font-variant-caps:normal;font-variant-ligatures:normal;font-variant-numeric:normal;letter-spacing:0px;line-height:1.25;stroke-width:1.27;text-align:center;text-anchor:middle;word-spacing:0px" xml:space="preserve"><tspan x="84.930397" y="284.1662" style="font-family:sans-serif;font-feature-settings:normal;font-size:13.333px;font-variant-caps:normal;font-variant-ligatures:normal;font-variant-numeric:normal;stroke-width:1.27;text-align:center;text-anchor:middle">Rasterization</tspan></text><path d="m85.005 89.388-120-1e-6v140h120" style="fill:none;marker-end:url(#pipelinej);stroke:#000"/><rect x="245.01" y="-.61245" width="220" height="20" style="fill:#808080;stroke:#000"/><text x="354.53976" y="14.384297" style="fill:#000000;font-family:sans-serif;font-feature-settings:normal;font-size:13.333px;font-variant-caps:normal;font-variant-ligatures:normal;font-variant-numeric:normal;letter-spacing:0px;line-height:1.25;stroke-width:1.27;text-align:center;text-anchor:middle;word-spacing:0px" xml:space="preserve"><tspan x="354.53976" y="14.384297" style="font-family:sans-serif;font-feature-settings:normal;font-size:13.333px;font-variant-caps:normal;font-variant-ligatures:normal;font-variant-numeric:normal;stroke-width:1.27;text-align:center;text-anchor:middle">Indirect Buffer</tspan></text><path d="m235.01 309.39v60h-40" style="fill:none;marker-end:url(#pipelinee);stroke:#000"/><path d="m245.01 344.39h-5v-5h-10v5h-35" style="fill:none;marker-end:url(#pipelined);stroke:#000"/><rect x="245.01" y="99.388" width="220" height="165" style="fill:none;stroke-dasharray:4, 4;stroke:#000"/><text x="354.63092" y="112.9813" style="fill:#000000;font-family:sans-serif;font-feature-settings:normal;font-size:13.333px;font-variant-caps:normal;font-variant-ligatures:normal;font-variant-numeric:normal;letter-spacing:0px;line-height:1.25;stroke-width:1.27;text-align:center;text-anchor:middle;word-spacing:0px" xml:space="preserve"><tspan x="354.63092" y="112.9813" style="font-family:sans-serif;font-feature-settings:normal;font-size:13.333px;font-variant-caps:normal;font-variant-ligatures:normal;font-variant-numeric:normal;stroke-width:1.27;text-align:center;text-anchor:middle">Descriptor Sets</tspan></text><path d="m245.01 399.39h-50" style="fill:none;marker-end:url(#pipelinef);marker-start:url(#pipelineg);stroke:#000"/><path d="m245.01 9.3876h-50" style="fill:none;marker-end:url(#pipelinec);stroke:#000"/><path d="m245.01 44.388h-50" style="fill:none;marker-end:url(#pipelinea);stroke:#000"/><path d="m245.01 309.39h-20v-5h-10v5h-20" style="fill:none;marker-end:url(#pipelineaj);marker-start:url(#pipelineh);stroke:#000"/><path d="m245.01 64.388h-25v-20" style="fill:none;stroke:#000"/><path d="m220.01 109.39h-25" style="fill:none;marker-end:url(#pipelineai);stroke:#000"/><path d="m220.01 169.39h-25" style="fill:none;marker-end:url(#pipelineah);stroke:#000"/><path d="m220.01 209.39h-25" style="fill:none;marker-end:url(#pipelineag);stroke:#000"/><path d="m195.01 334.39h25v-265h-25" style="fill:none;marker-end:url(#pipelineae);marker-start:url(#pipelineaf);stroke:#000"/><path d="m250.01 129.39h-30" style="fill:none;stroke:#000"/><path d="m250.01 149.39h-30" style="fill:none;stroke:#000"/><path d="m250.01 169.39h-30" style="fill:none;stroke:#000"/><path d="m250.01 189.39h-30" style="fill:none;stroke:#000"/><path d="m220.01 209.39h30" style="fill:none;marker-end:url(#pipelineab);stroke:#000"/><path d="m220.01 229.39h30" style="fill:none;marker-end:url(#pipelinead);stroke:#000"/><path d="m220.01 249.39h30" style="fill:none;marker-end:url(#pipelineac);stroke:#000"/><path d="m625.01 19.388v150" style="fill:none;marker-end:url(#pipelineaa);stroke:#000"/><path d="m490.01 179.39h25" style="fill:none;marker-end:url(#pipelinen);stroke:#000"/><path d="m460.01 129.39h30v120h-30" style="fill:none;marker-end:url(#pipelinem);stroke:#000"/><path d="m460.01 149.39h30" style="fill:none;stroke:#000"/><path d="m460.01 169.39h30" style="fill:none;stroke:#000"/><path d="m460.01 189.39h30" style="fill:none;stroke:#000"/><path d="m460.01 209.39h30" style="fill:none;marker-start:url(#pipelinek);stroke:#000"/><path d="m460.01 229.39h30" style="fill:none;marker-start:url(#pipelinel);stroke:#000"/><rect x="515.01" y="299.39" width="220" height="115" style="fill:none;stroke-dasharray:4, 4;stroke:#000"/><text x="624.95642" y="318.07571" style="fill:#000000;font-family:sans-serif;font-feature-settings:normal;font-size:13.333px;font-variant-caps:normal;font-variant-ligatures:normal;font-variant-numeric:normal;letter-spacing:0px;line-height:1.25;stroke-width:1.27;text-align:center;text-anchor:middle;word-spacing:0px" xml:space="preserve"><tspan x="624.95642" y="318.07571" style="font-family:sans-serif;font-feature-settings:normal;font-size:13.333px;font-variant-caps:normal;font-variant-ligatures:normal;font-variant-numeric:normal;stroke-width:1.27;text-align:center;text-anchor:middle">Legend</tspan></text><path d="m85.005 19.388v9.7287" style="fill:none;marker-end:url(#pipelinez);stroke-width:.87524;stroke:#000"/><path d="m85.005 79.388v20" style="fill:none;marker-end:url(#pipeliney);stroke:#000"/><path d="m85.005 49.388v9.7287" style="fill:none;marker-end:url(#pipelinev);stroke-width:.87524;stroke:#000"/><path d="m85.005 119.39v9.7287" style="fill:none;marker-end:url(#pipelineu);stroke-width:.87524;stroke:#000"/><path d="m85.005 149.52v9.7287" style="fill:none;marker-end:url(#pipelinet);stroke-width:.87524;stroke:#000"/><rect x="-24.995" y="199.39" width="220" height="20" style="fill:#fff;stroke-width:.89574;stroke:#f00"/><text x="84.611382" y="213.11151" style="fill:#000000;font-family:sans-serif;font-feature-settings:normal;font-size:13.333px;font-variant-caps:normal;font-variant-ligatures:normal;font-variant-numeric:normal;letter-spacing:0px;line-height:1.25;stroke-width:1.27;text-align:center;text-anchor:middle;word-spacing:0px" xml:space="preserve"><tspan x="84.611382" y="213.11151" style="font-family:sans-serif;font-feature-settings:normal;font-size:13.333px;font-variant-caps:normal;font-variant-ligatures:normal;font-variant-numeric:normal;stroke-width:1.27;text-align:center;text-anchor:middle">Geometry Shader</tspan></text><path d="m85.005 179.39v20" style="fill:none;marker-end:url(#pipelinex);stroke:#000"/><path d="m85.005 189.39h-120" style="fill:none;marker-end:url(#pipelinei);marker-start:url(#pipelineak);stroke:#000"/><rect x="-24.995" y="239.39" width="220" height="20" style="fill:#fff;stroke-width:.89574;stroke:#000"/><text x="85.522842" y="252.89015" style="fill:#000000;font-family:sans-serif;font-feature-settings:normal;font-size:13.333px;font-variant-caps:normal;font-variant-ligatures:normal;font-variant-numeric:normal;letter-spacing:0px;line-height:1.25;stroke-width:1.27;text-align:center;text-anchor:middle;word-spacing:0px" xml:space="preserve"><tspan x="85.522842" y="252.89015" style="font-family:sans-serif;font-feature-settings:normal;font-size:13.333px;font-variant-caps:normal;font-variant-ligatures:normal;font-variant-numeric:normal;stroke-width:1.27;text-align:center;text-anchor:middle">Vertex Post-Processing</tspan></text><path d="m85.005 219.39v20" style="fill:none;marker-end:url(#pipelinew);stroke:#000"/><path d="m85.005 259.52v9.7287" style="fill:none;marker-end:url(#pipelines);stroke-width:.87524;stroke:#000"/><path d="m85.005 289.52v9.7287" style="fill:none;marker-end:url(#pipeliner);stroke-width:.87524;stroke:#000"/><rect x="-24.995" y="299.39" width="220" height="20" style="fill:#fff;stroke-width:.89574;stroke:#000"/><rect x="-24.995" y="329.39" width="220" height="20" style="fill:#fff;stroke-width:.89574;stroke:#f00"/><path d="m85.005 319.52v9.7287" style="fill:none;marker-end:url(#pipelineo);stroke-width:.87524;stroke:#000"/><path d="m85.005 349.52v9.7287" style="fill:none;marker-end:url(#pipelineq);stroke-width:.87524;stroke:#000"/><text x="84.63092" y="313.07571" style="fill:#000000;font-family:sans-serif;font-feature-settings:normal;font-size:13.333px;font-variant-caps:normal;font-variant-ligatures:normal;font-variant-numeric:normal;letter-spacing:0px;line-height:1.25;stroke-width:1.27;text-align:center;text-anchor:middle;word-spacing:0px" xml:space="preserve"><tspan x="84.63092" y="313.07571" style="font-family:sans-serif;font-feature-settings:normal;font-size:13.333px;font-variant-caps:normal;font-variant-ligatures:normal;font-variant-numeric:normal;stroke-width:1.27;text-align:center;text-anchor:middle">Early Per-Fragment Tests</tspan></text><text x="84.334686" y="343.07571" style="fill:#000000;font-family:sans-serif;font-feature-settings:normal;font-size:13.333px;font-variant-caps:normal;font-variant-ligatures:normal;font-variant-numeric:normal;letter-spacing:0px;line-height:1.25;stroke-width:1.27;text-align:center;text-anchor:middle;word-spacing:0px" xml:space="preserve"><tspan x="84.334686" y="343.07571" style="font-family:sans-serif;font-feature-settings:normal;font-size:13.333px;font-variant-caps:normal;font-variant-ligatures:normal;font-variant-numeric:normal;stroke-width:1.27;text-align:center;text-anchor:middle">Fragment Shader</tspan></text><rect x="-24.995" y="359.39" width="220" height="20" style="fill:#fff;stroke-width:.89574;stroke:#000"/><text x="84.63092" y="372.8576" style="fill:#000000;font-family:sans-serif;font-feature-settings:normal;font-size:13.333px;font-variant-caps:normal;font-variant-ligatures:normal;font-variant-numeric:normal;letter-spacing:0px;line-height:1.25;stroke-width:1.27;text-align:center;text-anchor:middle;word-spacing:0px" xml:space="preserve"><tspan x="84.63092" y="372.8576" style="font-family:sans-serif;font-feature-settings:normal;font-size:13.333px;font-variant-caps:normal;font-variant-ligatures:normal;font-variant-numeric:normal;stroke-width:1.27;text-align:center;text-anchor:middle">Late Per-Fragment Tests</tspan></text><path d="m85.005 379.52v9.7287" style="fill:none;marker-end:url(#pipelinep);stroke-width:.87524;stroke:#000"/><rect x="-24.995" y="389.39" width="220" height="20" style="fill:#fff;stroke-width:.89574;stroke:#000"/><text x="84.956436" y="403.07571" style="fill:#000000;font-family:sans-serif;font-feature-settings:normal;font-size:13.333px;font-variant-caps:normal;font-variant-ligatures:normal;font-variant-numeric:normal;letter-spacing:0px;line-height:1.25;stroke-width:1.27;text-align:center;text-anchor:middle;word-spacing:0px" xml:space="preserve"><tspan x="84.956436" y="403.07571" style="font-family:sans-serif;font-feature-settings:normal;font-size:13.333px;font-variant-caps:normal;font-variant-ligatures:normal;font-variant-numeric:normal;stroke-width:1.27;text-align:center;text-anchor:middle">Blending</tspan></text><rect x="245.01" y="59.388" width="220" height="20" style="fill:#808080;stroke:#000"/><rect x="245.01" y="39.388" width="220" height="20" style="fill:#808080;stroke:#000"/><text x="354.53976" y="54.384296" style="fill:#000000;font-family:sans-serif;font-feature-settings:normal;font-size:13.333px;font-variant-caps:normal;font-variant-ligatures:normal;font-variant-numeric:normal;letter-spacing:0px;line-height:1.25;stroke-width:1.27;text-align:center;text-anchor:middle;word-spacing:0px" xml:space="preserve"><tspan x="354.53976" y="54.384296" style="font-family:sans-serif;font-feature-settings:normal;font-size:13.333px;font-variant-caps:normal;font-variant-ligatures:normal;font-variant-numeric:normal;stroke-width:1.27;text-align:center;text-anchor:middle">Index Buffer</tspan></text><text x="355.19733" y="74.3843" style="fill:#000000;font-family:sans-serif;font-feature-settings:normal;font-size:13.333px;font-variant-caps:normal;font-variant-ligatures:normal;font-variant-numeric:normal;letter-spacing:0px;line-height:1.25;stroke-width:1.27;text-align:center;text-anchor:middle;word-spacing:0px" xml:space="preserve"><tspan x="355.19733" y="74.3843" style="font-family:sans-serif;font-feature-settings:normal;font-size:13.333px;font-variant-caps:normal;font-variant-ligatures:normal;font-variant-numeric:normal;stroke-width:1.27;text-align:center;text-anchor:middle">Vertex Buffers</tspan></text><rect x="250.01" y="119.39" width="210" height="20" style="fill:#808080;stroke:#000"/><rect x="250.01" y="139.39" width="210" height="20" style="fill:#808080;stroke:#000"/><rect x="250.01" y="159.39" width="210" height="20" style="fill:#808080;stroke:#000"/><rect x="250.01" y="179.39" width="210" height="20" style="fill:#808080;stroke:#000"/><rect x="250.01" y="199.39" width="210" height="20" style="fill:#808080;stroke:#000"/><rect x="250.01" y="219.39" width="210" height="20" style="fill:#808080;stroke:#000"/><rect x="250.01" y="239.39" width="210" height="20" style="fill:#808080;stroke:#000"/><text x="354.63092" y="134.35175" style="fill:#000000;font-family:sans-serif;font-feature-settings:normal;font-size:13.333px;font-variant-caps:normal;font-variant-ligatures:normal;font-variant-numeric:normal;letter-spacing:0px;line-height:1.25;stroke-width:1.27;text-align:center;text-anchor:middle;word-spacing:0px" xml:space="preserve"><tspan x="354.63092" y="134.35175" style="font-family:sans-serif;font-feature-settings:normal;font-size:13.333px;font-variant-caps:normal;font-variant-ligatures:normal;font-variant-numeric:normal;stroke-width:1.27;text-align:center;text-anchor:middle">Push Constants</tspan></text><text x="354.70255" y="154.38429" style="fill:#000000;font-family:sans-serif;font-feature-settings:normal;font-size:13.333px;font-variant-caps:normal;font-variant-ligatures:normal;font-variant-numeric:normal;letter-spacing:0px;line-height:1.25;stroke-width:1.27;text-align:center;text-anchor:middle;word-spacing:0px" xml:space="preserve"><tspan x="354.70255" y="154.38429" style="font-family:sans-serif;font-feature-settings:normal;font-size:13.333px;font-variant-caps:normal;font-variant-ligatures:normal;font-variant-numeric:normal;stroke-width:1.27;text-align:center;text-anchor:middle">Uniform Buffers</tspan></text><text x="354.70255" y="174.38429" style="fill:#000000;font-family:sans-serif;font-feature-settings:normal;font-size:13.333px;font-variant-caps:normal;font-variant-ligatures:normal;font-variant-numeric:normal;letter-spacing:0px;line-height:1.25;stroke-width:1.27;text-align:center;text-anchor:middle;word-spacing:0px" xml:space="preserve"><tspan x="354.70255" y="174.38429" style="font-family:sans-serif;font-feature-settings:normal;font-size:13.333px;font-variant-caps:normal;font-variant-ligatures:normal;font-variant-numeric:normal;stroke-width:1.27;text-align:center;text-anchor:middle">Uniform Texel Buffers</tspan></text><text x="354.84579" y="193.0757" style="fill:#000000;font-family:sans-serif;font-feature-settings:normal;font-size:13.333px;font-variant-caps:normal;font-variant-ligatures:normal;font-variant-numeric:normal;letter-spacing:0px;line-height:1.25;stroke-width:1.27;text-align:center;text-anchor:middle;word-spacing:0px" xml:space="preserve"><tspan x="354.84579" y="193.0757" style="font-family:sans-serif;font-feature-settings:normal;font-size:13.333px;font-variant-caps:normal;font-variant-ligatures:normal;font-variant-numeric:normal;stroke-width:1.27;text-align:center;text-anchor:middle">Sampled Images</tspan></text><text x="354.84579" y="213.10826" style="fill:#000000;font-family:sans-serif;font-feature-settings:normal;font-size:13.333px;font-variant-caps:normal;font-variant-ligatures:normal;font-variant-numeric:normal;letter-spacing:0px;line-height:1.25;stroke-width:1.27;text-align:center;text-anchor:middle;word-spacing:0px" xml:space="preserve"><tspan x="354.84579" y="213.10826" style="font-family:sans-serif;font-feature-settings:normal;font-size:13.333px;font-variant-caps:normal;font-variant-ligatures:normal;font-variant-numeric:normal;stroke-width:1.27;text-align:center;text-anchor:middle">Storage Buffers</tspan></text><text x="354.84579" y="233.10826" style="fill:#000000;font-family:sans-serif;font-feature-settings:normal;font-size:13.333px;font-variant-caps:normal;font-variant-ligatures:normal;font-variant-numeric:normal;letter-spacing:0px;line-height:1.25;stroke-width:1.27;text-align:center;text-anchor:middle;word-spacing:0px" xml:space="preserve"><tspan x="354.84579" y="233.10826" style="font-family:sans-serif;font-feature-settings:normal;font-size:13.333px;font-variant-caps:normal;font-variant-ligatures:normal;font-variant-numeric:normal;stroke-width:1.27;text-align:center;text-anchor:middle">Storage Texel Buffers</tspan></text><text x="354.84579" y="252.9455" style="fill:#000000;font-family:sans-serif;font-feature-settings:normal;font-size:13.333px;font-variant-caps:normal;font-variant-ligatures:normal;font-variant-numeric:normal;letter-spacing:0px;line-height:1.25;stroke-width:1.27;text-align:center;text-anchor:middle;word-spacing:0px" xml:space="preserve"><tspan x="354.84579" y="252.9455" style="font-family:sans-serif;font-feature-settings:normal;font-size:13.333px;font-variant-caps:normal;font-variant-ligatures:normal;font-variant-numeric:normal;stroke-width:1.27;text-align:center;text-anchor:middle">Storage Images</tspan></text><rect x="515.01" y="169.39" width="220" height="20" style="fill:#fff;stroke-width:.89574;stroke:#f00"/><text x="624.90112" y="184.35172" style="fill:#000000;font-family:sans-serif;font-feature-settings:normal;font-size:13.333px;font-variant-caps:normal;font-variant-ligatures:normal;font-variant-numeric:normal;letter-spacing:0px;line-height:1.25;stroke-width:1.27;text-align:center;text-anchor:middle;word-spacing:0px" xml:space="preserve"><tspan x="624.90112" y="184.35172" style="font-family:sans-serif;font-feature-settings:normal;font-size:13.333px;font-variant-caps:normal;font-variant-ligatures:normal;font-variant-numeric:normal;stroke-width:1.27;text-align:center;text-anchor:middle">Compute Shader</tspan></text><rect x="515.01" y="-.61241" width="220" height="20" style="fill:#fff;stroke-width:.89574;stroke:#000"/><text x="624.93042" y="13.11151" style="fill:#000000;font-family:sans-serif;font-feature-settings:normal;font-size:13.333px;font-variant-caps:normal;font-variant-ligatures:normal;font-variant-numeric:normal;letter-spacing:0px;line-height:1.25;stroke-width:1.27;text-align:center;text-anchor:middle;word-spacing:0px" xml:space="preserve"><tspan x="624.93042" y="13.11151" style="font-family:sans-serif;font-feature-settings:normal;font-size:13.333px;font-variant-caps:normal;font-variant-ligatures:normal;font-variant-numeric:normal;stroke-width:1.27;text-align:center;text-anchor:middle">Dispatch</tspan></text><rect x="245.01" y="299.39" width="220" height="20" style="fill:#808080;stroke:#000"/><text x="354.84576" y="312.9455" style="fill:#000000;font-family:sans-serif;font-feature-settings:normal;font-size:13.333px;font-variant-caps:normal;font-variant-ligatures:normal;font-variant-numeric:normal;letter-spacing:0px;line-height:1.25;stroke-width:1.27;text-align:center;text-anchor:middle;word-spacing:0px" xml:space="preserve"><tspan x="354.84576" y="312.9455" style="font-family:sans-serif;font-feature-settings:normal;font-size:13.333px;font-variant-caps:normal;font-variant-ligatures:normal;font-variant-numeric:normal;stroke-width:1.27;text-align:center;text-anchor:middle">Depth/Stencil Attachments</tspan></text><rect x="245.01" y="329.39" width="220" height="20" style="fill:#808080;stroke:#000"/><text x="354.84576" y="342.9455" style="fill:#000000;font-family:sans-serif;font-feature-settings:normal;font-size:13.333px;font-variant-caps:normal;font-variant-ligatures:normal;font-variant-numeric:normal;letter-spacing:0px;line-height:1.25;stroke-width:1.27;text-align:center;text-anchor:middle;word-spacing:0px" xml:space="preserve"><tspan x="354.84576" y="342.9455" style="font-family:sans-serif;font-feature-settings:normal;font-size:13.333px;font-variant-caps:normal;font-variant-ligatures:normal;font-variant-numeric:normal;stroke-width:1.27;text-align:center;text-anchor:middle">Input Attachments</tspan></text><rect x="245.01" y="389.39" width="220" height="20" style="fill:#808080;stroke:#000"/><text x="354.84576" y="402.9455" style="fill:#000000;font-family:sans-serif;font-feature-settings:normal;font-size:13.333px;font-variant-caps:normal;font-variant-ligatures:normal;font-variant-numeric:normal;letter-spacing:0px;line-height:1.25;stroke-width:1.27;text-align:center;text-anchor:middle;word-spacing:0px" xml:space="preserve"><tspan x="354.84576" y="402.9455" style="font-family:sans-serif;font-feature-settings:normal;font-size:13.333px;font-variant-caps:normal;font-variant-ligatures:normal;font-variant-numeric:normal;stroke-width:1.27;text-align:center;text-anchor:middle">Color Attachments</tspan></text><rect x="520.01" y="329.39" width="210" height="20" style="fill:#fff;stroke-width:.89574;stroke:#000"/><text x="624.63416" y="344.13358" style="fill:#000000;font-family:sans-serif;font-feature-settings:normal;font-size:13.333px;font-variant-caps:normal;font-variant-ligatures:normal;font-variant-numeric:normal;letter-spacing:0px;line-height:1.25;stroke-width:1.27;text-align:center;text-anchor:middle;word-spacing:0px" xml:space="preserve"><tspan x="624.63416" y="344.13358" style="font-family:sans-serif;font-feature-settings:normal;font-size:13.333px;font-variant-caps:normal;font-variant-ligatures:normal;font-variant-numeric:normal;stroke-width:1.27;text-align:center;text-anchor:middle">Fixed Function Stage</tspan></text><rect x="520.01" y="359.39" width="210" height="20" style="fill:#fff;stroke-width:.89574;stroke:#f00"/><text x="624.61139" y="373.11151" style="fill:#000000;font-family:sans-serif;font-feature-settings:normal;font-size:13.333px;font-variant-caps:normal;font-variant-ligatures:normal;font-variant-numeric:normal;letter-spacing:0px;line-height:1.25;stroke-width:1.27;text-align:center;text-anchor:middle;word-spacing:0px" xml:space="preserve"><tspan x="624.61139" y="373.11151" style="font-family:sans-serif;font-feature-settings:normal;font-size:13.333px;font-variant-caps:normal;font-variant-ligatures:normal;font-variant-numeric:normal;stroke-width:1.27;text-align:center;text-anchor:middle">Shader Stage</tspan></text><rect x="520.01" y="389.39" width="210" height="20" style="fill:#808080;stroke:#000"/><text x="624.84583" y="402.9455" style="fill:#000000;font-family:sans-serif;font-feature-settings:normal;font-size:13.333px;font-variant-caps:normal;font-variant-ligatures:normal;font-variant-numeric:normal;letter-spacing:0px;line-height:1.25;stroke-width:1.27;text-align:center;text-anchor:middle;word-spacing:0px" xml:space="preserve"><tspan x="624.84583" y="402.9455" style="font-family:sans-serif;font-feature-settings:normal;font-size:13.333px;font-variant-caps:normal;font-variant-ligatures:normal;font-variant-numeric:normal;stroke-width:1.27;text-align:center;text-anchor:middle">Storage Images</tspan></text><path d="m465.01 9.3876h50" style="fill:none;marker-end:url(#pipelineb);stroke:#000"/></g></svg>
