<svg width="874.47" height="448" version="1.1" viewBox="0 0 874.47 448" xmlns="http://www.w3.org/2000/svg"><defs><marker id="pipelinemeshm" style="overflow:visible" orient="auto"><path transform="matrix(-.4 0 0 -.4 -4 0)" d="m0 0 5-5-17.5 5 17.5 5z" style="fill-rule:evenodd;stroke-width:1pt;stroke:#000"/></marker><marker id="pipelinemeshah" style="overflow:visible" orient="auto"><path transform="matrix(-.4 0 0 -.4 -4 0)" d="m0 0 5-5-17.5 5 17.5 5z" style="fill-rule:evenodd;stroke-width:1pt;stroke:#000"/></marker><marker id="pipelinemeshai" style="overflow:visible" orient="auto"><path transform="matrix(-.4 0 0 -.4 -4 0)" d="m0 0 5-5-17.5 5 17.5 5z" style="fill-rule:evenodd;stroke-width:1pt;stroke:#000"/></marker><marker id="pipelinemeshaj" style="overflow:visible" orient="auto"><path transform="matrix(-.4 0 0 -.4 -4 0)" d="m0 0 5-5-17.5 5 17.5 5z" style="fill-rule:evenodd;stroke-width:1pt;stroke:#000"/></marker><marker id="pipelinemeshan" style="overflow:visible" orient="auto"><path transform="matrix(-.4 0 0 -.4 -4 0)" d="m0 0 5-5-17.5 5 17.5 5z" style="fill-rule:evenodd;stroke-width:1pt;stroke:#000"/></marker><marker id="pipelinemeshap" style="overflow:visible" orient="auto"><path transform="matrix(-.4 0 0 -.4 -4 0)" d="m0 0 5-5-17.5 5 17.5 5z" style="fill-rule:evenodd;stroke-width:1pt;stroke:#000"/></marker><marker id="pipelinemeshaq" style="overflow:visible" orient="auto"><path transform="matrix(-.4 0 0 -.4 -4 0)" d="m0 0 5-5-17.5 5 17.5 5z" style="fill-rule:evenodd;stroke-width:1pt;stroke:#000"/></marker><marker id="pipelinemeshas" style="overflow:visible" orient="auto"><path transform="matrix(-.4 0 0 -.4 -4 0)" d="m0 0 5-5-17.5 5 17.5 5z" style="fill-rule:evenodd;stroke-width:1pt;stroke:#000"/></marker><marker id="pipelinemeshb" style="overflow:visible" orient="auto"><path transform="matrix(-.4 0 0 -.4 -4 0)" d="m0 0 5-5-17.5 5 17.5 5z" style="fill-rule:evenodd;stroke-width:1pt;stroke:#000"/></marker><marker id="pipelinemeshe" style="overflow:visible" orient="auto"><path transform="matrix(-.4 0 0 -.4 -4 0)" d="m0 0 5-5-17.5 5 17.5 5z" style="fill-rule:evenodd;stroke-width:1pt;stroke:#000"/></marker><marker id="pipelinemeshn" style="overflow:visible" orient="auto"><path transform="matrix(.4 0 0 .4 4 0)" d="m0 0 5-5-17.5 5 17.5 5z" style="fill-rule:evenodd;stroke-width:1pt;stroke:#000"/></marker><marker id="pipelinemesho" style="overflow:visible" orient="auto"><path transform="matrix(.4 0 0 .4 4 0)" d="m0 0 5-5-17.5 5 17.5 5z" style="fill-rule:evenodd;stroke-width:1pt;stroke:#000"/></marker><marker id="pipelinemeshp" style="overflow:visible" orient="auto"><path transform="matrix(-.4 0 0 -.4 -4 0)" d="m0 0 5-5-17.5 5 17.5 5z" style="fill-rule:evenodd;stroke-width:1pt;stroke:#000"/></marker><marker id="pipelinemeshq" style="overflow:visible" orient="auto"><path transform="matrix(-.4 0 0 -.4 -4 0)" d="m0 0 5-5-17.5 5 17.5 5z" style="fill-rule:evenodd;stroke-width:1pt;stroke:#000"/></marker><marker id="pipelinemeshad" style="overflow:visible" orient="auto"><path transform="matrix(-.4 0 0 -.4 -4 0)" d="m0 0 5-5-17.5 5 17.5 5z" style="fill-rule:evenodd;stroke-width:1pt;stroke:#000"/></marker><marker id="pipelinemeshae" style="overflow:visible" orient="auto"><path transform="matrix(-.4 0 0 -.4 -4 0)" d="m0 0 5-5-17.5 5 17.5 5z" style="fill-rule:evenodd;stroke-width:1pt;stroke:#000"/></marker><marker id="pipelinemeshaf" style="overflow:visible" orient="auto"><path transform="matrix(-.4 0 0 -.4 -4 0)" d="m0 0 5-5-17.5 5 17.5 5z" style="fill-rule:evenodd;stroke-width:1pt;stroke:#000"/></marker><marker id="pipelinemeshag" style="overflow:visible" orient="auto"><path transform="matrix(-.4 0 0 -.4 -4 0)" d="m0 0 5-5-17.5 5 17.5 5z" style="fill-rule:evenodd;stroke-width:1pt;stroke:#000"/></marker><marker id="pipelinemeshak" style="overflow:visible" orient="auto"><path transform="matrix(.4 0 0 .4 4 0)" d="m0 0 5-5-17.5 5 17.5 5z" style="fill-rule:evenodd;stroke-width:1pt;stroke:#000"/></marker><marker id="pipelinemeshal" style="overflow:visible" orient="auto"><path transform="matrix(-.4 0 0 -.4 -4 0)" d="m0 0 5-5-17.5 5 17.5 5z" style="fill-rule:evenodd;stroke-width:1pt;stroke:#000"/></marker><marker id="pipelinemesham" style="overflow:visible" orient="auto"><path transform="matrix(-.4 0 0 -.4 -4 0)" d="m0 0 5-5-17.5 5 17.5 5z" style="fill-rule:evenodd;stroke-width:1pt;stroke:#000"/></marker><marker id="pipelinemeshao" style="overflow:visible" orient="auto"><path transform="matrix(-.4 0 0 -.4 -4 0)" d="m0 0 5-5-17.5 5 17.5 5z" style="fill-rule:evenodd;stroke-width:1pt;stroke:#000"/></marker><marker id="pipelinemeshar" style="overflow:visible" orient="auto"><path transform="matrix(-.4 0 0 -.4 -4 0)" d="m0 0 5-5-17.5 5 17.5 5z" style="fill-rule:evenodd;stroke-width:1pt;stroke:#000"/></marker><marker id="pipelinemesha" style="overflow:visible" orient="auto"><path transform="matrix(-.4 0 0 -.4 -4 0)" d="m0 0 5-5-17.5 5 17.5 5z" style="fill-rule:evenodd;stroke-width:1pt;stroke:#000"/></marker><marker id="pipelinemeshd" style="overflow:visible" orient="auto"><path transform="matrix(-.4 0 0 -.4 -4 0)" d="m0 0 5-5-17.5 5 17.5 5z" style="fill-rule:evenodd;stroke-width:1pt;stroke:#000"/></marker><marker id="pipelinemeshf" style="overflow:visible" orient="auto"><path transform="matrix(-.4 0 0 -.4 -4 0)" d="m0 0 5-5-17.5 5 17.5 5z" style="fill-rule:evenodd;stroke-width:1pt;stroke:#000"/></marker><marker id="pipelinemeshg" style="overflow:visible" orient="auto"><path transform="matrix(-.4 0 0 -.4 -4 0)" d="m0 0 5-5-17.5 5 17.5 5z" style="fill-rule:evenodd;stroke-width:1pt;stroke:#000"/></marker><marker id="pipelinemeshj" style="overflow:visible" orient="auto"><path transform="matrix(.4 0 0 .4 4 0)" d="m0 0 5-5-17.5 5 17.5 5z" style="fill-rule:evenodd;stroke-width:1pt;stroke:#000"/></marker><marker id="pipelinemeshl" style="overflow:visible" orient="auto"><path transform="matrix(-.4 0 0 -.4 -4 0)" d="m0 0 5-5-17.5 5 17.5 5z" style="fill-rule:evenodd;stroke-width:1pt;stroke:#000"/></marker><marker id="pipelinemeshi" style="overflow:visible" orient="auto"><path transform="matrix(.4 0 0 .4 4 0)" d="m0 0 5-5-17.5 5 17.5 5z" style="fill-rule:evenodd;stroke-width:1pt;stroke:#000"/></marker><marker id="pipelinemeshh" style="overflow:visible" orient="auto"><path transform="matrix(-.4 0 0 -.4 -4 0)" d="m0 0 5-5-17.5 5 17.5 5z" style="fill-rule:evenodd;stroke-width:1pt;stroke:#000"/></marker><marker id="pipelinemeshac" style="overflow:visible" orient="auto"><path transform="matrix(-.4 0 0 -.4 -4 0)" d="m0 0 5-5-17.5 5 17.5 5z" style="fill-rule:evenodd;stroke-width:1pt;stroke:#000"/></marker><marker id="pipelinemeshab" style="overflow:visible" orient="auto"><path transform="matrix(-.4 0 0 -.4 -4 0)" d="m0 0 5-5-17.5 5 17.5 5z" style="fill-rule:evenodd;stroke-width:1pt;stroke:#000"/></marker><marker id="pipelinemeshy" style="overflow:visible" orient="auto"><path transform="matrix(-.4 0 0 -.4 -4 0)" d="m0 0 5-5-17.5 5 17.5 5z" style="fill-rule:evenodd;stroke-width:1pt;stroke:#000"/></marker><marker id="pipelinemeshx" style="overflow:visible" orient="auto"><path transform="matrix(-.4 0 0 -.4 -4 0)" d="m0 0 5-5-17.5 5 17.5 5z" style="fill-rule:evenodd;stroke-width:1pt;stroke:#000"/></marker><marker id="pipelinemeshw" style="overflow:visible" orient="auto"><path transform="matrix(-.4 0 0 -.4 -4 0)" d="m0 0 5-5-17.5 5 17.5 5z" style="fill-rule:evenodd;stroke-width:1pt;stroke:#000"/></marker><marker id="pipelinemeshaa" style="overflow:visible" orient="auto"><path transform="matrix(-.4 0 0 -.4 -4 0)" d="m0 0 5-5-17.5 5 17.5 5z" style="fill-rule:evenodd;stroke-width:1pt;stroke:#000"/></marker><marker id="pipelinemeshat" style="overflow:visible" orient="auto"><path transform="matrix(.4 0 0 .4 4 0)" d="m0 0 5-5-17.5 5 17.5 5z" style="fill-rule:evenodd;stroke-width:1pt;stroke:#000"/></marker><marker id="pipelinemeshk" style="overflow:visible" orient="auto"><path transform="matrix(-.4 0 0 -.4 -4 0)" d="m0 0 5-5-17.5 5 17.5 5z" style="fill-rule:evenodd;stroke-width:1pt;stroke:#000"/></marker><marker id="pipelinemeshz" style="overflow:visible" orient="auto"><path transform="matrix(-.4 0 0 -.4 -4 0)" d="m0 0 5-5-17.5 5 17.5 5z" style="fill-rule:evenodd;stroke-width:1pt;stroke:#000"/></marker><marker id="pipelinemeshv" style="overflow:visible" orient="auto"><path transform="matrix(-.4 0 0 -.4 -4 0)" d="m0 0 5-5-17.5 5 17.5 5z" style="fill-rule:evenodd;stroke-width:1pt;stroke:#000"/></marker><marker id="pipelinemeshu" style="overflow:visible" orient="auto"><path transform="matrix(-.4 0 0 -.4 -4 0)" d="m0 0 5-5-17.5 5 17.5 5z" style="fill-rule:evenodd;stroke-width:1pt;stroke:#000"/></marker><marker id="pipelinemeshr" style="overflow:visible" orient="auto"><path transform="matrix(-.4 0 0 -.4 -4 0)" d="m0 0 5-5-17.5 5 17.5 5z" style="fill-rule:evenodd;stroke-width:1pt;stroke:#000"/></marker><marker id="pipelinemesht" style="overflow:visible" orient="auto"><path transform="matrix(-.4 0 0 -.4 -4 0)" d="m0 0 5-5-17.5 5 17.5 5z" style="fill-rule:evenodd;stroke-width:1pt;stroke:#000"/></marker><marker id="pipelinemeshs" style="overflow:visible" orient="auto"><path transform="matrix(-.4 0 0 -.4 -4 0)" d="m0 0 5-5-17.5 5 17.5 5z" style="fill-rule:evenodd;stroke-width:1pt;stroke:#000"/></marker><marker id="pipelinemeshc" style="overflow:visible" orient="auto"><path transform="matrix(-.4 0 0 -.4 -4 0)" d="m0 0 5-5-17.5 5 17.5 5z" style="fill-rule:evenodd;stroke-width:1pt;stroke:#000"/></marker></defs><g transform="translate(37.965 2.1124)"><rect x="-24.995" y="299.39" width="220" height="20" style="fill:#fff;stroke-width:.89574;stroke:#000"/><rect x="-24.995" y="179.39" width="220" height="20" style="fill:#fff;stroke-width:.89574;stroke:#f00"/><rect x="-24.995" y="149.39" width="220" height="20" style="fill:#fff;stroke-width:.89574;stroke:#000"/><rect x="-24.995" y="119.39" width="220" height="20" style="fill:#fff;stroke-width:.89574;stroke:#f00"/><rect x="-24.995" y="79.388" width="220" height="20" style="fill:#fff;stroke-width:.89574;stroke:#f00"/><rect x="-24.995" y="-.61241" width="220" height="20" style="fill:#fff;stroke-width:.89574;stroke:#000"/><rect x="-24.995" y="49.388" width="220" height="20" style="fill:#fff;stroke-width:.896;stroke:#000"/><text x="84.9011" y="94.351753" style="fill:#000000;font-family:sans-serif;font-feature-settings:normal;font-size:13.333px;font-variant-caps:normal;font-variant-ligatures:normal;font-variant-numeric:normal;letter-spacing:0px;line-height:1.25;stroke-width:1.27;text-align:center;text-anchor:middle;word-spacing:0px" xml:space="preserve"><tspan x="84.9011" y="94.351753" style="font-family:sans-serif;font-feature-settings:normal;font-size:13.333px;font-variant-caps:normal;font-variant-ligatures:normal;font-variant-numeric:normal;stroke-width:1.27;text-align:center;text-anchor:middle">Vertex Shader</tspan></text><text x="84.634171" y="14.133646" style="fill:#000000;font-family:sans-serif;font-feature-settings:normal;font-size:13.333px;font-variant-caps:normal;font-variant-ligatures:normal;font-variant-numeric:normal;letter-spacing:0px;line-height:1.25;stroke-width:1.27;text-align:center;text-anchor:middle;word-spacing:0px" xml:space="preserve"><tspan x="84.634171" y="14.133646" style="font-family:sans-serif;font-feature-settings:normal;font-size:13.333px;font-variant-caps:normal;font-variant-ligatures:normal;font-variant-numeric:normal;stroke-width:1.27;text-align:center;text-anchor:middle">Draw</tspan></text><text x="84.539764" y="63.111511" style="fill:#000000;font-family:sans-serif;font-feature-settings:normal;font-size:13.333px;font-variant-caps:normal;font-variant-ligatures:normal;font-variant-numeric:normal;letter-spacing:0px;line-height:1.25;stroke-width:1.27;text-align:center;text-anchor:middle;word-spacing:0px" xml:space="preserve"><tspan x="84.539764" y="63.111511" style="font-family:sans-serif;font-feature-settings:normal;font-size:13.333px;font-variant-caps:normal;font-variant-ligatures:normal;font-variant-numeric:normal;stroke-width:1.27;text-align:center;text-anchor:middle">Input Assembler</tspan></text><text x="84.985733" y="134.35175" style="fill:#000000;font-family:sans-serif;font-feature-settings:normal;font-size:13.333px;font-variant-caps:normal;font-variant-ligatures:normal;font-variant-numeric:normal;letter-spacing:0px;line-height:1.25;stroke-width:1.27;text-align:center;text-anchor:middle;word-spacing:0px" xml:space="preserve"><tspan x="84.985733" y="134.35175" style="font-family:sans-serif;font-feature-settings:normal;font-size:13.333px;font-variant-caps:normal;font-variant-ligatures:normal;font-variant-numeric:normal;stroke-width:1.27;text-align:center;text-anchor:middle">Tessellation Control Shader</tspan></text><text x="84.985733" y="164.35175" style="fill:#000000;font-family:sans-serif;font-feature-settings:normal;font-size:13.333px;font-variant-caps:normal;font-variant-ligatures:normal;font-variant-numeric:normal;letter-spacing:0px;line-height:1.25;stroke-width:1.27;text-align:center;text-anchor:middle;word-spacing:0px" xml:space="preserve"><tspan x="84.985725" y="164.35175" style="font-family:sans-serif;font-feature-settings:normal;font-size:13.333px;font-variant-caps:normal;font-variant-ligatures:normal;font-variant-numeric:normal;stroke-width:1.27;text-align:center;text-anchor:middle">Tessellation Primitive Generator</tspan></text><text x="84.985733" y="194.35175" style="fill:#000000;font-family:sans-serif;font-feature-settings:normal;font-size:13.333px;font-variant-caps:normal;font-variant-ligatures:normal;font-variant-numeric:normal;letter-spacing:0px;line-height:1.25;stroke-width:1.27;text-align:center;text-anchor:middle;word-spacing:0px" xml:space="preserve"><tspan x="84.985733" y="194.35175" style="font-family:sans-serif;font-feature-settings:normal;font-size:13.333px;font-variant-caps:normal;font-variant-ligatures:normal;font-variant-numeric:normal;stroke-width:1.27;text-align:center;text-anchor:middle">Tessellation Evaluation Shader</tspan></text><text x="84.930397" y="314.1662" style="fill:#000000;font-family:sans-serif;font-feature-settings:normal;font-size:13.333px;font-variant-caps:normal;font-variant-ligatures:normal;font-variant-numeric:normal;letter-spacing:0px;line-height:1.25;stroke-width:1.27;text-align:center;text-anchor:middle;word-spacing:0px" xml:space="preserve"><tspan x="84.930397" y="314.1662" style="font-family:sans-serif;font-feature-settings:normal;font-size:13.333px;font-variant-caps:normal;font-variant-ligatures:normal;font-variant-numeric:normal;stroke-width:1.27;text-align:center;text-anchor:middle">Rasterization</tspan></text><path d="m85.005 109.39h-120v140h120" style="fill:none;marker-end:url(#pipelinemeshl);stroke:#000"/><rect x="245.01" y="-.61245" width="220" height="20" style="fill:#808080;stroke:#000"/><text x="354.53976" y="14.384297" style="fill:#000000;font-family:sans-serif;font-feature-settings:normal;font-size:13.333px;font-variant-caps:normal;font-variant-ligatures:normal;font-variant-numeric:normal;letter-spacing:0px;line-height:1.25;stroke-width:1.27;text-align:center;text-anchor:middle;word-spacing:0px" xml:space="preserve"><tspan x="354.53976" y="14.384297" style="font-family:sans-serif;font-feature-settings:normal;font-size:13.333px;font-variant-caps:normal;font-variant-ligatures:normal;font-variant-numeric:normal;stroke-width:1.27;text-align:center;text-anchor:middle">Indirect Buffer</tspan></text><path d="m235.01 339.39v60h-40" style="fill:none;marker-end:url(#pipelinemeshg);stroke:#000"/><path d="m245.01 374.39h-5v-5h-10v5h-35" style="fill:none;marker-end:url(#pipelinemeshf);stroke:#000"/><rect x="245.01" y="99.388" width="220" height="165" style="fill:none;stroke-dasharray:4, 4;stroke:#000"/><text x="354.63092" y="112.9813" style="fill:#000000;font-family:sans-serif;font-feature-settings:normal;font-size:13.333px;font-variant-caps:normal;font-variant-ligatures:normal;font-variant-numeric:normal;letter-spacing:0px;line-height:1.25;stroke-width:1.27;text-align:center;text-anchor:middle;word-spacing:0px" xml:space="preserve"><tspan x="354.63092" y="112.9813" style="font-family:sans-serif;font-feature-settings:normal;font-size:13.333px;font-variant-caps:normal;font-variant-ligatures:normal;font-variant-numeric:normal;stroke-width:1.27;text-align:center;text-anchor:middle">Descriptor Sets</tspan></text><path d="m245.01 429.39h-50" style="fill:none;marker-end:url(#pipelinemeshh);marker-start:url(#pipelinemeshi);stroke:#000"/><path d="m245.01 9.3876h-50" style="fill:none;marker-end:url(#pipelinemeshd);stroke:#000"/><path d="m220.01 59.388h-25" style="fill:none;marker-end:url(#pipelinemesha);stroke:#000"/><path d="m245.01 339.39h-20v-5h-10v5h-20" style="fill:none;marker-end:url(#pipelinemeshar);marker-start:url(#pipelinemeshj);stroke:#000"/><path d="m245.01 49.388h-25v20h25" style="fill:none;stroke:#000"/><path d="m220.01 129.39h-25" style="fill:none;marker-end:url(#pipelinemeshao);stroke:#000"/><path d="m220.01 189.39h-25" style="fill:none;marker-end:url(#pipelinemesham);stroke:#000"/><path d="m220.01 229.39h-25" style="fill:none;marker-end:url(#pipelinemeshal);stroke:#000"/><path d="m195.01 364.39h25v-275h-25" style="fill:none;marker-end:url(#pipelinemeshag);marker-start:url(#pipelinemeshak);stroke:#000"/><path d="m250.01 129.39h-30" style="fill:none;stroke:#000"/><path d="m250.01 149.39h-30" style="fill:none;stroke:#000"/><path d="m250.01 169.39h-30" style="fill:none;stroke:#000"/><path d="m250.01 189.39h-30" style="fill:none;stroke:#000"/><path d="m220.01 209.39h30" style="fill:none;marker-end:url(#pipelinemeshad);stroke:#000"/><path d="m220.01 229.39h30" style="fill:none;marker-end:url(#pipelinemeshaf);stroke:#000"/><path d="m220.01 249.39h30" style="fill:none;marker-end:url(#pipelinemeshae);stroke:#000"/><path d="m490.01 129.39v-70h90v-5h10v5h105" style="fill:none;marker-end:url(#pipelinemeshq);stroke-linecap:square;stroke-width:1.0255;stroke:#000"/><path d="m460.01 129.39h30v120h-30" style="fill:none;marker-end:url(#pipelinemeshp);stroke:#000"/><path d="m460.01 149.39h30" style="fill:none;stroke:#000"/><path d="m460.01 169.39h30" style="fill:none;stroke:#000"/><path d="m460.01 189.39h30" style="fill:none;stroke:#000"/><path d="m460.01 209.39h30" style="fill:none;marker-start:url(#pipelinemeshn);stroke:#000"/><path d="m460.01 229.39h30" style="fill:none;marker-start:url(#pipelinemesho);stroke:#000"/><rect x="615.01" y="329.39" width="220" height="115" style="fill:none;stroke-dasharray:4, 4;stroke:#000"/><text x="724.95642" y="348.07571" style="fill:#000000;font-family:sans-serif;font-feature-settings:normal;font-size:13.333px;font-variant-caps:normal;font-variant-ligatures:normal;font-variant-numeric:normal;letter-spacing:0px;line-height:1.25;stroke-width:1.27;text-align:center;text-anchor:middle;word-spacing:0px" xml:space="preserve"><tspan x="724.95642" y="348.07571" style="font-family:sans-serif;font-feature-settings:normal;font-size:13.333px;font-variant-caps:normal;font-variant-ligatures:normal;font-variant-numeric:normal;stroke-width:1.27;text-align:center;text-anchor:middle">Legend</tspan></text><path d="m85.005 19.388 1e-6 29.729" style="fill:none;marker-end:url(#pipelinemeshac);stroke-width:.87524;stroke:#000"/><path d="m85.005 99.388v20" style="fill:none;marker-end:url(#pipelinemeshab);stroke:#000"/><path d="m85.005 69.388v9.7287" style="fill:none;marker-end:url(#pipelinemeshy);stroke-width:.87524;stroke:#000"/><path d="m85.005 139.39v9.7287" style="fill:none;marker-end:url(#pipelinemeshx);stroke-width:.87524;stroke:#000"/><path d="m85.005 169.52v9.7287" style="fill:none;marker-end:url(#pipelinemeshw);stroke-width:.87524;stroke:#000"/><rect x="-24.995" y="219.39" width="220" height="20" style="fill:#fff;stroke-width:.89574;stroke:#f00"/><text x="84.611382" y="233.11151" style="fill:#000000;font-family:sans-serif;font-feature-settings:normal;font-size:13.333px;font-variant-caps:normal;font-variant-ligatures:normal;font-variant-numeric:normal;letter-spacing:0px;line-height:1.25;stroke-width:1.27;text-align:center;text-anchor:middle;word-spacing:0px" xml:space="preserve"><tspan x="84.611382" y="233.11151" style="font-family:sans-serif;font-feature-settings:normal;font-size:13.333px;font-variant-caps:normal;font-variant-ligatures:normal;font-variant-numeric:normal;stroke-width:1.27;text-align:center;text-anchor:middle">Geometry Shader</tspan></text><path d="m85.005 199.39v20" style="fill:none;marker-end:url(#pipelinemeshaa);stroke:#000"/><path d="m85.005 209.39h-120" style="fill:none;marker-end:url(#pipelinemeshk);marker-start:url(#pipelinemeshat);stroke:#000"/><rect x="-24.995" y="269.39" width="220" height="20" style="fill:#fff;stroke-width:.89574;stroke:#000"/><text x="85.522842" y="282.89014" style="fill:#000000;font-family:sans-serif;font-feature-settings:normal;font-size:13.333px;font-variant-caps:normal;font-variant-ligatures:normal;font-variant-numeric:normal;letter-spacing:0px;line-height:1.25;stroke-width:1.27;text-align:center;text-anchor:middle;word-spacing:0px" xml:space="preserve"><tspan x="85.522842" y="282.89014" style="font-family:sans-serif;font-feature-settings:normal;font-size:13.333px;font-variant-caps:normal;font-variant-ligatures:normal;font-variant-numeric:normal;stroke-width:1.27;text-align:center;text-anchor:middle">Vertex Post-Processing</tspan></text><path d="m85.005 239.39v28.989" style="fill:none;marker-end:url(#pipelinemeshz);stroke-width:1.2039;stroke:#000"/><path d="m85.005 289.52v9.7287" style="fill:none;marker-end:url(#pipelinemeshv);stroke-width:.87524;stroke:#000"/><path d="m85.005 319.52v9.7287" style="fill:none;marker-end:url(#pipelinemeshu);stroke-width:.87524;stroke:#000"/><rect x="-24.995" y="329.39" width="220" height="20" style="fill:#fff;stroke-width:.89574;stroke:#000"/><rect x="-24.995" y="359.39" width="220" height="20" style="fill:#fff;stroke-width:.89574;stroke:#f00"/><path d="m85.005 349.52v9.7287" style="fill:none;marker-end:url(#pipelinemeshr);stroke-width:.87524;stroke:#000"/><path d="m85.005 379.52v9.7287" style="fill:none;marker-end:url(#pipelinemesht);stroke-width:.87524;stroke:#000"/><text x="84.63092" y="343.07571" style="fill:#000000;font-family:sans-serif;font-feature-settings:normal;font-size:13.333px;font-variant-caps:normal;font-variant-ligatures:normal;font-variant-numeric:normal;letter-spacing:0px;line-height:1.25;stroke-width:1.27;text-align:center;text-anchor:middle;word-spacing:0px" xml:space="preserve"><tspan x="84.63092" y="343.07571" style="font-family:sans-serif;font-feature-settings:normal;font-size:13.333px;font-variant-caps:normal;font-variant-ligatures:normal;font-variant-numeric:normal;stroke-width:1.27;text-align:center;text-anchor:middle">Early Per-Fragment Tests</tspan></text><text x="84.334686" y="373.07571" style="fill:#000000;font-family:sans-serif;font-feature-settings:normal;font-size:13.333px;font-variant-caps:normal;font-variant-ligatures:normal;font-variant-numeric:normal;letter-spacing:0px;line-height:1.25;stroke-width:1.27;text-align:center;text-anchor:middle;word-spacing:0px" xml:space="preserve"><tspan x="84.334686" y="373.07571" style="font-family:sans-serif;font-feature-settings:normal;font-size:13.333px;font-variant-caps:normal;font-variant-ligatures:normal;font-variant-numeric:normal;stroke-width:1.27;text-align:center;text-anchor:middle">Fragment Shader</tspan></text><rect x="-24.995" y="389.39" width="220" height="20" style="fill:#fff;stroke-width:.89574;stroke:#000"/><text x="84.63092" y="402.8576" style="fill:#000000;font-family:sans-serif;font-feature-settings:normal;font-size:13.333px;font-variant-caps:normal;font-variant-ligatures:normal;font-variant-numeric:normal;letter-spacing:0px;line-height:1.25;stroke-width:1.27;text-align:center;text-anchor:middle;word-spacing:0px" xml:space="preserve"><tspan x="84.63092" y="402.8576" style="font-family:sans-serif;font-feature-settings:normal;font-size:13.333px;font-variant-caps:normal;font-variant-ligatures:normal;font-variant-numeric:normal;stroke-width:1.27;text-align:center;text-anchor:middle">Late Per-Fragment Tests</tspan></text><path d="m85.005 409.52v9.7287" style="fill:none;marker-end:url(#pipelinemeshs);stroke-width:.87524;stroke:#000"/><rect x="-24.995" y="419.39" width="220" height="20" style="fill:#fff;stroke-width:.89574;stroke:#000"/><text x="84.956436" y="433.07571" style="fill:#000000;font-family:sans-serif;font-feature-settings:normal;font-size:13.333px;font-variant-caps:normal;font-variant-ligatures:normal;font-variant-numeric:normal;letter-spacing:0px;line-height:1.25;stroke-width:1.27;text-align:center;text-anchor:middle;word-spacing:0px" xml:space="preserve"><tspan x="84.956436" y="433.07571" style="font-family:sans-serif;font-feature-settings:normal;font-size:13.333px;font-variant-caps:normal;font-variant-ligatures:normal;font-variant-numeric:normal;stroke-width:1.27;text-align:center;text-anchor:middle">Blending</tspan></text><rect x="245.01" y="59.388" width="220" height="20" style="fill:#808080;stroke:#000"/><rect x="245.01" y="39.388" width="220" height="20" style="fill:#808080;stroke:#000"/><text x="354.53976" y="54.384296" style="fill:#000000;font-family:sans-serif;font-feature-settings:normal;font-size:13.333px;font-variant-caps:normal;font-variant-ligatures:normal;font-variant-numeric:normal;letter-spacing:0px;line-height:1.25;stroke-width:1.27;text-align:center;text-anchor:middle;word-spacing:0px" xml:space="preserve"><tspan x="354.53976" y="54.384296" style="font-family:sans-serif;font-feature-settings:normal;font-size:13.333px;font-variant-caps:normal;font-variant-ligatures:normal;font-variant-numeric:normal;stroke-width:1.27;text-align:center;text-anchor:middle">Index Buffer</tspan></text><text x="355.19733" y="74.3843" style="fill:#000000;font-family:sans-serif;font-feature-settings:normal;font-size:13.333px;font-variant-caps:normal;font-variant-ligatures:normal;font-variant-numeric:normal;letter-spacing:0px;line-height:1.25;stroke-width:1.27;text-align:center;text-anchor:middle;word-spacing:0px" xml:space="preserve"><tspan x="355.19733" y="74.3843" style="font-family:sans-serif;font-feature-settings:normal;font-size:13.333px;font-variant-caps:normal;font-variant-ligatures:normal;font-variant-numeric:normal;stroke-width:1.27;text-align:center;text-anchor:middle">Vertex Buffers</tspan></text><rect x="250.01" y="119.39" width="210" height="20" style="fill:#808080;stroke:#000"/><rect x="250.01" y="139.39" width="210" height="20" style="fill:#808080;stroke:#000"/><rect x="250.01" y="159.39" width="210" height="20" style="fill:#808080;stroke:#000"/><rect x="250.01" y="179.39" width="210" height="20" style="fill:#808080;stroke:#000"/><rect x="250.01" y="199.39" width="210" height="20" style="fill:#808080;stroke:#000"/><rect x="250.01" y="219.39" width="210" height="20" style="fill:#808080;stroke:#000"/><rect x="250.01" y="239.39" width="210" height="20" style="fill:#808080;stroke:#000"/><text x="354.63092" y="134.35175" style="fill:#000000;font-family:sans-serif;font-feature-settings:normal;font-size:13.333px;font-variant-caps:normal;font-variant-ligatures:normal;font-variant-numeric:normal;letter-spacing:0px;line-height:1.25;stroke-width:1.27;text-align:center;text-anchor:middle;word-spacing:0px" xml:space="preserve"><tspan x="354.63092" y="134.35175" style="font-family:sans-serif;font-feature-settings:normal;font-size:13.333px;font-variant-caps:normal;font-variant-ligatures:normal;font-variant-numeric:normal;stroke-width:1.27;text-align:center;text-anchor:middle">Push Constants</tspan></text><text x="354.70255" y="154.38429" style="fill:#000000;font-family:sans-serif;font-feature-settings:normal;font-size:13.333px;font-variant-caps:normal;font-variant-ligatures:normal;font-variant-numeric:normal;letter-spacing:0px;line-height:1.25;stroke-width:1.27;text-align:center;text-anchor:middle;word-spacing:0px" xml:space="preserve"><tspan x="354.70255" y="154.38429" style="font-family:sans-serif;font-feature-settings:normal;font-size:13.333px;font-variant-caps:normal;font-variant-ligatures:normal;font-variant-numeric:normal;stroke-width:1.27;text-align:center;text-anchor:middle">Uniform Buffers</tspan></text><text x="354.70255" y="174.38429" style="fill:#000000;font-family:sans-serif;font-feature-settings:normal;font-size:13.333px;font-variant-caps:normal;font-variant-ligatures:normal;font-variant-numeric:normal;letter-spacing:0px;line-height:1.25;stroke-width:1.27;text-align:center;text-anchor:middle;word-spacing:0px" xml:space="preserve"><tspan x="354.70255" y="174.38429" style="font-family:sans-serif;font-feature-settings:normal;font-size:13.333px;font-variant-caps:normal;font-variant-ligatures:normal;font-variant-numeric:normal;stroke-width:1.27;text-align:center;text-anchor:middle">Uniform Texel Buffers</tspan></text><text x="354.84579" y="193.0757" style="fill:#000000;font-family:sans-serif;font-feature-settings:normal;font-size:13.333px;font-variant-caps:normal;font-variant-ligatures:normal;font-variant-numeric:normal;letter-spacing:0px;line-height:1.25;stroke-width:1.27;text-align:center;text-anchor:middle;word-spacing:0px" xml:space="preserve"><tspan x="354.84579" y="193.0757" style="font-family:sans-serif;font-feature-settings:normal;font-size:13.333px;font-variant-caps:normal;font-variant-ligatures:normal;font-variant-numeric:normal;stroke-width:1.27;text-align:center;text-anchor:middle">Sampled Images</tspan></text><text x="354.84579" y="213.10826" style="fill:#000000;font-family:sans-serif;font-feature-settings:normal;font-size:13.333px;font-variant-caps:normal;font-variant-ligatures:normal;font-variant-numeric:normal;letter-spacing:0px;line-height:1.25;stroke-width:1.27;text-align:center;text-anchor:middle;word-spacing:0px" xml:space="preserve"><tspan x="354.84579" y="213.10826" style="font-family:sans-serif;font-feature-settings:normal;font-size:13.333px;font-variant-caps:normal;font-variant-ligatures:normal;font-variant-numeric:normal;stroke-width:1.27;text-align:center;text-anchor:middle">Storage Buffers</tspan></text><text x="354.84579" y="233.10826" style="fill:#000000;font-family:sans-serif;font-feature-settings:normal;font-size:13.333px;font-variant-caps:normal;font-variant-ligatures:normal;font-variant-numeric:normal;letter-spacing:0px;line-height:1.25;stroke-width:1.27;text-align:center;text-anchor:middle;word-spacing:0px" xml:space="preserve"><tspan x="354.84579" y="233.10826" style="font-family:sans-serif;font-feature-settings:normal;font-size:13.333px;font-variant-caps:normal;font-variant-ligatures:normal;font-variant-numeric:normal;stroke-width:1.27;text-align:center;text-anchor:middle">Storage Texel Buffers</tspan></text><text x="354.84579" y="252.9455" style="fill:#000000;font-family:sans-serif;font-feature-settings:normal;font-size:13.333px;font-variant-caps:normal;font-variant-ligatures:normal;font-variant-numeric:normal;letter-spacing:0px;line-height:1.25;stroke-width:1.27;text-align:center;text-anchor:middle;word-spacing:0px" xml:space="preserve"><tspan x="354.84579" y="252.9455" style="font-family:sans-serif;font-feature-settings:normal;font-size:13.333px;font-variant-caps:normal;font-variant-ligatures:normal;font-variant-numeric:normal;stroke-width:1.27;text-align:center;text-anchor:middle">Storage Images</tspan></text><rect x="515.01" y="119.39" width="140" height="20" style="fill:#fff;stroke-width:.896;stroke:#f00"/><text x="584.98572" y="134.35175" style="fill:#000000;font-family:sans-serif;font-feature-settings:normal;font-size:13.333px;font-variant-caps:normal;font-variant-ligatures:normal;font-variant-numeric:normal;letter-spacing:0px;line-height:1.25;stroke-width:1.27;text-align:center;text-anchor:middle;word-spacing:0px" xml:space="preserve"><tspan x="584.98572" y="134.35175" style="font-family:sans-serif;font-feature-settings:normal;font-size:13.333px;font-variant-caps:normal;font-variant-ligatures:normal;font-variant-numeric:normal;stroke-width:1.27;text-align:center;text-anchor:middle">Task Shader</tspan></text><rect x="515.01" y="-.61241" width="140" height="20" style="fill:#fff;stroke-width:.896;stroke:#000"/><text x="584.93042" y="13.111511" style="fill:#000000;font-family:sans-serif;font-feature-settings:normal;font-size:13.333px;font-variant-caps:normal;font-variant-ligatures:normal;font-variant-numeric:normal;letter-spacing:0px;line-height:1.25;stroke-width:1.27;text-align:center;text-anchor:middle;word-spacing:0px" xml:space="preserve"><tspan x="584.93042" y="13.111511" style="font-family:sans-serif;font-feature-settings:normal;font-size:13.333px;font-variant-caps:normal;font-variant-ligatures:normal;font-variant-numeric:normal;stroke-width:1.27;text-align:center;text-anchor:middle">DrawMeshTasks</tspan></text><rect x="245.01" y="329.39" width="220" height="20" style="fill:#808080;stroke:#000"/><text x="354.84576" y="342.9455" style="fill:#000000;font-family:sans-serif;font-feature-settings:normal;font-size:13.333px;font-variant-caps:normal;font-variant-ligatures:normal;font-variant-numeric:normal;letter-spacing:0px;line-height:1.25;stroke-width:1.27;text-align:center;text-anchor:middle;word-spacing:0px" xml:space="preserve"><tspan x="354.84576" y="342.9455" style="font-family:sans-serif;font-feature-settings:normal;font-size:13.333px;font-variant-caps:normal;font-variant-ligatures:normal;font-variant-numeric:normal;stroke-width:1.27;text-align:center;text-anchor:middle">Depth/Stencil Attachments</tspan></text><rect x="245.01" y="359.39" width="220" height="20" style="fill:#808080;stroke:#000"/><text x="354.84576" y="372.9455" style="fill:#000000;font-family:sans-serif;font-feature-settings:normal;font-size:13.333px;font-variant-caps:normal;font-variant-ligatures:normal;font-variant-numeric:normal;letter-spacing:0px;line-height:1.25;stroke-width:1.27;text-align:center;text-anchor:middle;word-spacing:0px" xml:space="preserve"><tspan x="354.84576" y="372.9455" style="font-family:sans-serif;font-feature-settings:normal;font-size:13.333px;font-variant-caps:normal;font-variant-ligatures:normal;font-variant-numeric:normal;stroke-width:1.27;text-align:center;text-anchor:middle">Input Attachments</tspan></text><rect x="245.01" y="419.39" width="220" height="20" style="fill:#808080;stroke:#000"/><text x="354.84576" y="432.9455" style="fill:#000000;font-family:sans-serif;font-feature-settings:normal;font-size:13.333px;font-variant-caps:normal;font-variant-ligatures:normal;font-variant-numeric:normal;letter-spacing:0px;line-height:1.25;stroke-width:1.27;text-align:center;text-anchor:middle;word-spacing:0px" xml:space="preserve"><tspan x="354.84576" y="432.9455" style="font-family:sans-serif;font-feature-settings:normal;font-size:13.333px;font-variant-caps:normal;font-variant-ligatures:normal;font-variant-numeric:normal;stroke-width:1.27;text-align:center;text-anchor:middle">Color Attachments</tspan></text><rect x="620.01" y="359.39" width="210" height="20" style="fill:#fff;stroke-width:.89574;stroke:#000"/><text x="724.63416" y="374.13358" style="fill:#000000;font-family:sans-serif;font-feature-settings:normal;font-size:13.333px;font-variant-caps:normal;font-variant-ligatures:normal;font-variant-numeric:normal;letter-spacing:0px;line-height:1.25;stroke-width:1.27;text-align:center;text-anchor:middle;word-spacing:0px" xml:space="preserve"><tspan x="724.63416" y="374.13358" style="font-family:sans-serif;font-feature-settings:normal;font-size:13.333px;font-variant-caps:normal;font-variant-ligatures:normal;font-variant-numeric:normal;stroke-width:1.27;text-align:center;text-anchor:middle">Fixed Function Stage</tspan></text><rect x="620.01" y="389.39" width="210" height="20" style="fill:#fff;stroke-width:.89574;stroke:#f00"/><text x="724.61139" y="403.11151" style="fill:#000000;font-family:sans-serif;font-feature-settings:normal;font-size:13.333px;font-variant-caps:normal;font-variant-ligatures:normal;font-variant-numeric:normal;letter-spacing:0px;line-height:1.25;stroke-width:1.27;text-align:center;text-anchor:middle;word-spacing:0px" xml:space="preserve"><tspan x="724.61139" y="403.11151" style="font-family:sans-serif;font-feature-settings:normal;font-size:13.333px;font-variant-caps:normal;font-variant-ligatures:normal;font-variant-numeric:normal;stroke-width:1.27;text-align:center;text-anchor:middle">Shader Stage</tspan></text><rect x="620.01" y="419.39" width="210" height="20" style="fill:#808080;stroke:#000"/><text x="724.84583" y="432.9455" style="fill:#000000;font-family:sans-serif;font-feature-settings:normal;font-size:13.333px;font-variant-caps:normal;font-variant-ligatures:normal;font-variant-numeric:normal;letter-spacing:0px;line-height:1.25;stroke-width:1.27;text-align:center;text-anchor:middle;word-spacing:0px" xml:space="preserve"><tspan x="724.84583" y="432.9455" style="font-family:sans-serif;font-feature-settings:normal;font-size:13.333px;font-variant-caps:normal;font-variant-ligatures:normal;font-variant-numeric:normal;stroke-width:1.27;text-align:center;text-anchor:middle">Storage Images</tspan></text><path d="m465.01 9.3876h50" style="fill:none;marker-end:url(#pipelinemeshc);stroke:#000"/><rect x="695.01" y="49.388" width="140" height="20" style="fill:#fff;stroke-width:.896;stroke:#f00"/><text x="764.61139" y="63.111511" style="fill:#000000;font-family:sans-serif;font-feature-settings:normal;font-size:13.333px;font-variant-caps:normal;font-variant-ligatures:normal;font-variant-numeric:normal;letter-spacing:0px;line-height:1.25;stroke-width:1.27;text-align:center;text-anchor:middle;word-spacing:0px" xml:space="preserve"><tspan x="764.61139" y="63.111511" style="font-family:sans-serif;font-feature-settings:normal;font-size:13.333px;font-variant-caps:normal;font-variant-ligatures:normal;font-variant-numeric:normal;stroke-width:1.27;text-align:center;text-anchor:middle">Compute Shader</tspan></text><rect x="695.01" y="-.61241" width="140" height="20" style="fill:#fff;stroke-width:.896;stroke:#000"/><text x="764.93036" y="13.111515" style="fill:#000000;font-family:sans-serif;font-feature-settings:normal;font-size:13.333px;font-variant-caps:normal;font-variant-ligatures:normal;font-variant-numeric:normal;letter-spacing:0px;line-height:1.25;stroke-width:1.27;text-align:center;text-anchor:middle;word-spacing:0px" xml:space="preserve"><tspan x="764.93036" y="13.111515" style="font-family:sans-serif;font-feature-settings:normal;font-size:13.333px;font-variant-caps:normal;font-variant-ligatures:normal;font-variant-numeric:normal;stroke-width:1.27;text-align:center;text-anchor:middle">Dispatch</tspan></text><rect x="514.35" y="219.39" width="140" height="20" style="fill:#fff;stroke-width:.896;stroke:#f00"/><rect x="515.01" y="89.388" width="140" height="20" style="fill:#fff;stroke-width:.896;stroke:#000"/><text x="584.98572" y="104.35175" style="fill:#000000;font-family:sans-serif;font-feature-settings:normal;font-size:13.333px;font-variant-caps:normal;font-variant-ligatures:normal;font-variant-numeric:normal;letter-spacing:0px;line-height:1.25;stroke-width:1.27;text-align:center;text-anchor:middle;word-spacing:0px" xml:space="preserve"><tspan x="584.98572" y="104.35175" style="font-family:sans-serif;font-feature-settings:normal;font-size:13.333px;font-variant-caps:normal;font-variant-ligatures:normal;font-variant-numeric:normal;stroke-width:1.27;text-align:center;text-anchor:middle">Task Assembler</tspan></text><rect x="514.35" y="189.39" width="140" height="20" style="fill:#fff;stroke-width:.896;stroke:#000"/><text x="584.33472" y="204.35175" style="fill:#000000;font-family:sans-serif;font-feature-settings:normal;font-size:13.333px;font-variant-caps:normal;font-variant-ligatures:normal;font-variant-numeric:normal;letter-spacing:0px;line-height:1.25;stroke-width:1.27;text-align:center;text-anchor:middle;word-spacing:0px" xml:space="preserve"><tspan x="584.33472" y="204.35175" style="font-family:sans-serif;font-feature-settings:normal;font-size:13.333px;font-variant-caps:normal;font-variant-ligatures:normal;font-variant-numeric:normal;stroke-width:1.27;text-align:center;text-anchor:middle">Mesh Assembler</tspan></text><text x="583.68372" y="234.35173" style="fill:#000000;font-family:sans-serif;font-feature-settings:normal;font-size:13.333px;font-variant-caps:normal;font-variant-ligatures:normal;font-variant-numeric:normal;letter-spacing:0px;line-height:1.25;stroke-width:1.27;text-align:center;text-anchor:middle;word-spacing:0px" xml:space="preserve"><tspan x="583.68372" y="234.35173" style="font-family:sans-serif;font-feature-settings:normal;font-size:13.333px;font-variant-caps:normal;font-variant-ligatures:normal;font-variant-numeric:normal;stroke-width:1.27;text-align:center;text-anchor:middle">Mesh Shader</tspan></text><path d="m585.01 19.388v70" style="fill:none;marker-end:url(#pipelinemeshe);stroke-width:1px;stroke:#000"/><path d="m585.01 109.39v10" style="fill:none;marker-end:url(#pipelinemeshb);stroke-width:1px;stroke:#000"/><path d="m585.01 79.388h80v70h-80" style="fill:none;marker-end:url(#pipelinemeshas);stroke-width:1px;stroke:#000"/><path d="m585.01 139.39v50" style="fill:none;marker-end:url(#pipelinemeshaq);stroke-width:1px;stroke:#000"/><path d="m584.35 209.39v10" style="fill:none;marker-end:url(#pipelinemeshap);stroke-width:1px;stroke:#000"/><path d="m585.01 239.39v40h-360v-5h-10v5h-20" style="fill:none;marker-end:url(#pipelinemeshan);stroke-width:1px;stroke:#000"/><path d="m490.01 9.3876v20h90v-5h10v5h85v-20h20" style="fill:none;marker-end:url(#pipelinemeshaj);stroke-width:1px;stroke:#000"/><path d="m490.01 129.39 23.983-0.0793" style="fill:none;marker-end:url(#pipelinemeshai);stroke-width:1px;stroke:#000"/><path d="m489.35 229.39 24.69 0.0769" style="fill:none;marker-end:url(#pipelinemeshah);stroke-width:1px;stroke:#000"/><path d="m760.01 19.388v30" style="fill:none;marker-end:url(#pipelinemeshm);stroke-width:1px;stroke:#000"/></g></svg>
