<svg width="169.68" height="104.1" version="1.1" viewBox="0 0 169.68 104.1" xmlns="http://www.w3.org/2000/svg"><defs><marker id="pt_triangle_fanb" style="overflow:visible" orient="auto"><path transform="matrix(.4 0 0 .4 4 0)" d="m0 0 5-5-17.5 5 17.5 5z" style="fill-rule:evenodd;stroke-width:1pt;stroke:#000"/></marker><marker id="pt_triangle_fane" style="overflow:visible" orient="auto"><path transform="matrix(.4 0 0 .4 4 0)" d="m0 0 5-5-17.5 5 17.5 5z" style="fill-rule:evenodd;stroke-width:1pt;stroke:#000"/></marker><marker id="pt_triangle_fanj" style="overflow:visible" orient="auto"><path transform="matrix(.4 0 0 .4 4 0)" d="m0 0 5-5-17.5 5 17.5 5z" style="fill-rule:evenodd;stroke-width:1pt;stroke:#000"/></marker><marker id="pt_triangle_fang" style="overflow:visible" orient="auto"><path transform="matrix(-.4 0 0 -.4 -4 0)" d="m0 0 5-5-17.5 5 17.5 5z" style="fill-rule:evenodd;stroke-width:1pt;stroke:#000"/></marker><marker id="pt_triangle_fanh" style="overflow:visible" orient="auto"><path transform="matrix(-.4 0 0 -.4 -4 0)" d="m0 0 5-5-17.5 5 17.5 5z" style="fill-rule:evenodd;stroke-width:1pt;stroke:#000"/></marker><marker id="pt_triangle_fank" style="overflow:visible" orient="auto"><path transform="matrix(-.4 0 0 -.4 -4 0)" d="m0 0 5-5-17.5 5 17.5 5z" style="fill-rule:evenodd;stroke-width:1pt;stroke:#000"/></marker><marker id="pt_triangle_fanf" style="overflow:visible" orient="auto"><path transform="matrix(-.4 0 0 -.4 -4 0)" d="m0 0 5-5-17.5 5 17.5 5z" style="fill-rule:evenodd;stroke-width:1pt;stroke:#000"/></marker><marker id="pt_triangle_fani" style="overflow:visible" orient="auto"><path transform="matrix(-.4 0 0 -.4 -4 0)" d="m0 0 5-5-17.5 5 17.5 5z" style="fill-rule:evenodd;stroke-width:1pt;stroke:#000"/></marker><marker id="pt_triangle_fanl" style="overflow:visible" orient="auto"><path transform="matrix(-.4 0 0 -.4 -4 0)" d="m0 0 5-5-17.5 5 17.5 5z" style="fill-rule:evenodd;stroke-width:1pt;stroke:#000"/></marker><marker id="pt_triangle_fana" style="overflow:visible" orient="auto"><path transform="matrix(.4 0 0 .4 4 0)" d="m0 0 5-5-17.5 5 17.5 5z" style="fill-rule:evenodd;fill:#fb0000;stroke-width:1pt;stroke:#fb0000"/></marker><marker id="pt_triangle_fand" style="overflow:visible" orient="auto"><path transform="matrix(.4 0 0 .4 4 0)" d="m0 0 5-5-17.5 5 17.5 5z" style="fill-rule:evenodd;fill:#f00;stroke-width:1pt;stroke:#fb0000"/></marker><marker id="pt_triangle_fanc" style="overflow:visible" orient="auto"><path transform="matrix(.4 0 0 .4 4 0)" d="m0 0 5-5-17.5 5 17.5 5z" style="fill-rule:evenodd;fill:#f00;stroke-width:1pt;stroke:#fb0000"/></marker></defs><g transform="translate(-248.04 180.91)"><text x="332.53439" y="-78.035103" style="fill:#000000;font-family:sans-serif;font-feature-settings:normal;font-size:16px;font-variant-caps:normal;font-variant-ligatures:normal;font-variant-numeric:normal;letter-spacing:0px;line-height:1.25;stroke-width:1.1643;text-align:center;text-anchor:middle;word-spacing:0px" xml:space="preserve"><tspan x="332.53439" y="-78.035103" style="fill:#000000;font-family:sans-serif;font-feature-settings:normal;font-size:16px;font-variant-caps:normal;font-variant-ligatures:normal;font-variant-numeric:normal;stroke-width:1.1643;text-align:center;text-anchor:middle">0</tspan></text><text x="412.53439" y="-78.035103" style="fill:#000000;font-family:sans-serif;font-feature-settings:normal;font-size:16px;font-variant-caps:normal;font-variant-ligatures:normal;font-variant-numeric:normal;letter-spacing:0px;line-height:1.25;stroke-width:1.1643;text-align:center;text-anchor:middle;word-spacing:0px" xml:space="preserve"><tspan x="412.53439" y="-78.035103" style="fill:#000000;font-family:sans-serif;font-feature-settings:normal;font-size:16px;font-variant-caps:normal;font-variant-ligatures:normal;font-variant-numeric:normal;stroke-width:1.1643;text-align:center;text-anchor:middle">4</tspan></text><text x="292.53439" y="-168.0351" style="fill:#000000;font-family:sans-serif;font-feature-settings:normal;font-size:16px;font-variant-caps:normal;font-variant-ligatures:normal;font-variant-numeric:normal;letter-spacing:0px;line-height:1.25;stroke-width:1.1643;text-align:center;text-anchor:middle;word-spacing:0px" xml:space="preserve"><tspan x="292.53439" y="-168.0351" style="fill:#000000;font-family:sans-serif;font-feature-settings:normal;font-size:16px;font-variant-caps:normal;font-variant-ligatures:normal;font-variant-numeric:normal;stroke-width:1.1643;text-align:center;text-anchor:middle">2</tspan></text><text x="252.53439" y="-78.035103" style="fill:#000000;font-family:sans-serif;font-feature-settings:normal;font-size:16px;font-variant-caps:normal;font-variant-ligatures:normal;font-variant-numeric:normal;letter-spacing:0px;line-height:1.25;stroke-width:1.1643;text-align:center;text-anchor:middle;word-spacing:0px" xml:space="preserve"><tspan x="252.53439" y="-78.035103" style="fill:#000000;font-family:sans-serif;font-feature-settings:normal;font-size:16px;font-variant-caps:normal;font-variant-ligatures:normal;font-variant-numeric:normal;stroke-width:1.1643;text-align:center;text-anchor:middle">1</tspan></text><text x="372.53439" y="-168.0351" style="fill:#000000;font-family:sans-serif;font-feature-settings:normal;font-size:16px;font-variant-caps:normal;font-variant-ligatures:normal;font-variant-numeric:normal;letter-spacing:0px;line-height:1.25;stroke-width:1.1643;text-align:center;text-anchor:middle;word-spacing:0px" xml:space="preserve"><tspan x="372.53439" y="-168.0351" style="fill:#000000;font-family:sans-serif;font-feature-settings:normal;font-size:16px;font-variant-caps:normal;font-variant-ligatures:normal;font-variant-numeric:normal;stroke-width:1.1643;text-align:center;text-anchor:middle">3</tspan></text><circle cx="412.53" cy="-98.035" r="3.4909"/><path d="m252.53-98.035 40-60h80l40 60zm40-60 40 60 40-60" style="fill:none;stroke-width:1px;stroke:#000"/><g transform="translate(200)"><path d="m67.534-113.04 20-30" style="fill:none;marker-end:url(#pt_triangle_fanf);stroke-width:1px;stroke:#000"/><path d="m97.534-143.04 20 30" style="fill:none;marker-end:url(#pt_triangle_fani);stroke-width:1px;stroke:#000"/><path d="m117.53-103.04h-50" style="fill:none;marker-end:url(#pt_triangle_fanl);stroke-width:1px;stroke:#000"/></g><g transform="translate(279.66 .68118)"><path d="m67.534-113.04 20-30" style="fill:none;marker-end:url(#pt_triangle_fang);stroke-width:1px;stroke:#000"/><path d="m97.534-143.04 20 30" style="fill:none;marker-end:url(#pt_triangle_fanh);stroke-width:1px;stroke:#000"/><path d="m117.53-103.04h-50" style="fill:none;marker-end:url(#pt_triangle_fank);stroke-width:1px;stroke:#000"/></g><g transform="translate(30 -10)"><path d="m277.53-133.04 20 30" style="fill:none;marker-start:url(#pt_triangle_fane);stroke-width:1px;stroke:#000"/><path d="m307.53-103.04 20-30" style="fill:none;marker-start:url(#pt_triangle_fanj);stroke-width:1px;stroke:#000"/><path d="m327.53-143.04h-50" style="fill:none;marker-start:url(#pt_triangle_fanb);stroke-width:1px;stroke:#000"/></g><text x="572.53442" y="-168.03511" style="fill:#000000;font-family:sans-serif;font-size:40px;letter-spacing:0px;line-height:1.25;word-spacing:0px" xml:space="preserve"/><g transform="translate(55,55)"><path d="m287.53-213.04h-50" style="fill:none;marker-start:url(#pt_triangle_fana);stroke-width:1px;stroke:#fb0000"/><circle cx="237.53" cy="-213.04" r="3.4909" style="fill:#f00"/></g><g transform="translate(-185,80)"><circle cx="437.53" cy="-178.04" r="3.4909" style="fill:#f00"/><path d="m457.53-208.04-20 30" style="fill:#f00;marker-start:url(#pt_triangle_fand);stroke-width:1px;stroke:#fb0000"/></g><circle cx="332.53" cy="-98.035" r="3.4909"/><g transform="matrix(1 0 0 -1 -65 -336.07)"><circle cx="437.53" cy="-178.04" r="3.4909" style="fill:#f00"/><path d="m457.53-208.04-20 30" style="fill:#f00;marker-start:url(#pt_triangle_fanc);stroke-width:1px;stroke:#fb0000"/></g></g></svg>
