<svg width="614.19" height="463.89" version="1.1" viewBox="0 0 614.19 463.89" xmlns="http://www.w3.org/2000/svg"><defs><marker id="pt_triangle_strip_with_adjacencyr" style="overflow:visible" orient="auto"><path transform="matrix(.4 0 0 .4 4 0)" d="m0 0 5-5-17.5 5 17.5 5z" style="fill-rule:evenodd;stroke-width:1pt;stroke:#000"/></marker><marker id="pt_triangle_strip_with_adjacencyah" style="overflow:visible" orient="auto"><path transform="matrix(.4 0 0 .4 4 0)" d="m0 0 5-5-17.5 5 17.5 5z" style="fill-rule:evenodd;stroke-width:1pt;stroke:#000"/></marker><marker id="pt_triangle_strip_with_adjacencyh" style="overflow:visible" orient="auto"><path transform="matrix(.4 0 0 .4 4 0)" d="m0 0 5-5-17.5 5 17.5 5z" style="fill-rule:evenodd;stroke-width:1pt;stroke:#000"/></marker><marker id="pt_triangle_strip_with_adjacencyq" style="overflow:visible" orient="auto"><path transform="matrix(.4 0 0 .4 4 0)" d="m0 0 5-5-17.5 5 17.5 5z" style="fill-rule:evenodd;stroke-width:1pt;stroke:#000"/></marker><marker id="pt_triangle_strip_with_adjacencyae" style="overflow:visible" orient="auto"><path transform="matrix(.4 0 0 .4 4 0)" d="m0 0 5-5-17.5 5 17.5 5z" style="fill-rule:evenodd;stroke-width:1pt;stroke:#000"/></marker><marker id="pt_triangle_strip_with_adjacencyb" style="overflow:visible" orient="auto"><path transform="matrix(.4 0 0 .4 4 0)" d="m0 0 5-5-17.5 5 17.5 5z" style="fill-rule:evenodd;stroke-width:1pt;stroke:#000"/></marker><marker id="pt_triangle_strip_with_adjacencyp" style="overflow:visible" orient="auto"><path transform="matrix(.4 0 0 .4 4 0)" d="m0 0 5-5-17.5 5 17.5 5z" style="fill-rule:evenodd;stroke-width:1pt;stroke:#000"/></marker><marker id="pt_triangle_strip_with_adjacencyaf" style="overflow:visible" orient="auto"><path transform="matrix(.4 0 0 .4 4 0)" d="m0 0 5-5-17.5 5 17.5 5z" style="fill-rule:evenodd;stroke-width:1pt;stroke:#000"/></marker><marker id="pt_triangle_strip_with_adjacencyd" style="overflow:visible" orient="auto"><path transform="matrix(.4 0 0 .4 4 0)" d="m0 0 5-5-17.5 5 17.5 5z" style="fill-rule:evenodd;stroke-width:1pt;stroke:#000"/></marker><marker id="pt_triangle_strip_with_adjacencyo" style="overflow:visible" orient="auto"><path transform="matrix(.4 0 0 .4 4 0)" d="m0 0 5-5-17.5 5 17.5 5z" style="fill-rule:evenodd;stroke-width:1pt;stroke:#000"/></marker><marker id="pt_triangle_strip_with_adjacencyag" style="overflow:visible" orient="auto"><path transform="matrix(.4 0 0 .4 4 0)" d="m0 0 5-5-17.5 5 17.5 5z" style="fill-rule:evenodd;stroke-width:1pt;stroke:#000"/></marker><marker id="pt_triangle_strip_with_adjacencyc" style="overflow:visible" orient="auto"><path transform="matrix(.4 0 0 .4 4 0)" d="m0 0 5-5-17.5 5 17.5 5z" style="fill-rule:evenodd;stroke-width:1pt;stroke:#000"/></marker><marker id="pt_triangle_strip_with_adjacencyx" style="overflow:visible" orient="auto"><path transform="matrix(-.4 0 0 -.4 -4 0)" d="m0 0 5-5-17.5 5 17.5 5z" style="fill-rule:evenodd;stroke-width:1pt;stroke:#000"/></marker><marker id="pt_triangle_strip_with_adjacencyad" style="overflow:visible" orient="auto"><path transform="matrix(-.4 0 0 -.4 -4 0)" d="m0 0 5-5-17.5 5 17.5 5z" style="fill-rule:evenodd;stroke-width:1pt;stroke:#000"/></marker><marker id="pt_triangle_strip_with_adjacencyan" style="overflow:visible" orient="auto"><path transform="matrix(-.4 0 0 -.4 -4 0)" d="m0 0 5-5-17.5 5 17.5 5z" style="fill-rule:evenodd;stroke-width:1pt;stroke:#000"/></marker><marker id="pt_triangle_strip_with_adjacencys" style="overflow:visible" orient="auto"><path transform="matrix(-.4 0 0 -.4 -4 0)" d="m0 0 5-5-17.5 5 17.5 5z" style="fill-rule:evenodd;stroke-width:1pt;stroke:#000"/></marker><marker id="pt_triangle_strip_with_adjacencyy" style="overflow:visible" orient="auto"><path transform="matrix(-.4 0 0 -.4 -4 0)" d="m0 0 5-5-17.5 5 17.5 5z" style="fill-rule:evenodd;stroke-width:1pt;stroke:#000"/></marker><marker id="pt_triangle_strip_with_adjacencyal" style="overflow:visible" orient="auto"><path transform="matrix(-.4 0 0 -.4 -4 0)" d="m0 0 5-5-17.5 5 17.5 5z" style="fill-rule:evenodd;stroke-width:1pt;stroke:#000"/></marker><marker id="pt_triangle_strip_with_adjacencyu" style="overflow:visible" orient="auto"><path transform="matrix(-.4 0 0 -.4 -4 0)" d="m0 0 5-5-17.5 5 17.5 5z" style="fill-rule:evenodd;stroke-width:1pt;stroke:#000"/></marker><marker id="pt_triangle_strip_with_adjacencyac" style="overflow:visible" orient="auto"><path transform="matrix(-.4 0 0 -.4 -4 0)" d="m0 0 5-5-17.5 5 17.5 5z" style="fill-rule:evenodd;stroke-width:1pt;stroke:#000"/></marker><marker id="pt_triangle_strip_with_adjacencyak" style="overflow:visible" orient="auto"><path transform="matrix(-.4 0 0 -.4 -4 0)" d="m0 0 5-5-17.5 5 17.5 5z" style="fill-rule:evenodd;stroke-width:1pt;stroke:#000"/></marker><marker id="pt_triangle_strip_with_adjacencyw" style="overflow:visible" orient="auto"><path transform="matrix(-.4 0 0 -.4 -4 0)" d="m0 0 5-5-17.5 5 17.5 5z" style="fill-rule:evenodd;stroke-width:1pt;stroke:#000"/></marker><marker id="pt_triangle_strip_with_adjacencyab" style="overflow:visible" orient="auto"><path transform="matrix(-.4 0 0 -.4 -4 0)" d="m0 0 5-5-17.5 5 17.5 5z" style="fill-rule:evenodd;stroke-width:1pt;stroke:#000"/></marker><marker id="pt_triangle_strip_with_adjacencyaj" style="overflow:visible" orient="auto"><path transform="matrix(-.4 0 0 -.4 -4 0)" d="m0 0 5-5-17.5 5 17.5 5z" style="fill-rule:evenodd;stroke-width:1pt;stroke:#000"/></marker><marker id="pt_triangle_strip_with_adjacencyv" style="overflow:visible" orient="auto"><path transform="matrix(-.4 0 0 -.4 -4 0)" d="m0 0 5-5-17.5 5 17.5 5z" style="fill-rule:evenodd;stroke-width:1pt;stroke:#000"/></marker><marker id="pt_triangle_strip_with_adjacencyaa" style="overflow:visible" orient="auto"><path transform="matrix(-.4 0 0 -.4 -4 0)" d="m0 0 5-5-17.5 5 17.5 5z" style="fill-rule:evenodd;stroke-width:1pt;stroke:#000"/></marker><marker id="pt_triangle_strip_with_adjacencyai" style="overflow:visible" orient="auto"><path transform="matrix(-.4 0 0 -.4 -4 0)" d="m0 0 5-5-17.5 5 17.5 5z" style="fill-rule:evenodd;stroke-width:1pt;stroke:#000"/></marker><marker id="pt_triangle_strip_with_adjacencyt" style="overflow:visible" orient="auto"><path transform="matrix(-.4 0 0 -.4 -4 0)" d="m0 0 5-5-17.5 5 17.5 5z" style="fill-rule:evenodd;stroke-width:1pt;stroke:#000"/></marker><marker id="pt_triangle_strip_with_adjacencyz" style="overflow:visible" orient="auto"><path transform="matrix(-.4 0 0 -.4 -4 0)" d="m0 0 5-5-17.5 5 17.5 5z" style="fill-rule:evenodd;stroke-width:1pt;stroke:#000"/></marker><marker id="pt_triangle_strip_with_adjacencyam" style="overflow:visible" orient="auto"><path transform="matrix(-.4 0 0 -.4 -4 0)" d="m0 0 5-5-17.5 5 17.5 5z" style="fill-rule:evenodd;stroke-width:1pt;stroke:#000"/></marker><marker id="pt_triangle_strip_with_adjacencya" style="overflow:visible" orient="auto"><path transform="matrix(.4 0 0 .4 4 0)" d="m0 0 5-5-17.5 5 17.5 5z" style="fill-rule:evenodd;fill:#f00;stroke-width:1pt;stroke:#fe0000"/></marker><marker id="pt_triangle_strip_with_adjacencyl" style="overflow:visible" orient="auto"><path transform="matrix(.4 0 0 .4 4 0)" d="m0 0 5-5-17.5 5 17.5 5z" style="fill-rule:evenodd;fill:#fb0000;stroke-width:1pt;stroke:#fb0000"/></marker><marker id="pt_triangle_strip_with_adjacencyi" style="overflow:visible" orient="auto"><path transform="matrix(.4 0 0 .4 4 0)" d="m0 0 5-5-17.5 5 17.5 5z" style="fill-rule:evenodd;fill:#fb0000;stroke-width:1pt;stroke:#fb0000"/></marker><marker id="pt_triangle_strip_with_adjacencyn" style="overflow:visible" orient="auto"><path transform="matrix(.4 0 0 .4 4 0)" d="m0 0 5-5-17.5 5 17.5 5z" style="fill-rule:evenodd;fill:#fb0000;stroke-width:1pt;stroke:#fb0000"/></marker><marker id="pt_triangle_strip_with_adjacencyk" style="overflow:visible" orient="auto"><path transform="matrix(.4 0 0 .4 4 0)" d="m0 0 5-5-17.5 5 17.5 5z" style="fill-rule:evenodd;fill:#fb0000;stroke-width:1pt;stroke:#fb0000"/></marker><marker id="pt_triangle_strip_with_adjacencyj" style="overflow:visible" orient="auto"><path transform="matrix(.4 0 0 .4 4 0)" d="m0 0 5-5-17.5 5 17.5 5z" style="fill-rule:evenodd;fill:#fb0000;stroke-width:1pt;stroke:#fb0000"/></marker><marker id="pt_triangle_strip_with_adjacencym" style="overflow:visible" orient="auto"><path transform="matrix(.4 0 0 .4 4 0)" d="m0 0 5-5-17.5 5 17.5 5z" style="fill-rule:evenodd;fill:#fb0000;stroke-width:1pt;stroke:#fb0000"/></marker><marker id="pt_triangle_strip_with_adjacencyg" style="overflow:visible" orient="auto"><path transform="matrix(.4 0 0 .4 4 0)" d="m0 0 5-5-17.5 5 17.5 5z" style="fill-rule:evenodd;fill:#fb0000;stroke-width:1pt;stroke:#fb0000"/></marker><marker id="pt_triangle_strip_with_adjacencye" style="overflow:visible" orient="auto"><path transform="matrix(.4 0 0 .4 4 0)" d="m0 0 5-5-17.5 5 17.5 5z" style="fill-rule:evenodd;fill:#fb0000;stroke-width:1pt;stroke:#fb0000"/></marker><marker id="pt_triangle_strip_with_adjacencyf" style="overflow:visible" orient="auto"><path transform="matrix(.4 0 0 .4 4 0)" d="m0 0 5-5-17.5 5 17.5 5z" style="fill-rule:evenodd;fill:#fb0000;stroke-width:1pt;stroke:#fb0000"/></marker></defs><g transform="translate(-8.0435 240.7)"><text x="52.534393" y="-78.03511" style="fill:#000000;font-family:sans-serif;font-feature-settings:normal;font-size:16px;font-variant-caps:normal;font-variant-ligatures:normal;font-variant-numeric:normal;letter-spacing:0px;line-height:1.25;stroke-width:1.1643;text-align:center;text-anchor:middle;word-spacing:0px" xml:space="preserve"><tspan x="52.534393" y="-78.03511" style="fill:#000000;font-family:sans-serif;font-feature-settings:normal;font-size:16px;font-variant-caps:normal;font-variant-ligatures:normal;font-variant-numeric:normal;stroke-width:1.1643;text-align:center;text-anchor:middle">0</tspan></text><text x="132.53439" y="-78.03511" style="fill:#000000;font-family:sans-serif;font-feature-settings:normal;font-size:16px;font-variant-caps:normal;font-variant-ligatures:normal;font-variant-numeric:normal;letter-spacing:0px;line-height:1.25;stroke-width:1.1643;text-align:center;text-anchor:middle;word-spacing:0px" xml:space="preserve"><tspan x="132.53439" y="-78.03511" style="fill:#000000;font-family:sans-serif;font-feature-settings:normal;font-size:16px;font-variant-caps:normal;font-variant-ligatures:normal;font-variant-numeric:normal;stroke-width:1.1643;text-align:center;text-anchor:middle">4</tspan></text><text x="92.534393" y="-168.03511" style="fill:#000000;font-family:sans-serif;font-feature-settings:normal;font-size:16px;font-variant-caps:normal;font-variant-ligatures:normal;font-variant-numeric:normal;letter-spacing:0px;line-height:1.25;stroke-width:1.1643;text-align:center;text-anchor:middle;word-spacing:0px" xml:space="preserve"><tspan x="92.534393" y="-168.03511" style="fill:#000000;font-family:sans-serif;font-feature-settings:normal;font-size:16px;font-variant-caps:normal;font-variant-ligatures:normal;font-variant-numeric:normal;stroke-width:1.1643;text-align:center;text-anchor:middle">2</tspan></text><text x="12.534393" y="-168.03511" style="fill:#000000;font-family:sans-serif;font-feature-settings:normal;font-size:16px;font-variant-caps:normal;font-variant-ligatures:normal;font-variant-numeric:normal;letter-spacing:0px;line-height:1.25;stroke-width:1.1643;text-align:center;text-anchor:middle;word-spacing:0px" xml:space="preserve"><tspan x="12.534393" y="-168.03511" style="fill:#000000;font-family:sans-serif;font-feature-settings:normal;font-size:16px;font-variant-caps:normal;font-variant-ligatures:normal;font-variant-numeric:normal;stroke-width:1.1643;text-align:center;text-anchor:middle">1</tspan></text><text x="172.53439" y="-168.03511" style="fill:#000000;font-family:sans-serif;font-feature-settings:normal;font-size:16px;font-variant-caps:normal;font-variant-ligatures:normal;font-variant-numeric:normal;letter-spacing:0px;line-height:1.25;stroke-width:1.1643;text-align:center;text-anchor:middle;word-spacing:0px" xml:space="preserve"><tspan x="172.53439" y="-168.03511" style="fill:#000000;font-family:sans-serif;font-feature-settings:normal;font-size:16px;font-variant-caps:normal;font-variant-ligatures:normal;font-variant-numeric:normal;stroke-width:1.1643;text-align:center;text-anchor:middle">5</tspan></text><text x="92.534393" y="-18.035109" style="fill:#000000;font-family:sans-serif;font-feature-settings:normal;font-size:16px;font-variant-caps:normal;font-variant-ligatures:normal;font-variant-numeric:normal;letter-spacing:0px;line-height:1.25;stroke-width:1.1643;text-align:center;text-anchor:middle;word-spacing:0px" xml:space="preserve"><tspan x="92.534393" y="-18.035109" style="fill:#000000;font-family:sans-serif;font-feature-settings:normal;font-size:16px;font-variant-caps:normal;font-variant-ligatures:normal;font-variant-numeric:normal;stroke-width:1.1643;text-align:center;text-anchor:middle">3</tspan></text><text x="412.53439" y="-168.03511" style="fill:#000000;font-family:sans-serif;font-feature-settings:normal;font-size:16px;font-variant-caps:normal;font-variant-ligatures:normal;font-variant-numeric:normal;letter-spacing:0px;line-height:1.25;stroke-width:1.1643;text-align:center;text-anchor:middle;word-spacing:0px" xml:space="preserve"><tspan x="412.53439" y="-168.03511" style="fill:#000000;font-family:sans-serif;font-feature-settings:normal;font-size:16px;font-variant-caps:normal;font-variant-ligatures:normal;font-variant-numeric:normal;stroke-width:1.1643;text-align:center;text-anchor:middle">2</tspan></text><text x="492.53439" y="-168.03511" style="fill:#000000;font-family:sans-serif;font-feature-settings:normal;font-size:16px;font-variant-caps:normal;font-variant-ligatures:normal;font-variant-numeric:normal;letter-spacing:0px;line-height:1.25;stroke-width:1.1643;text-align:center;text-anchor:middle;word-spacing:0px" xml:space="preserve"><tspan x="492.53439" y="-168.03511" style="fill:#000000;font-family:sans-serif;font-feature-settings:normal;font-size:16px;font-variant-caps:normal;font-variant-ligatures:normal;font-variant-numeric:normal;stroke-width:1.1643;text-align:center;text-anchor:middle">6</tspan></text><text x="452.53439" y="-228.03511" style="fill:#000000;font-family:sans-serif;font-feature-settings:normal;font-size:16px;font-variant-caps:normal;font-variant-ligatures:normal;font-variant-numeric:normal;letter-spacing:0px;line-height:1.25;stroke-width:1.1643;text-align:center;text-anchor:middle;word-spacing:0px" xml:space="preserve"><tspan x="452.53439" y="-228.03511" style="fill:#000000;font-family:sans-serif;font-feature-settings:normal;font-size:16px;font-variant-caps:normal;font-variant-ligatures:normal;font-variant-numeric:normal;stroke-width:1.1643;text-align:center;text-anchor:middle">5</tspan></text><text x="532.53436" y="-78.03511" style="fill:#000000;font-family:sans-serif;font-feature-settings:normal;font-size:16px;font-variant-caps:normal;font-variant-ligatures:normal;font-variant-numeric:normal;letter-spacing:0px;line-height:1.25;stroke-width:1.1643;text-align:center;text-anchor:middle;word-spacing:0px" xml:space="preserve"><tspan x="532.53436" y="-78.03511" style="fill:#000000;font-family:sans-serif;font-feature-settings:normal;font-size:16px;font-variant-caps:normal;font-variant-ligatures:normal;font-variant-numeric:normal;stroke-width:1.1643;text-align:center;text-anchor:middle">7</tspan></text><text x="172.53439" y="221.96489" style="fill:#000000;font-family:sans-serif;font-feature-settings:normal;font-size:16px;font-variant-caps:normal;font-variant-ligatures:normal;font-variant-numeric:normal;letter-spacing:0px;line-height:1.25;stroke-width:1.1643;text-align:center;text-anchor:middle;word-spacing:0px" xml:space="preserve"><tspan x="172.53439" y="221.96489" style="fill:#000000;font-family:sans-serif;font-feature-settings:normal;font-size:16px;font-variant-caps:normal;font-variant-ligatures:normal;font-variant-numeric:normal;stroke-width:1.1643;text-align:center;text-anchor:middle">7</tspan></text><text x="212.53439" y="161.96489" style="fill:#000000;font-family:sans-serif;font-feature-settings:normal;font-size:16px;font-variant-caps:normal;font-variant-ligatures:normal;font-variant-numeric:normal;letter-spacing:0px;line-height:1.25;stroke-width:1.1643;text-align:center;text-anchor:middle;word-spacing:0px" xml:space="preserve"><tspan x="212.53439" y="161.96489" style="fill:#000000;font-family:sans-serif;font-feature-settings:normal;font-size:16px;font-variant-caps:normal;font-variant-ligatures:normal;font-variant-numeric:normal;stroke-width:1.1643;text-align:center;text-anchor:middle">8</tspan></text><text x="252.53439" y="71.96489" style="fill:#000000;font-family:sans-serif;font-feature-settings:normal;font-size:16px;font-variant-caps:normal;font-variant-ligatures:normal;font-variant-numeric:normal;letter-spacing:0px;line-height:1.25;stroke-width:1.1643;text-align:center;text-anchor:middle;word-spacing:0px" xml:space="preserve"><tspan x="252.53439" y="71.96489" style="fill:#000000;font-family:sans-serif;font-feature-settings:normal;font-size:16px;font-variant-caps:normal;font-variant-ligatures:normal;font-variant-numeric:normal;stroke-width:1.1643;text-align:center;text-anchor:middle">9</tspan></text><text x="492.53439" y="221.96489" style="fill:#000000;font-family:sans-serif;font-feature-settings:normal;font-size:16px;font-variant-caps:normal;font-variant-ligatures:normal;font-variant-numeric:normal;letter-spacing:0px;line-height:1.25;stroke-width:1.1643;text-align:center;text-anchor:middle;word-spacing:0px" xml:space="preserve"><tspan x="492.53439" y="221.96489" style="fill:#000000;font-family:sans-serif;font-feature-settings:normal;font-size:16px;font-variant-caps:normal;font-variant-ligatures:normal;font-variant-numeric:normal;stroke-width:1.1643;text-align:center;text-anchor:middle">7</tspan></text><text x="532.53436" y="161.96489" style="fill:#000000;font-family:sans-serif;font-feature-settings:normal;font-size:16px;font-variant-caps:normal;font-variant-ligatures:normal;font-variant-numeric:normal;letter-spacing:0px;line-height:1.25;stroke-width:1.1643;text-align:center;text-anchor:middle;word-spacing:0px" xml:space="preserve"><tspan x="532.53436" y="161.96489" style="fill:#000000;font-family:sans-serif;font-feature-settings:normal;font-size:16px;font-variant-caps:normal;font-variant-ligatures:normal;font-variant-numeric:normal;stroke-width:1.1643;text-align:center;text-anchor:middle">8</tspan></text><text x="572.53436" y="71.96489" style="fill:#000000;font-family:sans-serif;font-feature-settings:normal;font-size:16px;font-variant-caps:normal;font-variant-ligatures:normal;font-variant-numeric:normal;letter-spacing:0px;line-height:1.25;stroke-width:1.1643;text-align:center;text-anchor:middle;word-spacing:0px" xml:space="preserve"><tspan x="572.53436" y="71.96489" style="fill:#000000;font-family:sans-serif;font-feature-settings:normal;font-size:16px;font-variant-caps:normal;font-variant-ligatures:normal;font-variant-numeric:normal;stroke-width:1.1643;text-align:center;text-anchor:middle">10</tspan></text><text x="532.53436" y="11.964892" style="fill:#000000;font-family:sans-serif;font-feature-settings:normal;font-size:16px;font-variant-caps:normal;font-variant-ligatures:normal;font-variant-numeric:normal;letter-spacing:0px;line-height:1.25;stroke-width:1.1643;text-align:center;text-anchor:middle;word-spacing:0px" xml:space="preserve"><tspan x="532.53436" y="11.964892" style="fill:#000000;font-family:sans-serif;font-feature-settings:normal;font-size:16px;font-variant-caps:normal;font-variant-ligatures:normal;font-variant-numeric:normal;stroke-width:1.1643;text-align:center;text-anchor:middle">9</tspan></text><text x="612.53436" y="161.96489" style="fill:#000000;font-family:sans-serif;font-feature-settings:normal;font-size:16px;font-variant-caps:normal;font-variant-ligatures:normal;font-variant-numeric:normal;letter-spacing:0px;line-height:1.25;stroke-width:1.1643;text-align:center;text-anchor:middle;word-spacing:0px" xml:space="preserve"><tspan x="612.53436" y="161.96489" style="fill:#000000;font-family:sans-serif;font-feature-settings:normal;font-size:16px;font-variant-caps:normal;font-variant-ligatures:normal;font-variant-numeric:normal;stroke-width:1.1643;text-align:center;text-anchor:middle">11</tspan></text><circle cx="12.534" cy="-158.04" r="3.4909"/><circle cx="92.534" cy="-158.04" r="3.4909"/><circle cx="172.53" cy="-158.04" r="3.4909"/><circle cx="132.53" cy="-98.035" r="3.4909"/><circle cx="92.534" cy="-38.035" r="3.4909"/><circle cx="332.53" cy="-158.04" r="3.4909"/><circle cx="492.53" cy="-158.04" r="3.4909"/><circle cx="452.53" cy="-98.035" r="3.4909"/><circle cx="412.53" cy="-38.035" r="3.4909"/><circle cx="452.53" cy="-218.04" r="3.4909"/><circle cx="532.53" cy="-98.035" r="3.4909"/><circle cx="12.534" cy="81.965" r="3.4909"/><circle cx="92.534" cy="201.96" r="3.4909"/><circle cx="132.53" cy="21.965" r="3.4909"/><circle cx="212.53" cy="141.96" r="3.4909"/><circle cx="172.53" cy="201.96" r="3.4909"/><circle cx="252.53" cy="81.965" r="3.4909"/><circle cx="332.53" cy="81.965" r="3.4909"/><circle cx="412.53" cy="201.96" r="3.4909"/><circle cx="452.53" cy="21.965" r="3.4909"/><circle cx="532.53" cy="141.96" r="3.4909"/><circle cx="492.53" cy="201.96" r="3.4909"/><circle cx="572.53" cy="81.965" r="3.4909"/><circle cx="532.53" cy="21.965" r="3.4909"/><circle cx="612.53" cy="141.96" r="3.4909"/><path d="m12.534-158.04 80 120 80-120z" style="fill:none;stroke-dasharray:4, 4;stroke:#000"/><path d="m332.53-158.04 80 120 40-60h80l-80-120-40 60z" style="fill:none;stroke-dasharray:4, 4;stroke:#000"/><path d="m12.534 81.965 80 120 40-60 40 60 80-120h-80l-40-60-40 60z" style="fill:none;stroke-dasharray:4, 4;stroke:#000"/><path d="m332.53 81.965h80l40-60 40 60 40-60 80 120h-80l-40 60-40-60-40 60z" style="fill:none;stroke-dasharray:4, 4;stroke:#000"/><path d="m52.534-98.035 40-60 40 60z" style="fill:none;stroke-width:1px;stroke:#000"/><path d="m372.53-98.035 40-60h80l-40 60zm40-60 40 60" style="fill:none;stroke-width:1px;stroke:#000"/><path d="m52.534 141.96 40-60h80l40 60h-80zm40-60 40 60 40-60" style="fill:none;stroke-width:1px;stroke:#000"/><path d="m372.53 141.96 40-60h160l-40 60zm40-60 40 60 40-60 40 60" style="fill:none;stroke-width:1px;stroke:#000"/><text x="372.53439" y="-78.03511" style="fill:#000000;font-family:sans-serif;font-feature-settings:normal;font-size:16px;font-variant-caps:normal;font-variant-ligatures:normal;font-variant-numeric:normal;letter-spacing:0px;line-height:1.25;stroke-width:1.1643;text-align:center;text-anchor:middle;word-spacing:0px" xml:space="preserve"><tspan x="372.53439" y="-78.03511" style="fill:#000000;font-family:sans-serif;font-feature-settings:normal;font-size:16px;font-variant-caps:normal;font-variant-ligatures:normal;font-variant-numeric:normal;stroke-width:1.1643;text-align:center;text-anchor:middle">0</tspan></text><text x="452.53439" y="-78.03511" style="fill:#000000;font-family:sans-serif;font-feature-settings:normal;font-size:16px;font-variant-caps:normal;font-variant-ligatures:normal;font-variant-numeric:normal;letter-spacing:0px;line-height:1.25;stroke-width:1.1643;text-align:center;text-anchor:middle;word-spacing:0px" xml:space="preserve"><tspan x="452.53439" y="-78.03511" style="fill:#000000;font-family:sans-serif;font-feature-settings:normal;font-size:16px;font-variant-caps:normal;font-variant-ligatures:normal;font-variant-numeric:normal;stroke-width:1.1643;text-align:center;text-anchor:middle">4</tspan></text><text x="332.53439" y="-168.03511" style="fill:#000000;font-family:sans-serif;font-feature-settings:normal;font-size:16px;font-variant-caps:normal;font-variant-ligatures:normal;font-variant-numeric:normal;letter-spacing:0px;line-height:1.25;stroke-width:1.1643;text-align:center;text-anchor:middle;word-spacing:0px" xml:space="preserve"><tspan x="332.53439" y="-168.03511" style="fill:#000000;font-family:sans-serif;font-feature-settings:normal;font-size:16px;font-variant-caps:normal;font-variant-ligatures:normal;font-variant-numeric:normal;stroke-width:1.1643;text-align:center;text-anchor:middle">1</tspan></text><text x="412.53439" y="-18.035109" style="fill:#000000;font-family:sans-serif;font-feature-settings:normal;font-size:16px;font-variant-caps:normal;font-variant-ligatures:normal;font-variant-numeric:normal;letter-spacing:0px;line-height:1.25;stroke-width:1.1643;text-align:center;text-anchor:middle;word-spacing:0px" xml:space="preserve"><tspan x="412.53439" y="-18.035109" style="fill:#000000;font-family:sans-serif;font-feature-settings:normal;font-size:16px;font-variant-caps:normal;font-variant-ligatures:normal;font-variant-numeric:normal;stroke-width:1.1643;text-align:center;text-anchor:middle">3</tspan></text><text x="92.534393" y="71.96489" style="fill:#000000;font-family:sans-serif;font-feature-settings:normal;font-size:16px;font-variant-caps:normal;font-variant-ligatures:normal;font-variant-numeric:normal;letter-spacing:0px;line-height:1.25;stroke-width:1.1643;text-align:center;text-anchor:middle;word-spacing:0px" xml:space="preserve"><tspan x="92.534393" y="71.96489" style="fill:#000000;font-family:sans-serif;font-feature-settings:normal;font-size:16px;font-variant-caps:normal;font-variant-ligatures:normal;font-variant-numeric:normal;stroke-width:1.1643;text-align:center;text-anchor:middle">2</tspan></text><text x="172.53439" y="71.96489" style="fill:#000000;font-family:sans-serif;font-feature-settings:normal;font-size:16px;font-variant-caps:normal;font-variant-ligatures:normal;font-variant-numeric:normal;letter-spacing:0px;line-height:1.25;stroke-width:1.1643;text-align:center;text-anchor:middle;word-spacing:0px" xml:space="preserve"><tspan x="172.53439" y="71.96489" style="fill:#000000;font-family:sans-serif;font-feature-settings:normal;font-size:16px;font-variant-caps:normal;font-variant-ligatures:normal;font-variant-numeric:normal;stroke-width:1.1643;text-align:center;text-anchor:middle">6</tspan></text><text x="132.53438" y="11.964892" style="fill:#000000;font-family:sans-serif;font-feature-settings:normal;font-size:16px;font-variant-caps:normal;font-variant-ligatures:normal;font-variant-numeric:normal;letter-spacing:0px;line-height:1.25;stroke-width:1.1643;text-align:center;text-anchor:middle;word-spacing:0px" xml:space="preserve"><tspan x="132.53438" y="11.964892" style="fill:#000000;font-family:sans-serif;font-feature-settings:normal;font-size:16px;font-variant-caps:normal;font-variant-ligatures:normal;font-variant-numeric:normal;stroke-width:1.1643;text-align:center;text-anchor:middle">5</tspan></text><text x="52.534393" y="161.96489" style="fill:#000000;font-family:sans-serif;font-feature-settings:normal;font-size:16px;font-variant-caps:normal;font-variant-ligatures:normal;font-variant-numeric:normal;letter-spacing:0px;line-height:1.25;stroke-width:1.1643;text-align:center;text-anchor:middle;word-spacing:0px" xml:space="preserve"><tspan x="52.534393" y="161.96489" style="fill:#000000;font-family:sans-serif;font-feature-settings:normal;font-size:16px;font-variant-caps:normal;font-variant-ligatures:normal;font-variant-numeric:normal;stroke-width:1.1643;text-align:center;text-anchor:middle">0</tspan></text><text x="132.53438" y="161.96489" style="fill:#000000;font-family:sans-serif;font-feature-settings:normal;font-size:16px;font-variant-caps:normal;font-variant-ligatures:normal;font-variant-numeric:normal;letter-spacing:0px;line-height:1.25;stroke-width:1.1643;text-align:center;text-anchor:middle;word-spacing:0px" xml:space="preserve"><tspan x="132.53438" y="161.96489" style="fill:#000000;font-family:sans-serif;font-feature-settings:normal;font-size:16px;font-variant-caps:normal;font-variant-ligatures:normal;font-variant-numeric:normal;stroke-width:1.1643;text-align:center;text-anchor:middle">4</tspan></text><text x="12.534393" y="71.96489" style="fill:#000000;font-family:sans-serif;font-feature-settings:normal;font-size:16px;font-variant-caps:normal;font-variant-ligatures:normal;font-variant-numeric:normal;letter-spacing:0px;line-height:1.25;stroke-width:1.1643;text-align:center;text-anchor:middle;word-spacing:0px" xml:space="preserve"><tspan x="12.534393" y="71.96489" style="fill:#000000;font-family:sans-serif;font-feature-settings:normal;font-size:16px;font-variant-caps:normal;font-variant-ligatures:normal;font-variant-numeric:normal;stroke-width:1.1643;text-align:center;text-anchor:middle">1</tspan></text><text x="92.534393" y="221.96489" style="fill:#000000;font-family:sans-serif;font-feature-settings:normal;font-size:16px;font-variant-caps:normal;font-variant-ligatures:normal;font-variant-numeric:normal;letter-spacing:0px;line-height:1.25;stroke-width:1.1643;text-align:center;text-anchor:middle;word-spacing:0px" xml:space="preserve"><tspan x="92.534393" y="221.96489" style="fill:#000000;font-family:sans-serif;font-feature-settings:normal;font-size:16px;font-variant-caps:normal;font-variant-ligatures:normal;font-variant-numeric:normal;stroke-width:1.1643;text-align:center;text-anchor:middle">3</tspan></text><text x="412.53439" y="71.96489" style="fill:#000000;font-family:sans-serif;font-feature-settings:normal;font-size:16px;font-variant-caps:normal;font-variant-ligatures:normal;font-variant-numeric:normal;letter-spacing:0px;line-height:1.25;stroke-width:1.1643;text-align:center;text-anchor:middle;word-spacing:0px" xml:space="preserve"><tspan x="412.53439" y="71.96489" style="fill:#000000;font-family:sans-serif;font-feature-settings:normal;font-size:16px;font-variant-caps:normal;font-variant-ligatures:normal;font-variant-numeric:normal;stroke-width:1.1643;text-align:center;text-anchor:middle">2</tspan></text><text x="492.53439" y="71.96489" style="fill:#000000;font-family:sans-serif;font-feature-settings:normal;font-size:16px;font-variant-caps:normal;font-variant-ligatures:normal;font-variant-numeric:normal;letter-spacing:0px;line-height:1.25;stroke-width:1.1643;text-align:center;text-anchor:middle;word-spacing:0px" xml:space="preserve"><tspan x="492.53439" y="71.96489" style="fill:#000000;font-family:sans-serif;font-feature-settings:normal;font-size:16px;font-variant-caps:normal;font-variant-ligatures:normal;font-variant-numeric:normal;stroke-width:1.1643;text-align:center;text-anchor:middle">6</tspan></text><text x="452.53436" y="11.964892" style="fill:#000000;font-family:sans-serif;font-feature-settings:normal;font-size:16px;font-variant-caps:normal;font-variant-ligatures:normal;font-variant-numeric:normal;letter-spacing:0px;line-height:1.25;stroke-width:1.1643;text-align:center;text-anchor:middle;word-spacing:0px" xml:space="preserve"><tspan x="452.53436" y="11.964892" style="fill:#000000;font-family:sans-serif;font-feature-settings:normal;font-size:16px;font-variant-caps:normal;font-variant-ligatures:normal;font-variant-numeric:normal;stroke-width:1.1643;text-align:center;text-anchor:middle">5</tspan></text><text x="372.53439" y="161.96489" style="fill:#000000;font-family:sans-serif;font-feature-settings:normal;font-size:16px;font-variant-caps:normal;font-variant-ligatures:normal;font-variant-numeric:normal;letter-spacing:0px;line-height:1.25;stroke-width:1.1643;text-align:center;text-anchor:middle;word-spacing:0px" xml:space="preserve"><tspan x="372.53439" y="161.96489" style="fill:#000000;font-family:sans-serif;font-feature-settings:normal;font-size:16px;font-variant-caps:normal;font-variant-ligatures:normal;font-variant-numeric:normal;stroke-width:1.1643;text-align:center;text-anchor:middle">0</tspan></text><text x="452.53436" y="161.96489" style="fill:#000000;font-family:sans-serif;font-feature-settings:normal;font-size:16px;font-variant-caps:normal;font-variant-ligatures:normal;font-variant-numeric:normal;letter-spacing:0px;line-height:1.25;stroke-width:1.1643;text-align:center;text-anchor:middle;word-spacing:0px" xml:space="preserve"><tspan x="452.53436" y="161.96489" style="fill:#000000;font-family:sans-serif;font-feature-settings:normal;font-size:16px;font-variant-caps:normal;font-variant-ligatures:normal;font-variant-numeric:normal;stroke-width:1.1643;text-align:center;text-anchor:middle">4</tspan></text><text x="332.53439" y="71.96489" style="fill:#000000;font-family:sans-serif;font-feature-settings:normal;font-size:16px;font-variant-caps:normal;font-variant-ligatures:normal;font-variant-numeric:normal;letter-spacing:0px;line-height:1.25;stroke-width:1.1643;text-align:center;text-anchor:middle;word-spacing:0px" xml:space="preserve"><tspan x="332.53439" y="71.96489" style="fill:#000000;font-family:sans-serif;font-feature-settings:normal;font-size:16px;font-variant-caps:normal;font-variant-ligatures:normal;font-variant-numeric:normal;stroke-width:1.1643;text-align:center;text-anchor:middle">1</tspan></text><text x="412.53439" y="221.96487" style="fill:#000000;font-family:sans-serif;font-feature-settings:normal;font-size:16px;font-variant-caps:normal;font-variant-ligatures:normal;font-variant-numeric:normal;letter-spacing:0px;line-height:1.25;stroke-width:1.1643;text-align:center;text-anchor:middle;word-spacing:0px" xml:space="preserve"><tspan x="412.53439" y="221.96487" style="fill:#000000;font-family:sans-serif;font-feature-settings:normal;font-size:16px;font-variant-caps:normal;font-variant-ligatures:normal;font-variant-numeric:normal;stroke-width:1.1643;text-align:center;text-anchor:middle">3</tspan></text><g transform="translate(150 -10)"><path d="m277.53-133.04 20 30" style="fill:none;marker-start:url(#pt_triangle_strip_with_adjacencyr);stroke-width:1px;stroke:#000"/><path d="m307.53-103.04 20-30" style="fill:none;marker-start:url(#pt_triangle_strip_with_adjacencyah);stroke-width:1px;stroke:#000"/><path d="m327.53-143.04h-50" style="fill:none;marker-start:url(#pt_triangle_strip_with_adjacencyh);stroke-width:1px;stroke:#000"/></g><g transform="translate(-170 230)"><path d="m277.53-133.04 20 30" style="fill:none;marker-start:url(#pt_triangle_strip_with_adjacencyq);stroke-width:1px;stroke:#000"/><path d="m307.53-103.04 20-30" style="fill:none;marker-start:url(#pt_triangle_strip_with_adjacencyae);stroke-width:1px;stroke:#000"/><path d="m327.53-143.04h-50" style="fill:none;marker-start:url(#pt_triangle_strip_with_adjacencyb);stroke-width:1px;stroke:#000"/></g><g transform="translate(150 230)"><path d="m277.53-133.04 20 30" style="fill:none;marker-start:url(#pt_triangle_strip_with_adjacencyp);stroke-width:1px;stroke:#000"/><path d="m307.53-103.04 20-30" style="fill:none;marker-start:url(#pt_triangle_strip_with_adjacencyaf);stroke-width:1px;stroke:#000"/><path d="m327.53-143.04h-50" style="fill:none;marker-start:url(#pt_triangle_strip_with_adjacencyd);stroke-width:1px;stroke:#000"/></g><g transform="translate(230 230)"><path d="m277.53-133.04 20 30" style="fill:none;marker-start:url(#pt_triangle_strip_with_adjacencyo);stroke-width:1px;stroke:#000"/><path d="m307.53-103.04 20-30" style="fill:none;marker-start:url(#pt_triangle_strip_with_adjacencyag);stroke-width:1px;stroke:#000"/><path d="m327.53-143.04h-50" style="fill:none;marker-start:url(#pt_triangle_strip_with_adjacencyc);stroke-width:1px;stroke:#000"/></g><path d="m67.534-113.04 20-30" style="fill:none;marker-end:url(#pt_triangle_strip_with_adjacencyx);stroke-width:1px;stroke:#000"/><path d="m97.534-143.04 20 30" style="fill:none;marker-end:url(#pt_triangle_strip_with_adjacencyad);stroke-width:1px;stroke:#000"/><path d="m117.53-103.04h-50" style="fill:none;marker-end:url(#pt_triangle_strip_with_adjacencyan);stroke-width:1px;stroke:#000"/><g transform="translate(320)"><path d="m67.534-113.04 20-30" style="fill:none;marker-end:url(#pt_triangle_strip_with_adjacencys);stroke-width:1px;stroke:#000"/><path d="m97.534-143.04 20 30" style="fill:none;marker-end:url(#pt_triangle_strip_with_adjacencyy);stroke-width:1px;stroke:#000"/><path d="m117.53-103.04h-50" style="fill:none;marker-end:url(#pt_triangle_strip_with_adjacencyal);stroke-width:1px;stroke:#000"/></g><g transform="translate(1e-7 240)"><path d="m67.534-113.04 20-30" style="fill:none;marker-end:url(#pt_triangle_strip_with_adjacencyu);stroke-width:1px;stroke:#000"/><path d="m97.534-143.04 20 30" style="fill:none;marker-end:url(#pt_triangle_strip_with_adjacencyac);stroke-width:1px;stroke:#000"/><path d="m117.53-103.04h-50" style="fill:none;marker-end:url(#pt_triangle_strip_with_adjacencyak);stroke-width:1px;stroke:#000"/></g><g transform="translate(80 240)"><path d="m67.534-113.04 20-30" style="fill:none;marker-end:url(#pt_triangle_strip_with_adjacencyw);stroke-width:1px;stroke:#000"/><path d="m97.534-143.04 20 30" style="fill:none;marker-end:url(#pt_triangle_strip_with_adjacencyab);stroke-width:1px;stroke:#000"/><path d="m117.53-103.04h-50" style="fill:none;marker-end:url(#pt_triangle_strip_with_adjacencyaj);stroke-width:1px;stroke:#000"/></g><g transform="translate(320 240)"><path d="m67.534-113.04 20-30" style="fill:none;marker-end:url(#pt_triangle_strip_with_adjacencyv);stroke-width:1px;stroke:#000"/><path d="m97.534-143.04 20 30" style="fill:none;marker-end:url(#pt_triangle_strip_with_adjacencyaa);stroke-width:1px;stroke:#000"/><path d="m117.53-103.04h-50" style="fill:none;marker-end:url(#pt_triangle_strip_with_adjacencyai);stroke-width:1px;stroke:#000"/></g><g transform="translate(400 240)"><path d="m67.534-113.04 20-30" style="fill:none;marker-end:url(#pt_triangle_strip_with_adjacencyt);stroke-width:1px;stroke:#000"/><path d="m97.534-143.04 20 30" style="fill:none;marker-end:url(#pt_triangle_strip_with_adjacencyz);stroke-width:1px;stroke:#000"/><path d="m117.53-103.04h-50" style="fill:none;marker-end:url(#pt_triangle_strip_with_adjacencyam);stroke-width:1px;stroke:#000"/></g><circle cx="412.53" cy="-158.04" r="3.4909" style="fill:#f00"/><circle cx="372.53" cy="-98.035" r="3.4909" style="fill:#f00"/><path d="m461.55-158.04h-50" style="fill:#f00;marker-start:url(#pt_triangle_strip_with_adjacencya);stroke-width:1px;stroke:#fe0000"/><path d="m392.2-127.35-20 30" style="fill:none;marker-start:url(#pt_triangle_strip_with_adjacencyl);stroke-width:1px;stroke:#fb0000"/><circle cx="52.534" cy="-98.035" r="3.4909" style="fill:#f00"/><path d="m72.196-127.35-20 30" style="fill:none;marker-start:url(#pt_triangle_strip_with_adjacencyi);stroke-width:1px;stroke:#fb0000"/><g transform="translate(-215,280)"><path d="m287.2-167.35-20 30" style="fill:none;marker-start:url(#pt_triangle_strip_with_adjacencyn);stroke-width:1px;stroke:#fb0000"/><circle cx="267.53" cy="-138.04" r="3.4909" style="fill:#f00"/></g><g transform="translate(-135,280)"><path d="m287.2-167.35-20 30" style="fill:none;marker-start:url(#pt_triangle_strip_with_adjacencyk);stroke-width:1px;stroke:#fb0000"/><circle cx="267.53" cy="-138.04" r="3.4909" style="fill:#f00"/></g><g transform="translate(105,280)"><path d="m287.2-167.35-20 30" style="fill:none;marker-start:url(#pt_triangle_strip_with_adjacencyj);stroke-width:1px;stroke:#fb0000"/><circle cx="267.53" cy="-138.04" r="3.4909" style="fill:#f00"/></g><g transform="translate(185,280)"><path d="m287.2-167.35-20 30" style="fill:none;marker-start:url(#pt_triangle_strip_with_adjacencym);stroke-width:1px;stroke:#fb0000"/><circle cx="267.53" cy="-138.04" r="3.4909" style="fill:#f00"/></g><g transform="translate(-145,295)"><path d="m287.53-213.04h-50" style="fill:none;marker-start:url(#pt_triangle_strip_with_adjacencyg);stroke-width:1px;stroke:#fb0000"/><circle cx="237.53" cy="-213.04" r="3.4909" style="fill:#f00"/></g><g transform="translate(175,295)"><path d="m287.53-213.04h-50" style="fill:none;marker-start:url(#pt_triangle_strip_with_adjacencye);stroke-width:1px;stroke:#fb0000"/><circle cx="237.53" cy="-213.04" r="3.4909" style="fill:#f00"/></g><g transform="translate(255,295)"><path d="m287.53-213.04h-50" style="fill:none;marker-start:url(#pt_triangle_strip_with_adjacencyf);stroke-width:1px;stroke:#fb0000"/><circle cx="237.53" cy="-213.04" r="3.4909" style="fill:#f00"/></g><circle cx="172.53" cy="81.965" r="3.4909"/></g></svg>
