<svg width="170.23" height="104.1" version="1.1" viewBox="0 0 170.23 104.1" xmlns="http://www.w3.org/2000/svg"><defs><marker id="pt_triangle_stripg" style="overflow:visible" orient="auto"><path transform="matrix(-.4 0 0 -.4 -4 0)" d="m0 0 5-5-17.5 5 17.5 5z" style="fill-rule:evenodd;stroke-width:1pt;stroke:#000"/></marker><marker id="pt_triangle_stripi" style="overflow:visible" orient="auto"><path transform="matrix(-.4 0 0 -.4 -4 0)" d="m0 0 5-5-17.5 5 17.5 5z" style="fill-rule:evenodd;stroke-width:1pt;stroke:#000"/></marker><marker id="pt_triangle_stripl" style="overflow:visible" orient="auto"><path transform="matrix(-.4 0 0 -.4 -4 0)" d="m0 0 5-5-17.5 5 17.5 5z" style="fill-rule:evenodd;stroke-width:1pt;stroke:#000"/></marker><marker id="pt_triangle_stripf" style="overflow:visible" orient="auto"><path transform="matrix(-.4 0 0 -.4 -4 0)" d="m0 0 5-5-17.5 5 17.5 5z" style="fill-rule:evenodd;stroke-width:1pt;stroke:#000"/></marker><marker id="pt_triangle_striph" style="overflow:visible" orient="auto"><path transform="matrix(-.4 0 0 -.4 -4 0)" d="m0 0 5-5-17.5 5 17.5 5z" style="fill-rule:evenodd;stroke-width:1pt;stroke:#000"/></marker><marker id="pt_triangle_stripk" style="overflow:visible" orient="auto"><path transform="matrix(-.4 0 0 -.4 -4 0)" d="m0 0 5-5-17.5 5 17.5 5z" style="fill-rule:evenodd;stroke-width:1pt;stroke:#000"/></marker><marker id="pt_triangle_stripe" style="overflow:visible" orient="auto"><path transform="matrix(.4 0 0 .4 4 0)" d="m0 0 5-5-17.5 5 17.5 5z" style="fill-rule:evenodd;stroke-width:1pt;stroke:#000"/></marker><marker id="pt_triangle_stripj" style="overflow:visible" orient="auto"><path transform="matrix(.4 0 0 .4 4 0)" d="m0 0 5-5-17.5 5 17.5 5z" style="fill-rule:evenodd;stroke-width:1pt;stroke:#000"/></marker><marker id="pt_triangle_stripb" style="overflow:visible" orient="auto"><path transform="matrix(.4 0 0 .4 4 0)" d="m0 0 5-5-17.5 5 17.5 5z" style="fill-rule:evenodd;stroke-width:1pt;stroke:#000"/></marker><marker id="pt_triangle_stripd" style="overflow:visible" orient="auto"><path transform="matrix(.4 0 0 .4 4 0)" d="m0 0 5-5-17.5 5 17.5 5z" style="fill-rule:evenodd;fill:#fb0000;stroke-width:1pt;stroke:#fb0000"/></marker><marker id="pt_triangle_stripc" style="overflow:visible" orient="auto"><path transform="matrix(.4 0 0 .4 4 0)" d="m0 0 5-5-17.5 5 17.5 5z" style="fill-rule:evenodd;fill:#fb0000;stroke-width:1pt;stroke:#fb0000"/></marker><marker id="pt_triangle_stripa" style="overflow:visible" orient="auto"><path transform="matrix(.4 0 0 .4 4 0)" d="m0 0 5-5-17.5 5 17.5 5z" style="fill-rule:evenodd;fill:#fb0000;stroke-width:1pt;stroke:#fb0000"/></marker></defs><g transform="translate(-7.4953 180.91)"><text x="12.534393" y="-78.03511" style="fill:#000000;font-family:sans-serif;font-feature-settings:normal;font-size:16px;font-variant-caps:normal;font-variant-ligatures:normal;font-variant-numeric:normal;letter-spacing:0px;line-height:1.25;stroke-width:1.1643;text-align:center;text-anchor:middle;word-spacing:0px" xml:space="preserve"><tspan x="12.534393" y="-78.03511" style="fill:#000000;font-family:sans-serif;font-feature-settings:normal;font-size:16px;font-variant-caps:normal;font-variant-ligatures:normal;font-variant-numeric:normal;stroke-width:1.1643;text-align:center;text-anchor:middle">0</tspan></text><text x="172.53439" y="-78.035103" style="fill:#000000;font-family:sans-serif;font-feature-settings:normal;font-size:16px;font-variant-caps:normal;font-variant-ligatures:normal;font-variant-numeric:normal;letter-spacing:0px;line-height:1.25;stroke-width:1.1643;text-align:center;text-anchor:middle;word-spacing:0px" xml:space="preserve"><tspan x="172.53439" y="-78.035103" style="fill:#000000;font-family:sans-serif;font-feature-settings:normal;font-size:16px;font-variant-caps:normal;font-variant-ligatures:normal;font-variant-numeric:normal;stroke-width:1.1643;text-align:center;text-anchor:middle">4</tspan></text><text x="92.534393" y="-78.035103" style="fill:#000000;font-family:sans-serif;font-feature-settings:normal;font-size:16px;font-variant-caps:normal;font-variant-ligatures:normal;font-variant-numeric:normal;letter-spacing:0px;line-height:1.25;stroke-width:1.1643;text-align:center;text-anchor:middle;word-spacing:0px" xml:space="preserve"><tspan x="92.534393" y="-78.035103" style="fill:#000000;font-family:sans-serif;font-feature-settings:normal;font-size:16px;font-variant-caps:normal;font-variant-ligatures:normal;font-variant-numeric:normal;stroke-width:1.1643;text-align:center;text-anchor:middle">2</tspan></text><text x="52.534393" y="-168.0351" style="fill:#000000;font-family:sans-serif;font-feature-settings:normal;font-size:16px;font-variant-caps:normal;font-variant-ligatures:normal;font-variant-numeric:normal;letter-spacing:0px;line-height:1.25;stroke-width:1.1643;text-align:center;text-anchor:middle;word-spacing:0px" xml:space="preserve"><tspan x="52.534393" y="-168.0351" style="fill:#000000;font-family:sans-serif;font-feature-settings:normal;font-size:16px;font-variant-caps:normal;font-variant-ligatures:normal;font-variant-numeric:normal;stroke-width:1.1643;text-align:center;text-anchor:middle">1</tspan></text><text x="132.53439" y="-168.03511" style="fill:#000000;font-family:sans-serif;font-feature-settings:normal;font-size:16px;font-variant-caps:normal;font-variant-ligatures:normal;font-variant-numeric:normal;letter-spacing:0px;line-height:1.25;stroke-width:1.1643;text-align:center;text-anchor:middle;word-spacing:0px" xml:space="preserve"><tspan x="132.53439" y="-168.03511" style="fill:#000000;font-family:sans-serif;font-feature-settings:normal;font-size:16px;font-variant-caps:normal;font-variant-ligatures:normal;font-variant-numeric:normal;stroke-width:1.1643;text-align:center;text-anchor:middle">3</tspan></text><circle cx="172.53" cy="-98.035" r="3.4909"/><circle cx="132.53" cy="-158.04" r="3.4909"/><path d="m12.534-98.035 40-60h80l40 60zm40-60 40 60 40-60" style="fill:none;stroke-width:1px;stroke:#000"/><g transform="translate(-40)"><path d="m67.534-113.04 20-30" style="fill:none;marker-end:url(#pt_triangle_stripg);stroke-width:1px;stroke:#000"/><path d="m97.534-143.04 20 30" style="fill:none;marker-end:url(#pt_triangle_stripi);stroke-width:1px;stroke:#000"/><path d="m117.53-103.04h-50" style="fill:none;marker-end:url(#pt_triangle_stripl);stroke-width:1px;stroke:#000"/></g><g transform="translate(39.661 .68117)"><path d="m67.534-113.04 20-30" style="fill:none;marker-end:url(#pt_triangle_stripf);stroke-width:1px;stroke:#000"/><path d="m97.534-143.04 20 30" style="fill:none;marker-end:url(#pt_triangle_striph);stroke-width:1px;stroke:#000"/><path d="m117.53-103.04h-50" style="fill:none;marker-end:url(#pt_triangle_stripk);stroke-width:1px;stroke:#000"/></g><g transform="translate(-210 -10)"><path d="m277.53-133.04 20 30" style="fill:none;marker-start:url(#pt_triangle_stripe);stroke-width:1px;stroke:#000"/><path d="m307.53-103.04 20-30" style="fill:none;marker-start:url(#pt_triangle_stripj);stroke-width:1px;stroke:#000"/><path d="m327.53-143.04h-50" style="fill:none;marker-start:url(#pt_triangle_stripb);stroke-width:1px;stroke:#000"/></g><text x="572.53442" y="-168.03511" style="fill:#000000;font-family:sans-serif;font-size:40px;letter-spacing:0px;line-height:1.25;word-spacing:0px" xml:space="preserve"/><g transform="translate(-254.66 39.319)"><path d="m287.2-167.35-20 30" style="fill:none;marker-start:url(#pt_triangle_stripd);stroke-width:1px;stroke:#fb0000"/><circle cx="267.53" cy="-138.04" r="3.4909" style="fill:#f00"/></g><g transform="translate(-175 40)"><path d="m287.2-167.35-20 30" style="fill:none;marker-start:url(#pt_triangle_stripc);stroke-width:1px;stroke:#fb0000"/><circle cx="267.53" cy="-138.04" r="3.4909" style="fill:#f00"/></g><g transform="translate(-185 55)"><path d="m287.53-213.04h-50" style="fill:none;marker-start:url(#pt_triangle_stripa);stroke-width:1px;stroke:#fb0000"/><circle cx="237.53" cy="-213.04" r="3.4909" style="fill:#f00"/></g></g></svg>
