<svg width="210.23" height="104.1" version="1.1" viewBox="0 0 210.23 104.1" xmlns="http://www.w3.org/2000/svg"><defs><marker id="pt_triangle_liste" style="overflow:visible" orient="auto"><path transform="matrix(-.4 0 0 -.4 -4 0)" d="m0 0 5-5-17.5 5 17.5 5z" style="fill-rule:evenodd;stroke-width:1pt;stroke:#000"/></marker><marker id="pt_triangle_listf" style="overflow:visible" orient="auto"><path transform="matrix(-.4 0 0 -.4 -4 0)" d="m0 0 5-5-17.5 5 17.5 5z" style="fill-rule:evenodd;stroke-width:1pt;stroke:#000"/></marker><marker id="pt_triangle_listh" style="overflow:visible" orient="auto"><path transform="matrix(-.4 0 0 -.4 -4 0)" d="m0 0 5-5-17.5 5 17.5 5z" style="fill-rule:evenodd;stroke-width:1pt;stroke:#000"/></marker><marker id="pt_triangle_listd" style="overflow:visible" orient="auto"><path transform="matrix(.4 0 0 .4 4 0)" d="m0 0 5-5-17.5 5 17.5 5z" style="fill-rule:evenodd;stroke-width:1pt;stroke:#000"/></marker><marker id="pt_triangle_listg" style="overflow:visible" orient="auto"><path transform="matrix(.4 0 0 .4 4 0)" d="m0 0 5-5-17.5 5 17.5 5z" style="fill-rule:evenodd;stroke-width:1pt;stroke:#000"/></marker><marker id="pt_triangle_listb" style="overflow:visible" orient="auto"><path transform="matrix(.4 0 0 .4 4 0)" d="m0 0 5-5-17.5 5 17.5 5z" style="fill-rule:evenodd;stroke-width:1pt;stroke:#000"/></marker><marker id="pt_triangle_listc" style="overflow:visible" orient="auto"><path transform="matrix(.4 0 0 .4 4 0)" d="m0 0 5-5-17.5 5 17.5 5z" style="fill-rule:evenodd;fill:#fb0000;stroke-width:1pt;stroke:#fb0000"/></marker><marker id="pt_triangle_lista" style="overflow:visible" orient="auto"><path transform="matrix(.4 0 0 .4 4 0)" d="m0 0 5-5-17.5 5 17.5 5z" style="fill-rule:evenodd;fill:#fb0000;stroke-width:1pt;stroke:#fb0000"/></marker></defs><g transform="translate(-487.5 180.91)"><path d="m612.53-158.04 40 60 40-60z" style="fill:none;stroke-width:1px;stroke:#000"/><text x="572.53442" y="-78.035103" style="fill:#000000;font-family:sans-serif;font-feature-settings:normal;font-size:16px;font-variant-caps:normal;font-variant-ligatures:normal;font-variant-numeric:normal;letter-spacing:0px;line-height:1.25;stroke-width:1.1643;text-align:center;text-anchor:middle;word-spacing:0px" xml:space="preserve"><tspan x="572.53442" y="-78.035103" style="fill:#000000;font-family:sans-serif;font-feature-settings:normal;font-size:16px;font-variant-caps:normal;font-variant-ligatures:normal;font-variant-numeric:normal;stroke-width:1.1643;text-align:center;text-anchor:middle">2</tspan></text><text x="532.53436" y="-168.03508" style="fill:#000000;font-family:sans-serif;font-feature-settings:normal;font-size:16px;font-variant-caps:normal;font-variant-ligatures:normal;font-variant-numeric:normal;letter-spacing:0px;line-height:1.25;stroke-width:1.1643;text-align:center;text-anchor:middle;word-spacing:0px" xml:space="preserve"><tspan x="532.53436" y="-168.03508" style="fill:#000000;font-family:sans-serif;font-feature-settings:normal;font-size:16px;font-variant-caps:normal;font-variant-ligatures:normal;font-variant-numeric:normal;stroke-width:1.1643;text-align:center;text-anchor:middle">1</tspan></text><text x="492.53439" y="-78.035103" style="fill:#000000;font-family:sans-serif;font-feature-settings:normal;font-size:16px;font-variant-caps:normal;font-variant-ligatures:normal;font-variant-numeric:normal;letter-spacing:0px;line-height:1.25;stroke-width:1.1643;text-align:center;text-anchor:middle;word-spacing:0px" xml:space="preserve"><tspan x="492.53439" y="-78.035103" style="fill:#000000;font-family:sans-serif;font-feature-settings:normal;font-size:16px;font-variant-caps:normal;font-variant-ligatures:normal;font-variant-numeric:normal;stroke-width:1.1643;text-align:center;text-anchor:middle">0</tspan></text><circle cx="532.53" cy="-158.04" r="3.4909"/><circle cx="572.53" cy="-98.035" r="3.4909"/><g transform="translate(440 2.148e-5)"><path d="m67.534-113.04 20-30" style="fill:none;marker-end:url(#pt_triangle_liste);stroke-width:1px;stroke:#000"/><path d="m97.534-143.04 20 30" style="fill:none;marker-end:url(#pt_triangle_listf);stroke-width:1px;stroke:#000"/><path d="m117.53-103.04h-50" style="fill:none;marker-end:url(#pt_triangle_listh);stroke-width:1px;stroke:#000"/></g><text x="612.53442" y="-168.0351" style="fill:#000000;font-family:sans-serif;font-feature-settings:normal;font-size:16px;font-variant-caps:normal;font-variant-ligatures:normal;font-variant-numeric:normal;letter-spacing:0px;line-height:1.25;stroke-width:1.1643;text-align:center;text-anchor:middle;word-spacing:0px" xml:space="preserve"><tspan x="612.53442" y="-168.0351" style="fill:#000000;font-family:sans-serif;font-feature-settings:normal;font-size:16px;font-variant-caps:normal;font-variant-ligatures:normal;font-variant-numeric:normal;stroke-width:1.1643;text-align:center;text-anchor:middle">3</tspan></text><text x="652.53442" y="-78.035103" style="fill:#000000;font-family:sans-serif;font-feature-settings:normal;font-size:16px;font-variant-caps:normal;font-variant-ligatures:normal;font-variant-numeric:normal;letter-spacing:0px;line-height:1.25;stroke-width:1.1643;text-align:center;text-anchor:middle;word-spacing:0px" xml:space="preserve"><tspan x="652.53442" y="-78.035103" style="fill:#000000;font-family:sans-serif;font-feature-settings:normal;font-size:16px;font-variant-caps:normal;font-variant-ligatures:normal;font-variant-numeric:normal;stroke-width:1.1643;text-align:center;text-anchor:middle">5</tspan></text><text x="692.53442" y="-168.0351" style="fill:#000000;font-family:sans-serif;font-feature-settings:normal;font-size:16px;font-variant-caps:normal;font-variant-ligatures:normal;font-variant-numeric:normal;letter-spacing:0px;line-height:1.25;stroke-width:1.1643;text-align:center;text-anchor:middle;word-spacing:0px" xml:space="preserve"><tspan x="692.53442" y="-168.0351" style="fill:#000000;font-family:sans-serif;font-feature-settings:normal;font-size:16px;font-variant-caps:normal;font-variant-ligatures:normal;font-variant-numeric:normal;stroke-width:1.1643;text-align:center;text-anchor:middle">4</tspan></text><circle cx="652.53" cy="-98.035" r="3.4909"/><circle cx="692.53" cy="-158.04" r="3.4909"/><text x="572.53442" y="-168.03511" style="fill:#000000;font-family:sans-serif;font-size:40px;letter-spacing:0px;line-height:1.25;word-spacing:0px" xml:space="preserve"/><path d="m492.53-98.035 40-60 40 60z" style="fill:none;stroke-width:1px;stroke:#000"/><g transform="translate(350 -10)"><path d="m277.53-133.04 20 30" style="fill:none;marker-start:url(#pt_triangle_listd);stroke-width:1px;stroke:#000"/><path d="m307.53-103.04 20-30" style="fill:none;marker-start:url(#pt_triangle_listg);stroke-width:1px;stroke:#000"/><path d="m327.53-143.04h-50" style="fill:none;marker-start:url(#pt_triangle_listb);stroke-width:1px;stroke:#000"/></g><g transform="translate(225.34 39.319)"><path d="m287.2-167.35-20 30" style="fill:none;marker-start:url(#pt_triangle_listc);stroke-width:1px;stroke:#fb0000"/><circle cx="267.53" cy="-138.04" r="3.4909" style="fill:#f00"/></g><g transform="translate(375 55)"><path d="m287.53-213.04h-50" style="fill:none;marker-start:url(#pt_triangle_lista);stroke-width:1px;stroke:#fb0000"/><circle cx="237.53" cy="-213.04" r="3.4909" style="fill:#f00"/></g></g></svg>
