<svg width="454.53" height="183.8" version="1.1" viewBox="0 0 454.53 183.8" xmlns="http://www.w3.org/2000/svg"><defs><marker id="ray_tracing_executiong" style="overflow:visible" orient="auto"><path transform="matrix(-.4 0 0 -.4 -4 0)" d="m0 0 5-5-17.5 5 17.5 5z" style="fill-rule:evenodd;stroke-width:1pt;stroke:#000"/></marker><marker id="ray_tracing_executionf" style="overflow:visible" orient="auto"><path transform="matrix(-.4 0 0 -.4 -4 0)" d="m0 0 5-5-17.5 5 17.5 5z" style="fill-rule:evenodd;stroke-width:1pt;stroke:#000"/></marker><marker id="ray_tracing_executionc" style="overflow:visible" orient="auto"><path transform="matrix(-.4 0 0 -.4 -4 0)" d="m0 0 5-5-17.5 5 17.5 5z" style="fill-rule:evenodd;stroke-width:1pt;stroke:#000"/></marker><marker id="ray_tracing_executionb" style="overflow:visible" orient="auto"><path transform="matrix(-.4 0 0 -.4 -4 0)" d="m0 0 5-5-17.5 5 17.5 5z" style="fill-rule:evenodd;stroke-width:1pt;stroke:#000"/></marker><marker id="ray_tracing_executiona" style="overflow:visible" orient="auto"><path transform="matrix(-.4 0 0 -.4 -4 0)" d="m0 0 5-5-17.5 5 17.5 5z" style="fill-rule:evenodd;stroke-width:1pt;stroke:#000"/></marker><marker id="ray_tracing_executiond" style="overflow:visible" orient="auto"><path transform="matrix(-.4 0 0 -.4 -4 0)" d="m0 0 5-5-17.5 5 17.5 5z" style="fill-rule:evenodd;stroke-width:1pt;stroke:#000"/></marker><marker id="ray_tracing_executione" style="overflow:visible" orient="auto"><path transform="matrix(-.4 0 0 -.4 -4 0)" d="m0 0 5-5-17.5 5 17.5 5z" style="fill-rule:evenodd;stroke-width:1pt;stroke:#000"/></marker></defs><g transform="translate(-35.742 209.97)"><g transform="translate(76.761 177.12)"><rect x="196.64" y="-385.63" width="98.35" height="47.549" style="fill:#fff;stroke-width:.92372;stroke:#f00"/><text x="246.41849" y="-357.55588" style="fill:#000000;font-family:sans-serif;font-feature-settings:normal;font-size:13.333px;font-variant-caps:normal;font-variant-ligatures:normal;font-variant-numeric:normal;letter-spacing:0px;line-height:1.25;stroke-width:1.27;text-align:center;text-anchor:middle;word-spacing:0px" xml:space="preserve"><tspan x="246.41849" y="-357.55588">Any Hit</tspan></text></g><g transform="translate(-36.359 -133.8)"><rect x="191.76" y="-74.711" width="98.35" height="47.549" style="fill:#fff;stroke-width:.92372;stroke:#f00"/><text x="241.06639" y="-46.1577" style="fill:#000000;font-family:sans-serif;font-feature-settings:normal;font-size:13.333px;font-variant-caps:normal;font-variant-ligatures:normal;font-variant-numeric:normal;letter-spacing:0px;line-height:1.25;stroke-width:1.27;text-align:center;text-anchor:middle;word-spacing:0px" xml:space="preserve"><tspan x="241.06639" y="-46.1577">Intersection</tspan></text></g><text x="438.78833" y="-113.86218" style="fill:#000000;font-family:sans-serif;font-feature-settings:normal;font-size:13.333px;font-variant-caps:normal;font-variant-ligatures:normal;font-variant-numeric:normal;letter-spacing:0px;line-height:1.25;stroke-width:1.27;text-align:center;text-anchor:middle;word-spacing:0px" xml:space="preserve"><tspan x="438.78833" y="-113.86218">Hit?</tspan></text><g transform="translate(-211.72 -23.523)"><rect x="600.11" y="-184.81" width="98.35" height="47.549" style="fill:#fff;stroke-width:.92372;stroke:#f00"/><text x="649.0517" y="-156.07088" style="fill:#000000;font-family:sans-serif;font-feature-settings:normal;font-size:13.333px;font-variant-caps:normal;font-variant-ligatures:normal;font-variant-numeric:normal;letter-spacing:0px;line-height:1.25;stroke-width:1.27;text-align:center;text-anchor:middle;word-spacing:0px" xml:space="preserve"><tspan x="649.0517" y="-156.07088">Closest Hit</tspan></text></g><g transform="translate(196.84 -.47056)"><rect x="191.76" y="-74.711" width="98.35" height="47.549" style="fill:#fff;stroke-width:.92372;stroke:#f00"/><text x="240.56183" y="-46.144676" style="fill:#000000;font-family:sans-serif;font-feature-settings:normal;font-size:13.333px;font-variant-caps:normal;font-variant-ligatures:normal;font-variant-numeric:normal;letter-spacing:0px;line-height:1.25;stroke-width:1.27;text-align:center;text-anchor:middle;word-spacing:0px" xml:space="preserve"><tspan x="240.56183" y="-46.144676">Miss</tspan></text></g><path d="m439.08-95.453v17.927" style="fill:none;marker-end:url(#ray_tracing_executiong);stroke:#000"/><rect transform="matrix(.90286 -.42994 .90286 .42994 0 0)" x="354.17" y="78.002" width="54.152" height="54.152" style="fill:none;stroke-width:1.4485;stroke:#000"/><path d="m439.08-142.02v-16.384" style="fill:none;marker-end:url(#ray_tracing_executionf);stroke:#000"/><text x="431.07803" y="-145.3622" style="fill:#000000;font-family:sans-serif;font-feature-settings:normal;font-size:13.333px;font-variant-caps:normal;font-variant-ligatures:normal;font-variant-numeric:normal;letter-spacing:0px;line-height:1.25;stroke-width:1.27;text-align:center;text-anchor:middle;word-spacing:0px" xml:space="preserve"><tspan x="431.07803" y="-145.3622">Y</tspan></text><text x="431.065" y="-82.515198" style="fill:#000000;font-family:sans-serif;font-feature-settings:normal;font-size:13.333px;font-variant-caps:normal;font-variant-ligatures:normal;font-variant-numeric:normal;letter-spacing:0px;line-height:1.25;stroke-width:1.27;text-align:center;text-anchor:middle;word-spacing:0px" xml:space="preserve"><tspan x="431.065" y="-82.515198">N</tspan></text><g transform="translate(-277.44 -72.408)"><rect x="314.64" y="-70.144" width="98.35" height="47.549" style="fill:#fff;stroke-width:.92372;stroke:#f00"/><text x="364.42123" y="-50.072266" style="fill:#000000;font-family:sans-serif;font-feature-settings:normal;font-size:13.333px;font-variant-caps:normal;font-variant-ligatures:normal;font-variant-numeric:normal;letter-spacing:0px;line-height:1.25;stroke-width:1.27;text-align:center;text-anchor:middle;word-spacing:0px" xml:space="preserve"><tspan x="364.42123" y="-50.072266">Ray</tspan><tspan x="364.42123" y="-33.40564">Generation</tspan></text></g><rect x="155.4" y="-142.51" width="215.35" height="47.549" style="fill:#fff;stroke-width:.92372;stroke:#000"/><text x="263.56888" y="-130.43739" style="fill:#000000;font-family:sans-serif;font-feature-settings:normal;font-size:13.333px;font-variant-caps:normal;font-variant-ligatures:normal;font-variant-numeric:normal;letter-spacing:0px;line-height:1.25;stroke-width:1.27;text-align:center;text-anchor:middle;word-spacing:0px" xml:space="preserve"><tspan x="263.56888" y="-130.43739">Acceleration</tspan><tspan x="263.56888" y="-113.77077">Structure</tspan><tspan x="263.56888" y="-97.104141">Traversal</tspan></text><path d="m135.83-118.73h17.927" style="fill:none;marker-end:url(#ray_tracing_executionc);stroke:#000"/><path d="m370.26-118.74h17.927" style="fill:none;marker-end:url(#ray_tracing_executionb);stroke:#000"/><path d="m254.13-184.73h17.927" style="fill:none;marker-end:url(#ray_tracing_executiona);stroke:#000"/><path d="m323.18-161.4v17.927" style="fill:none;marker-end:url(#ray_tracing_executiond);stroke:#000"/><path d="m204.71-142.78v-16.384" style="fill:none;marker-end:url(#ray_tracing_executione);stroke:#000"/></g></svg>
