<svg width="160" height="160" version="1.1" viewBox="-500 -500 11000 11000" xmlns="http://www.w3.org/2000/svg"><desc>VK_SAMPLE_COUNT_16_BIT</desc><defs><marker id="sample_count_16a" markerHeight="8" markerWidth="8" orient="auto" refY="5" viewBox="0 0 10 10"><path d="m0 0 10 5-10 5z"/></marker></defs><g stroke="#000"><line x2="1e4" marker-end="url(#sample_count_16a)" stroke-width="50"/><line y2="1e4" marker-end="url(#sample_count_16a)" stroke-width="50"/><g stroke-dasharray="00100" stroke-width="10"><line x2="1e4" y1="1e4" y2="1e4"/><line x1="1e4" x2="1e4" y2="1e4"/><line x2="1e4"/><line x2="1e4" y1="625" y2="625"/><line x2="1e4" y1="1250" y2="1250"/><line x2="1e4" y1="1875" y2="1875"/><line x2="1e4" y1="2500" y2="2500"/><line x2="1e4" y1="3125" y2="3125"/><line x2="1e4" y1="3750" y2="3750"/><line x2="1e4" y1="4375" y2="4375"/><line x2="1e4" y1="5e3" y2="5e3"/><line x2="1e4" y1="5625" y2="5625"/><line x2="1e4" y1="6250" y2="6250"/><line x2="1e4" y1="6875" y2="6875"/><line x2="1e4" y1="7500" y2="7500"/><line x2="1e4" y1="8125" y2="8125"/><line x2="1e4" y1="8750" y2="8750"/><line x2="1e4" y1="9375" y2="9375"/><line y2="1e4"/><line x1="625" x2="625" y2="1e4"/><line x1="1250" x2="1250" y2="1e4"/><line x1="1875" x2="1875" y2="1e4"/><line x1="2500" x2="2500" y2="1e4"/><line x1="3125" x2="3125" y2="1e4"/><line x1="3750" x2="3750" y2="1e4"/><line x1="4375" x2="4375" y2="1e4"/><line x1="5e3" x2="5e3" y2="1e4"/><line x1="5625" x2="5625" y2="1e4"/><line x1="6250" x2="6250" y2="1e4"/><line x1="6875" x2="6875" y2="1e4"/><line x1="7500" x2="7500" y2="1e4"/><line x1="8125" x2="8125" y2="1e4"/><line x1="8750" x2="8750" y2="1e4"/><line x1="9375" x2="9375" y2="1e4"/></g></g><circle cx="5625" cy="5625" r="200"/><text transform="translate(200 -200)" x="05625" y="05625" fill="red" font-size="1100">0</text><circle cx="4375" cy="3125" r="200"/><text transform="translate(200 -200)" x="04375" y="03125" fill="red" font-size="1100">1</text><circle cx="3125" cy="6250" r="200"/><text transform="translate(200 -200)" x="03125" y="06250" fill="red" font-size="1100">2</text><circle cx="7500" cy="4375" r="200"/><text transform="translate(200 -200)" x="07500" y="04375" fill="red" font-size="1100">3</text><circle cx="1875" cy="3750" r="200"/><text transform="translate(200 -200)" x="01875" y="03750" fill="red" font-size="1100">4</text><circle cx="6250" cy="8125" r="200"/><text transform="translate(200 -200)" x="06250" y="08125" fill="red" font-size="1100">5</text><circle cx="8125" cy="6875" r="200"/><text transform="translate(200 -200)" x="08125" y="06875" fill="red" font-size="1100">6</text><circle cx="6875" cy="1875" r="200"/><text transform="translate(200 -200)" x="06875" y="01875" fill="red" font-size="1100">7</text><circle cx="3750" cy="8750" r="200"/><text transform="translate(200 -200)" x="03750" y="08750" fill="red" font-size="1100">8</text><circle cx="5e3" cy="625" r="200"/><text transform="translate(300 400)" x="05000" y="00625" fill="red" font-size="1100">9</text><circle cx="2500" cy="1250" r="200"/><text transform="translate(200 -200)" x="02500" y="01250" fill="red" font-size="1100">10</text><circle cx="1250" cy="7500" r="200"/><text transform="translate(-1e3 1100)" x="01250" y="07500" fill="red" font-size="1100">11</text><circle cy="5e3" r="200"/><text transform="translate(200 1e3)" y="05000" fill="red" font-size="1100">12</text><circle cx="9375" cy="2500" r="200"/><text transform="translate(-500 -400)" x="09375" y="02500" fill="red" font-size="1100">13</text><circle cx="8750" cy="9375" r="200"/><text transform="translate(200 -200)" x="08750" y="09375" fill="red" font-size="1100">14</text><circle cx="625" r="200"/><text transform="translate(-500 1100)" x="00625" fill="red" font-size="1100">15</text></svg>
