<svg width="160" height="160" version="1.1" viewBox="-500 -500 11000 11000" xmlns="http://www.w3.org/2000/svg"><desc>VK_SAMPLE_COUNT_8_BIT</desc><defs><marker id="sample_count_8a" markerHeight="8" markerWidth="8" orient="auto" refY="5" viewBox="0 0 10 10"><path d="m0 0 10 5-10 5z"/></marker></defs><g stroke="#000"><line x2="1e4" marker-end="url(#sample_count_8a)" stroke-width="50"/><line y2="1e4" marker-end="url(#sample_count_8a)" stroke-width="50"/><g stroke-dasharray="00100" stroke-width="10"><line x2="1e4" y1="1e4" y2="1e4"/><line x1="1e4" x2="1e4" y2="1e4"/><line x2="1e4" y1="625" y2="625"/><line x2="1e4" y1="1875" y2="1875"/><line x2="1e4" y1="3125" y2="3125"/><line x2="1e4" y1="4375" y2="4375"/><line x2="1e4" y1="5625" y2="5625"/><line x2="1e4" y1="6875" y2="6875"/><line x2="1e4" y1="8125" y2="8125"/><line x2="1e4" y1="9375" y2="9375"/><line x1="625" x2="625" y2="1e4"/><line x1="1875" x2="1875" y2="1e4"/><line x1="3125" x2="3125" y2="1e4"/><line x1="4375" x2="4375" y2="1e4"/><line x1="5625" x2="5625" y2="1e4"/><line x1="6875" x2="6875" y2="1e4"/><line x1="8125" x2="8125" y2="1e4"/><line x1="9375" x2="9375" y2="1e4"/></g></g><circle cx="5625" cy="3125" r="200"/><text transform="translate(200 -200)" x="05625" y="03125" fill="red" font-size="1100">0</text><circle cx="4375" cy="6875" r="200"/><text transform="translate(200 -200)" x="04375" y="06875" fill="red" font-size="1100">1</text><circle cx="8125" cy="5625" r="200"/><text transform="translate(200 -200)" x="08125" y="05625" fill="red" font-size="1100">2</text><circle cx="3125" cy="1875" r="200"/><text transform="translate(200 -200)" x="03125" y="01875" fill="red" font-size="1100">3</text><circle cx="1875" cy="8125" r="200"/><text transform="translate(200 -200)" x="01875" y="08125" fill="red" font-size="1100">4</text><circle cx="625" cy="4375" r="200"/><text transform="translate(200 -200)" x="00625" y="04375" fill="red" font-size="1100">5</text><circle cx="6875" cy="9375" r="200"/><text transform="translate(200 -200)" x="06875" y="09375" fill="red" font-size="1100">6</text><circle cx="9375" cy="625" r="200"/><text transform="translate(200 700)" x="09375" y="00625" fill="red" font-size="1100">7</text></svg>
