<svg width="160" height="160" version="1.1" viewBox="-500 -500 11000 11000" xmlns="http://www.w3.org/2000/svg"><desc>VK_SAMPLE_COUNT_4_BIT</desc><defs><marker id="sample_count_4a" markerHeight="8" markerWidth="8" orient="auto" refY="5" viewBox="0 0 10 10"><path d="m0 0 10 5-10 5z"/></marker></defs><g stroke="#000"><line x2="1e4" marker-end="url(#sample_count_4a)" stroke-width="50"/><line y2="1e4" marker-end="url(#sample_count_4a)" stroke-width="50"/><g stroke-dasharray="00100" stroke-width="10"><line x2="1e4" y1="1e4" y2="1e4"/><line x1="1e4" x2="1e4" y2="1e4"/><line x2="1e4" y1="1250" y2="1250"/><line x2="1e4" y1="3750" y2="3750"/><line x2="1e4" y1="6250" y2="6250"/><line x2="1e4" y1="8750" y2="8750"/><line x1="1250" x2="1250" y2="1e4"/><line x1="3750" x2="3750" y2="1e4"/><line x1="6250" x2="6250" y2="1e4"/><line x1="8750" x2="8750" y2="1e4"/></g></g><circle cx="3750" cy="1250" r="200"/><text transform="translate(200 -200)" x="03750" y="01250" fill="red" font-size="1100">0</text><circle cx="8750" cy="3750" r="200"/><text transform="translate(200 -200)" x="08750" y="03750" fill="red" font-size="1100">1</text><circle cx="1250" cy="6250" r="200"/><text transform="translate(200 -200)" x="01250" y="06250" fill="red" font-size="1100">2</text><circle cx="6250" cy="8750" r="200"/><text transform="translate(200 -200)" x="06250" y="08750" fill="red" font-size="1100">3</text></svg>
