<svg width="213.29mm" height="140.96mm" version="1.1" viewBox="0 0 213.29 140.96" xmlns="http://www.w3.org/2000/svg"><g transform="translate(5.7852 -15.046)"><text x="39.6875" y="19.1875" style="fill:#000000;font-family:sans-serif;font-size:10.583px;letter-spacing:0px;line-height:1.25;stroke-width:.26458;word-spacing:0px" xml:space="preserve"><tspan x="39.6875" y="19.1875" style="font-family:sans-serif;font-feature-settings:normal;font-size:4.2333px;font-variant-caps:normal;font-variant-ligatures:normal;font-variant-numeric:normal;stroke-width:.26458;text-align:center;text-anchor:middle">Array Layer 0</tspan></text><text x="97.895836" y="19.187496" style="fill:#000000;font-family:sans-serif;font-size:10.583px;letter-spacing:0px;line-height:1.25;stroke-width:.26458;word-spacing:0px" xml:space="preserve"><tspan x="97.895836" y="19.187496" style="font-family:sans-serif;font-feature-settings:normal;font-size:4.2333px;font-variant-caps:normal;font-variant-ligatures:normal;font-variant-numeric:normal;stroke-width:.26458;text-align:center;text-anchor:middle">Array Layer 1</tspan></text><text x="156.10417" y="19.187496" style="fill:#000000;font-family:sans-serif;font-size:10.583px;letter-spacing:0px;line-height:1.25;stroke-width:.26458;word-spacing:0px" xml:space="preserve"><tspan x="156.10417" y="19.187496" style="font-family:sans-serif;font-feature-settings:normal;font-size:4.2333px;font-variant-caps:normal;font-variant-ligatures:normal;font-variant-numeric:normal;stroke-width:.26458;text-align:center;text-anchor:middle">Array Layer 2</tspan></text><text x="2.6458335" y="48.291668" style="fill:#000000;font-family:sans-serif;font-feature-settings:normal;font-size:4.2333px;font-variant-caps:normal;font-variant-ligatures:normal;font-variant-numeric:normal;letter-spacing:0px;line-height:1.25;stroke-width:.26458;text-align:center;text-anchor:middle;word-spacing:0px" xml:space="preserve"><tspan x="2.6458335" y="48.291668" style="font-family:sans-serif;font-feature-settings:normal;font-size:4.2333px;font-variant-caps:normal;font-variant-ligatures:normal;font-variant-numeric:normal;stroke-width:.26458;text-align:center;text-anchor:middle">Mip</tspan><tspan x="2.645834" y="53.583328" style="font-family:sans-serif;font-feature-settings:normal;font-size:4.2333px;font-variant-caps:normal;font-variant-ligatures:normal;font-variant-numeric:normal;stroke-width:.26458;text-align:center;text-anchor:middle">Level 0</tspan></text><text x="2.6458335" y="93.270836" style="fill:#000000;font-family:sans-serif;font-feature-settings:normal;font-size:4.2333px;font-variant-caps:normal;font-variant-ligatures:normal;font-variant-numeric:normal;letter-spacing:0px;line-height:1.25;stroke-width:.26458;text-align:center;text-anchor:middle;word-spacing:0px" xml:space="preserve"><tspan x="2.6458335" y="93.270836" style="font-family:sans-serif;font-feature-settings:normal;font-size:4.2333px;font-variant-caps:normal;font-variant-ligatures:normal;font-variant-numeric:normal;stroke-width:.26458;text-align:center;text-anchor:middle">Mip</tspan><tspan x="2.645834" y="98.5625" style="font-family:sans-serif;font-feature-settings:normal;font-size:4.2333px;font-variant-caps:normal;font-variant-ligatures:normal;font-variant-numeric:normal;stroke-width:.26458;text-align:center;text-anchor:middle">Level 1</tspan></text><text x="2.6458335" y="138.25" style="fill:#000000;font-family:sans-serif;font-feature-settings:normal;font-size:4.2333px;font-variant-caps:normal;font-variant-ligatures:normal;font-variant-numeric:normal;letter-spacing:0px;line-height:1.25;stroke-width:.26458;text-align:center;text-anchor:middle;word-spacing:0px" xml:space="preserve"><tspan x="2.6458335" y="138.25" style="font-family:sans-serif;font-feature-settings:normal;font-size:4.2333px;font-variant-caps:normal;font-variant-ligatures:normal;font-variant-numeric:normal;stroke-width:.26458;text-align:center;text-anchor:middle">Mip</tspan><tspan x="2.645834" y="143.54166" style="font-family:sans-serif;font-feature-settings:normal;font-size:4.2333px;font-variant-caps:normal;font-variant-ligatures:normal;font-variant-numeric:normal;stroke-width:.26458;text-align:center;text-anchor:middle">Level 3</tspan></text><text x="2.6458335" y="119.72918" style="fill:#000000;font-family:sans-serif;font-feature-settings:normal;font-size:4.2333px;font-variant-caps:normal;font-variant-ligatures:normal;font-variant-numeric:normal;letter-spacing:0px;line-height:1.25;stroke-width:.26458;text-align:center;text-anchor:middle;word-spacing:0px" xml:space="preserve"><tspan x="2.6458335" y="119.72918" style="font-family:sans-serif;font-feature-settings:normal;font-size:4.2333px;font-variant-caps:normal;font-variant-ligatures:normal;font-variant-numeric:normal;stroke-width:.26458;text-align:center;text-anchor:middle">Mip</tspan><tspan x="2.645834" y="125.02084" style="font-family:sans-serif;font-feature-settings:normal;font-size:4.2333px;font-variant-caps:normal;font-variant-ligatures:normal;font-variant-numeric:normal;stroke-width:.26458;text-align:center;text-anchor:middle">Level 2</tspan></text><text x="2.6458335" y="154.125" style="fill:#000000;font-family:sans-serif;font-feature-settings:normal;font-size:4.2333px;font-variant-caps:normal;font-variant-ligatures:normal;font-variant-numeric:normal;letter-spacing:0px;line-height:1.25;stroke-width:.26458;text-align:center;text-anchor:middle;word-spacing:0px" xml:space="preserve"><tspan x="2.6458335" y="154.125" style="font-family:sans-serif;font-feature-settings:normal;font-size:4.2333px;font-variant-caps:normal;font-variant-ligatures:normal;font-variant-numeric:normal;stroke-width:.26458;text-align:center;text-anchor:middle">Mip Tail</tspan></text><g transform="translate(1.3229 -3.1985e-5)"><rect x="150.81" y="147.51" width="5.2917" height="5.2917" style="fill:#f00;stroke-width:.26458;stroke:#000"/><rect x="150.81" y="139.57" width="5.2917" height="5.2917" style="fill:#fff;stroke-dasharray:1.06, 1.06;stroke-width:.265;stroke:#000"/><rect x="150.81" y="131.64" width="5.2917" height="5.2917" style="fill:#808080;stroke-width:.26458;stroke:#000"/><rect x="149.49" y="125.02" width="55.562" height="29.104" style="fill:none;stroke-dasharray:1.05833, 1.05833;stroke-width:.26458;stroke:#000"/><text x="177.27084" y="128.98961" style="fill:#000000;font-family:sans-serif;font-feature-settings:normal;font-size:4.2333px;font-variant-caps:normal;font-variant-ligatures:normal;font-variant-numeric:normal;letter-spacing:0px;line-height:1.25;stroke-width:.39688;text-align:center;text-anchor:middle;word-spacing:0px" xml:space="preserve"><tspan x="177.27084" y="128.98961" style="font-family:sans-serif;font-feature-settings:normal;font-size:4.2333px;font-variant-caps:normal;font-variant-ligatures:normal;font-variant-numeric:normal;stroke-width:.39688;text-align:center;text-anchor:middle">Legend</tspan></text><text x="157.42709" y="135.6042" style="fill:#000000;font-family:sans-serif;font-feature-settings:normal;font-size:4.2333px;font-variant-caps:normal;font-variant-ligatures:normal;font-variant-numeric:normal;letter-spacing:0px;line-height:1.25;stroke-width:.39688;word-spacing:0px" xml:space="preserve"><tspan x="157.42709" y="135.6042" style="font-family:sans-serif;font-feature-settings:normal;font-size:4.2333px;font-variant-caps:normal;font-variant-ligatures:normal;font-variant-numeric:normal;stroke-width:.39688">Image Pixel Data</tspan></text><text x="157.42709" y="143.5417" style="fill:#000000;font-family:sans-serif;font-feature-settings:normal;font-size:4.2333px;font-variant-caps:normal;font-variant-ligatures:normal;font-variant-numeric:normal;letter-spacing:0px;line-height:1.25;stroke-width:.39688;word-spacing:0px" xml:space="preserve"><tspan x="157.42709" y="143.5417" style="font-family:sans-serif;font-feature-settings:normal;font-size:4.2333px;font-variant-caps:normal;font-variant-ligatures:normal;font-variant-numeric:normal;stroke-width:.39688">Sparse Memory Block</tspan></text><text x="157.42709" y="151.4792" style="fill:#000000;font-family:sans-serif;font-feature-settings:normal;font-size:4.2333px;font-variant-caps:normal;font-variant-ligatures:normal;font-variant-numeric:normal;letter-spacing:0px;line-height:1.25;stroke-width:.39688;word-spacing:0px" xml:space="preserve"><tspan x="157.42709" y="151.4792" style="font-family:sans-serif;font-feature-settings:normal;font-size:4.2333px;font-variant-caps:normal;font-variant-ligatures:normal;font-variant-numeric:normal;stroke-width:.39688">Mip Tail Data</tspan></text><path d="m11.906 21.833h52.917v52.917h-52.917zm5.2917 0v52.917m10.583-52.917v52.917m-5.2917 0v-52.917m10.583 0v52.917m5.2917 0v-52.917m5.2917 0v52.917m5.2917 0v-52.917m5.2917 0v52.917m5.2917 0v-52.917m5.2917 5.2917h-52.917m0 5.2917h52.917m0 5.2917h-52.917m0 5.2917h52.917m0 5.2917h-52.917m0 5.2917h52.917m0 5.2917h-52.917m0 5.2917h52.917m0 5.2917h-52.917" style="fill:#808080;stroke-width:.26458px;stroke:#000"/><path d="m70.115 21.833h52.917v52.917h-52.917zm5.2917 0v52.917m10.583-52.917v52.917m-5.2917 0v-52.917m10.583 0v52.917m5.2917 0v-52.917m5.2917 0v52.917m5.2917 0v-52.917m5.2917 0v52.917m5.2917 0v-52.917m5.2917 5.2917h-52.917m0 5.2917h52.917m0 5.2917h-52.917m0 5.2917h52.917m0 5.2917h-52.917m0 5.2917h52.917m0 5.2917h-52.917m0 5.2917h52.917m0 5.2917h-52.917" style="fill:#808080;stroke-width:.26458px;stroke:#000"/><path d="m128.32 21.833h52.917v52.917h-52.917zm5.2917 0v52.917m10.583-52.917v52.917m-5.2917 0v-52.917m10.583 0v52.917m5.2917 0v-52.917m5.2917 0v52.917m5.2917 0v-52.917m5.2917 0v52.917m5.2917 0v-52.917m5.2917 5.2917h-52.917m0 5.2917h52.917m0 5.2917h-52.917m0 5.2917h52.917m0 5.2917h-52.917m0 5.2917h52.917m0 5.2917h-52.917m0 5.2917h52.917m0 5.2917h-52.917" style="fill:#808080;stroke-width:.26458px;stroke:#000"/><path d="m11.906 80.042h26.458v26.458h-26.458zm5.2916 0v26.458m5.2916-26.458v26.458m5.2916-26.458v26.458m5.2916-26.458v26.458m-21.167-5.2916h26.458m0-5.2916h-26.458m0-5.2916h26.458m0-5.2916h-26.458" style="fill:#808080;stroke-width:.254px;stroke:#000"/><path d="m70.115 80.042h26.458v26.458h-26.458zm5.2916 0v26.458m5.2916-26.458v26.458m5.2916-26.458v26.458m5.2916-26.458v26.458m-21.167-5.2916h26.458m0-5.2916h-26.458m0-5.2916h26.458m0-5.2916h-26.458" style="fill:#808080;stroke-width:.254px;stroke:#000"/><path d="m128.32 80.042h26.458v26.458h-26.458zm5.2916 0v26.458m5.2916-26.458v26.458m5.2916-26.458v26.458m5.2916-26.458v26.458m-21.167-5.2916h26.458m0-5.2916h-26.458m0-5.2916h26.458m0-5.2916h-26.458" style="fill:#808080;stroke-width:.254px;stroke:#000"/><path d="m11.906 148.83h10.583v5.2917h-10.583zm5.2917 0v5.2917" style="fill:#f00;stroke-width:.26458px;stroke:#000"/><path d="m18.521 143.54h3.9688v-10.583h-10.583v3.9688m5.2917 0v-3.9688m1.3229 5.2917h3.9688" style="fill:none;stroke-dasharray:1.05833, 1.05833;stroke-width:.26458;stroke:#000"/><path d="m17.198 143.54v-6.6146m1.3229 1.3229h-6.6146m6.6146 5.2917h-6.6146v-6.6146h6.6146v6.6146" style="fill:#808080;stroke-width:.26458;stroke:#000"/><path d="m11.906 114.44v13.229h13.229v-13.229h-13.229m5.2917 0v13.229m5.2917 0v-13.229m-10.583 2.6458h13.229m-13.229 5.2917h13.229" style="fill:#808080;stroke-width:.26458;stroke:#000"/><path d="m25.135 127.67h2.6458v-15.875h-15.875v2.6458m5.2917-2.6458v2.6458m5.2917-2.6458v2.6458m5.2917 2.6458h-2.6458m2.6458 5.2917h-2.6458" style="fill:none;stroke-dasharray:1.05833, 1.05833;stroke-width:.26458;stroke:#000"/><path d="m70.115 148.83h10.583v5.2917h-10.583zm5.2917 0v5.2917" style="fill:#f00;stroke-width:.26458px;stroke:#000"/><path d="m76.729 143.54h3.9688v-10.583h-10.583v3.9688m5.2917 0v-3.9688m1.3229 5.2917h3.9688" style="fill:none;stroke-dasharray:1.05833, 1.05833;stroke-width:.26458;stroke:#000"/><path d="m75.406 143.54v-6.6146m1.3229 1.3229h-6.6146m6.6146 5.2917h-6.6146v-6.6146h6.6146v6.6146" style="fill:#808080;stroke-width:.26458;stroke:#000"/><path d="m70.115 114.44v13.229h13.229v-13.229h-13.229m5.2917 0v13.229m5.2917 0v-13.229m-10.583 2.6458h13.229m-13.229 5.2917h13.229" style="fill:#808080;stroke-width:.26458;stroke:#000"/><path d="m83.344 127.67h2.6458v-15.875h-15.875v2.6458m5.2917-2.6458v2.6458m5.2917-2.6458v2.6458m5.2917 2.6458h-2.6458m2.6458 5.2917h-2.6458" style="fill:none;stroke-dasharray:1.05833, 1.05833;stroke-width:.26458;stroke:#000"/><path d="m128.32 148.83h10.583v5.2917h-10.583zm5.2917 0v5.2917" style="fill:#f00;stroke-width:.26458px;stroke:#000"/><path d="m134.94 143.54h3.9688v-10.583h-10.583v3.9688m5.2917 0v-3.9688m1.3229 5.2917h3.9688" style="fill:none;stroke-dasharray:1.05833, 1.05833;stroke-width:.26458;stroke:#000"/><path d="m133.61 143.54v-6.6146m1.3229 1.3229h-6.6146m6.6146 5.2917h-6.6146v-6.6146h6.6146v6.6146" style="fill:#808080;stroke-width:.26458;stroke:#000"/><path d="m128.32 114.44v13.229h13.229v-13.229h-13.229m5.2917 0v13.229m5.2917 0v-13.229m-10.583 2.6458h13.229m-13.229 5.2917h13.229" style="fill:#808080;stroke-width:.26458;stroke:#000"/><path d="m141.55 127.67h2.6458v-15.875h-15.875v2.6458m5.2917-2.6458v2.6458m5.2917-2.6458v2.6458m5.2917 2.6458h-2.6458m2.6458 5.2917h-2.6458" style="fill:none;stroke-dasharray:1.05833, 1.05833;stroke-width:.26458;stroke:#000"/></g></g></svg>
