<svg width="705.4" height="384.11" version="1.1" viewBox="0 0 186.64 101.63" xmlns="http://www.w3.org/2000/svg"><defs><marker id="vulkantexture0-llb" style="overflow:visible" orient="auto"><path transform="matrix(-.4 0 0 -.4 -4 0)" d="m0 0 5-5-17.5 5 17.5 5z" style="fill-rule:evenodd;stroke-width:1pt;stroke:#000"/></marker><marker id="vulkantexture0-llc" style="overflow:visible" orient="auto"><path transform="matrix(-.4 0 0 -.4 -4 0)" d="m0 0 5-5-17.5 5 17.5 5z" style="fill-rule:evenodd;fill:#f00;stroke-width:1pt;stroke:#f00"/></marker><marker id="vulkantexture0-llf" style="overflow:visible" orient="auto"><path transform="matrix(-.4 0 0 -.4 -4 0)" d="m0 0 5-5-17.5 5 17.5 5z" style="fill-rule:evenodd;fill:#f00;stroke-width:1pt;stroke:#f00"/></marker><marker id="vulkantexture0-lle" style="overflow:visible" orient="auto"><path transform="matrix(-.8 0 0 -.8 -10 0)" d="m0 0 5-5-17.5 5 17.5 5z" style="fill-rule:evenodd;stroke-width:1pt;stroke:#000"/></marker><marker id="vulkantexture0-llh" style="overflow:visible" orient="auto"><path transform="matrix(-.8 0 0 -.8 -10 0)" d="m0 0 5-5-17.5 5 17.5 5z" style="fill-rule:evenodd;stroke-width:1pt;stroke:#000"/></marker><marker id="vulkantexture0-llg" style="overflow:visible" orient="auto"><path transform="matrix(-.8 0 0 -.8 -10 0)" d="m0 0 5-5-17.5 5 17.5 5z" style="fill-rule:evenodd;stroke-width:1pt;stroke:#000"/></marker><marker id="vulkantexture0-lld" style="overflow:visible" orient="auto"><path transform="matrix(-.8 0 0 -.8 -10 0)" d="m0 0 5-5-17.5 5 17.5 5z" style="fill-rule:evenodd;stroke-width:1pt;stroke:#000"/></marker><marker id="vulkantexture0-lla" style="overflow:visible" orient="auto"><path transform="matrix(-.4 0 0 -.4 -4 0)" d="m0 0 5-5-17.5 5 17.5 5z" style="fill-rule:evenodd;stroke-width:1pt;stroke:#000"/></marker></defs><g transform="translate(-6.9458 47.827)"><path d="m36.854 30.771h148.17l2e-5 -74.083h-148.17l-9e-6 74.083m18.521 0 7e-6 -74.083m18.521 0-7e-6 74.083m18.521 0 1.4e-5 -74.083m18.521 0-1e-5 74.083m18.521 0v-74.083m18.521 0-1e-5 74.083m18.521 0 2e-5 -74.083m18.521 18.521h-148.17m-7e-6 18.521h148.17m0 18.521h-148.17" style="fill:none;stroke-linecap:square;stroke-width:.26458;stroke:#808080"/><text x="44.791519" y="36.062489" style="fill:#000000;font-family:sans-serif;letter-spacing:0px;line-height:0%;word-spacing:0px" xml:space="preserve"><tspan x="44.791519" y="36.062489" style="font-family:sans-serif;font-size:4.2333px;line-height:1.25">0</tspan></text><text x="63.312355" y="36.062489" style="fill:#000000;font-family:sans-serif;letter-spacing:0px;line-height:0%;word-spacing:0px" xml:space="preserve"><tspan x="63.312355" y="36.062489" style="font-family:sans-serif;font-size:4.2333px;line-height:1.25">1</tspan></text><text x="81.833191" y="36.062489" style="fill:#000000;font-family:sans-serif;letter-spacing:0px;line-height:0%;word-spacing:0px" xml:space="preserve"><tspan x="81.833191" y="36.062489" style="font-family:sans-serif;font-size:4.2333px;line-height:1.25">2</tspan></text><text x="100.35403" y="36.062489" style="fill:#000000;font-family:sans-serif;letter-spacing:0px;line-height:0%;word-spacing:0px" xml:space="preserve"><tspan x="100.35403" y="36.062489" style="font-family:sans-serif;font-size:4.2333px;line-height:1.25">3</tspan></text><text x="118.87486" y="36.062489" style="fill:#000000;font-family:sans-serif;letter-spacing:0px;line-height:0%;word-spacing:0px" xml:space="preserve"><tspan x="118.87486" y="36.062489" style="font-family:sans-serif;font-size:4.2333px;line-height:1.25">4</tspan></text><text x="137.39569" y="36.062489" style="fill:#000000;font-family:sans-serif;letter-spacing:0px;line-height:0%;word-spacing:0px" xml:space="preserve"><tspan x="137.39569" y="36.062489" style="font-family:sans-serif;font-size:4.2333px;line-height:1.25">5</tspan></text><text x="155.91653" y="36.062489" style="fill:#000000;font-family:sans-serif;letter-spacing:0px;line-height:0%;word-spacing:0px" xml:space="preserve"><tspan x="155.91653" y="36.062489" style="font-family:sans-serif;font-size:4.2333px;line-height:1.25">6</tspan></text><text x="174.43736" y="36.062489" style="fill:#000000;font-family:sans-serif;letter-spacing:0px;line-height:0%;word-spacing:0px" xml:space="preserve"><tspan x="174.43736" y="36.062489" style="font-family:sans-serif;font-size:4.2333px;line-height:1.25">7</tspan></text><text x="110.83607" y="37.611748" style="fill:#000000;font-family:sans-serif;font-style:italic;letter-spacing:0px;line-height:0%;text-align:center;text-anchor:middle;word-spacing:0px" xml:space="preserve"><tspan x="110.83607" y="37.611748" style="font-family:sans-serif;font-size:4.2333px;font-style:italic;line-height:1.25;text-align:center;text-anchor:middle">i</tspan></text><text x="28.097963" y="45.537884" style="fill:#000000;font-family:sans-serif;letter-spacing:0px;line-height:0%;word-spacing:0px" xml:space="preserve"><tspan x="28.097963" y="45.537884" style="font-family:sans-serif;font-size:4.2333px;line-height:1.25">0.0</tspan></text><text x="186.86346" y="45.538918" style="fill:#000000;font-family:sans-serif;letter-spacing:0px;line-height:0%;word-spacing:0px" xml:space="preserve"><tspan x="186.86346" y="45.538918" style="font-family:sans-serif;font-size:4.2333px;line-height:1.25">8.0</tspan></text><path d="m36.854 44h71.438m5.2917 2e-6h71.438" style="fill:none;marker-end:url(#vulkantexture0-llh);stroke-width:.26458px;stroke:#000"/><text x="110.86915" y="45.122406" style="fill:#000000;font-family:sans-serif;font-style:italic;letter-spacing:0px;line-height:0%;text-align:center;text-anchor:middle;word-spacing:0px" xml:space="preserve"><tspan x="110.86915" y="45.122406" style="font-family:sans-serif;font-size:4.2333px;font-style:italic;line-height:1.25;text-align:center;text-anchor:middle">u</tspan></text><text x="28.097961" y="53.47538" style="fill:#000000;font-family:sans-serif;letter-spacing:0px;line-height:0%;word-spacing:0px" xml:space="preserve"><tspan x="28.097961" y="53.47538" style="font-family:sans-serif;font-size:4.2333px;line-height:1.25">0.0</tspan></text><text x="186.86346" y="53.476414" style="fill:#000000;font-family:sans-serif;letter-spacing:0px;line-height:0%;word-spacing:0px" xml:space="preserve"><tspan x="186.86346" y="53.476414" style="font-family:sans-serif;font-size:4.2333px;line-height:1.25">1.0</tspan></text><path d="m36.854 51.937h71.438m5.2917 2e-6h71.438" style="fill:none;marker-end:url(#vulkantexture0-llg);stroke-width:.26458px;stroke:#000"/><text x="110.86914" y="53.059902" style="fill:#000000;font-family:sans-serif;font-style:italic;letter-spacing:0px;line-height:0%;text-align:center;text-anchor:middle;word-spacing:0px" xml:space="preserve"><tspan x="110.86914" y="53.059902" style="font-family:sans-serif;font-size:4.2333px;font-style:italic;line-height:1.25;text-align:center;text-anchor:middle">s</tspan></text><text x="31.562353" y="-32.729183" style="fill:#000000;font-family:sans-serif;letter-spacing:0px;line-height:0%;word-spacing:0px" xml:space="preserve"><tspan x="31.562353" y="-32.729183" style="font-family:sans-serif;font-size:4.2333px;line-height:1.25">3</tspan></text><text x="31.562353" y="-14.208344" style="fill:#000000;font-family:sans-serif;letter-spacing:0px;line-height:0%;word-spacing:0px" xml:space="preserve"><tspan x="31.562353" y="-14.208344" style="font-family:sans-serif;font-size:4.2333px;line-height:1.25">2</tspan></text><text x="31.562353" y="4.3124895" style="fill:#000000;font-family:sans-serif;letter-spacing:0px;line-height:0%;word-spacing:0px" xml:space="preserve"><tspan x="31.562353" y="4.3124895" style="font-family:sans-serif;font-size:4.2333px;line-height:1.25">1</tspan></text><text x="31.562353" y="22.833323" style="fill:#000000;font-family:sans-serif;letter-spacing:0px;line-height:0%;word-spacing:0px" xml:space="preserve"><tspan x="31.562353" y="22.833323" style="font-family:sans-serif;font-size:4.2333px;line-height:1.25">0</tspan></text><text x="31.790766" y="-5.1587672" style="fill:#000000;font-family:sans-serif;font-style:italic;letter-spacing:0px;line-height:0%;text-align:center;text-anchor:middle;word-spacing:0px" xml:space="preserve"><tspan x="31.790766" y="-5.1587672" style="font-family:sans-serif;font-size:4.2333px;font-style:italic;line-height:1.25;text-align:center;text-anchor:middle">j</tspan></text><text x="17.576641" y="-44.420456" style="fill:#000000;font-family:sans-serif;letter-spacing:0px;line-height:0%;word-spacing:0px" xml:space="preserve"><tspan x="17.576641" y="-44.420456" style="font-family:sans-serif;font-size:4.2333px;line-height:1.25">4.0</tspan></text><text x="17.514629" y="34.954548" style="fill:#000000;font-family:sans-serif;letter-spacing:0px;line-height:0%;word-spacing:0px" xml:space="preserve"><tspan x="17.514629" y="34.954548" style="font-family:sans-serif;font-size:4.2333px;line-height:1.25">0.0</tspan></text><path d="m20.979 30.771v-34.396m1e-6 -5.2917v-34.396" style="fill:none;marker-end:url(#vulkantexture0-lle);stroke-width:.26458px;stroke:#000"/><text x="20.479824" y="-5.1587677" style="fill:#000000;font-family:sans-serif;font-style:italic;letter-spacing:0px;line-height:0%;text-align:center;text-anchor:middle;word-spacing:0px" xml:space="preserve"><tspan x="20.479824" y="-5.1587677" style="font-family:sans-serif;font-size:4.2333px;font-style:italic;line-height:1.25;text-align:center;text-anchor:middle">v</tspan></text><text x="6.9933071" y="-44.420456" style="fill:#000000;font-family:sans-serif;letter-spacing:0px;line-height:0%;word-spacing:0px" xml:space="preserve"><tspan x="6.9933071" y="-44.420456" style="font-family:sans-serif;font-size:4.2333px;line-height:1.25">1.0</tspan></text><text x="6.9312954" y="34.954548" style="fill:#000000;font-family:sans-serif;letter-spacing:0px;line-height:0%;word-spacing:0px" xml:space="preserve"><tspan x="6.9312954" y="34.954548" style="font-family:sans-serif;font-size:4.2333px;line-height:1.25">0.0</tspan></text><path d="m10.396 30.771v-34.396m1e-6 -5.2917v-34.396" style="fill:none;marker-end:url(#vulkantexture0-lld);stroke-width:.26458px;stroke:#000"/><text x="9.8964901" y="-5.1587677" style="fill:#000000;font-family:sans-serif;font-style:italic;letter-spacing:0px;line-height:0%;text-align:center;text-anchor:middle;word-spacing:0px" xml:space="preserve"><tspan x="9.8964901" y="-5.1587677" style="font-family:sans-serif;font-size:4.2333px;font-style:italic;line-height:1.25;text-align:center;text-anchor:middle">t</tspan></text><path d="m129.43 30.888h11.906" style="marker-end:url(#vulkantexture0-lla);stroke-width:.26458;stroke:#000"/><path d="m145.23 32.174h-0.38861v-0.24185q-0.16743 0.14469-0.34933 0.22531-0.1819 0.08062-0.39481 0.08062-0.41341 0-0.65732-0.31833-0.24185-0.31833-0.24185-0.88263 0-0.29352 0.0827-0.52297 0.0847-0.22944 0.22738-0.39067 0.14056-0.1571 0.3266-0.23978 0.1881-0.08268 0.3886-0.08268 0.1819 0 0.32246 0.04548 0.14056 0.04547 0.29559 0.12609v-0.10749h0.38861zm-0.38861-0.56844v-1.3146q-0.15709-0.07028-0.28112-0.10129-0.12402-0.03307-0.27078-0.03307-0.3266 0-0.5085 0.22738-0.1819 0.22738-0.1819 0.64492 0 0.41134 0.14056 0.62632 0.14056 0.21291 0.45062 0.21291 0.16537 0 0.33486-0.07235 0.1695-0.07441 0.31626-0.19017z"/><g transform="matrix(.99677 0 0 1.0214 .44529 -.45928)"><path d="m138.7 21.491-72.922-17.688" style="fill:none;marker-end:url(#vulkantexture0-llc);stroke-width:.30418px;stroke:#f00"/><g transform="matrix(1 0 0 -1 -.57891 30.713)"><path d="m100.72 12.25h-0.34236q-0.14534 0.23577-0.239 0.5103-0.0937 0.27453-0.0937 0.57329 0 0.30683 0.0743 0.59105 0.0743 0.28584 0.21801 0.56198 0.13726 0.26161 0.32782 0.49577 0.19217 0.23416 0.4231 0.44571h0.36496v-0.01616q-0.18409-0.13566-0.38434-0.34397-0.19863-0.20832-0.3585-0.46024-0.16311-0.25677-0.26646-0.56683-0.10174-0.30844-0.10174-0.6508 0-0.35043 0.10174-0.63788 0.10173-0.28907 0.27614-0.48608z" style="fill:#f40000"/><path d="m103.47 12.915h-2.2415l1.4631 2.4046h0.42633zm-0.35366 0.26-0.2713 1.8636-1.1304-1.8636z" style="fill:#f40000"/><path d="m104.7 15.336-0.0727-0.3149h-0.34236l0.0727 0.3149zm-0.16148-0.61689-0.41665-1.8038h-0.30359l0.41664 1.8038z" style="fill:#f40000"/><path d="m105.48 13.376-0.70087-1.0578h-0.23577l0.52322 1.0578z" style="fill:#f40000"/><path d="m107.99 12.915h-2.2415l1.4631 2.4046h0.42633zm-0.35366 0.26-0.2713 1.8636-1.1304-1.8636z" style="fill:#f40000"/><path d="m109.38 15.021h-0.34559l0.0727 0.3149h0.34559zm-0.51677-2.1494q-0.0727-0.31329-0.25838-0.47639-0.1841-0.1631-0.45863-0.1631-0.0646 0-0.16956 0.01297-0.10497 0.01297-0.17279 0.0323l0.063 0.27615h0.0161q0.0468-0.021 0.11142-0.04038 0.063-0.02098 0.14696-0.02098 0.11304 0 0.18894 0.03553 0.0775 0.03391 0.12596 0.10336 0.0468 0.06783 0.0775 0.16956 0.0307 0.10012 0.0549 0.20994l0.33751 1.4647h-0.37627l0.0565 0.24385h0.6831z" style="fill:#f40000"/><path d="m110.66 14.345q0-0.30521-0.0759-0.59751-0.0759-0.29068-0.2164-0.55552-0.1405-0.26484-0.33267-0.50061-0.19217-0.23739-0.41825-0.44087h-0.36497v0.01616q0.18572 0.13888 0.38273 0.34236 0.19863 0.20186 0.36012 0.46186 0.1841 0.29714 0.27615 0.59589 0.092 0.29876 0.092 0.62173 0 0.34397-0.10173 0.63304-0.10012 0.29068-0.27614 0.49092v0.01616h0.34235q0.14372-0.23416 0.23739-0.50869 0.0953-0.27292 0.0953-0.5749z" style="fill:#f40000"/></g></g><circle transform="matrix(1.75 0 0 -1.75 -27.969 59.719)" cx="42.333" cy="21.833" r=".52779"/><circle transform="matrix(1.75 0 0 -1.75 -27.969 59.719)" cx="52.917" cy="21.833" r=".52779"/><circle transform="matrix(1.75 0 0 -1.75 -27.969 59.719)" cx="63.5" cy="21.833" r=".52779"/><circle transform="matrix(1.75 0 0 -1.75 -27.969 59.719)" cx="74.083" cy="21.833" r=".52779"/><circle transform="matrix(1.75 0 0 -1.75 -27.969 59.719)" cx="84.667" cy="21.833" r=".52779"/><circle transform="matrix(1.75 0 0 -1.75 -27.969 59.719)" cx="95.25" cy="21.833" r=".52779"/><circle transform="matrix(1.75 0 0 -1.75 -27.969 59.719)" cx="105.83" cy="21.833" r=".52779"/><circle transform="matrix(1.75 0 0 -1.75 -27.969 59.719)" cx="116.42" cy="21.833" r=".52779"/><circle transform="matrix(1.75 0 0 -1.75 -27.969 59.719)" cx="42.333" cy="32.417" r=".52779"/><circle transform="matrix(1.75 0 0 -1.75 -27.969 59.719)" cx="52.917" cy="32.417" r=".52779"/><circle transform="matrix(1.75 0 0 -1.75 -27.969 59.719)" cx="63.5" cy="32.417" r=".52779"/><circle transform="matrix(1.75 0 0 -1.75 -27.969 59.719)" cx="74.083" cy="32.417" r=".52779"/><circle transform="matrix(1.75 0 0 -1.75 -27.969 59.719)" cx="84.667" cy="32.417" r=".52779"/><circle transform="matrix(1.75 0 0 -1.75 -27.969 59.719)" cx="95.25" cy="32.417" r=".52779"/><circle transform="matrix(1.75 0 0 -1.75 -27.969 59.719)" cx="105.83" cy="32.417" r=".52779"/><circle transform="matrix(1.75 0 0 -1.75 -27.969 59.719)" cx="116.42" cy="32.417" r=".52779"/><circle transform="matrix(1.75 0 0 -1.75 -27.969 59.719)" cx="42.333" cy="43" r=".52779"/><circle transform="matrix(1.75 0 0 -1.75 -27.969 59.719)" cx="52.917" cy="43" r=".52779"/><circle transform="matrix(1.75 0 0 -1.75 -27.969 59.719)" cx="63.5" cy="43" r=".52779"/><circle transform="matrix(1.75 0 0 -1.75 -27.969 59.719)" cx="74.083" cy="43" r=".52779"/><circle transform="matrix(1.75 0 0 -1.75 -27.969 59.719)" cx="84.667" cy="43" r=".52779"/><circle transform="matrix(1.75 0 0 -1.75 -27.969 59.719)" cx="95.25" cy="43" r=".52779"/><circle transform="matrix(1.75 0 0 -1.75 -27.969 59.719)" cx="105.83" cy="43" r=".52779"/><circle transform="matrix(1.75 0 0 -1.75 -27.969 59.719)" cx="116.42" cy="43" r=".52779"/><circle transform="matrix(1.75 0 0 -1.75 -27.969 59.719)" cx="42.333" cy="53.583" r=".52779"/><circle transform="matrix(1.75 0 0 -1.75 -27.969 59.719)" cx="52.917" cy="53.583" r=".52779"/><circle transform="matrix(1.75 0 0 -1.75 -27.969 59.719)" cx="63.5" cy="53.583" r=".52779"/><circle transform="matrix(1.75 0 0 -1.75 -27.969 59.719)" cx="74.083" cy="53.583" r=".52779"/><circle transform="matrix(1.75 0 0 -1.75 -27.969 59.719)" cx="84.667" cy="53.583" r=".52779"/><circle transform="matrix(1.75 0 0 -1.75 -27.969 59.719)" cx="95.25" cy="53.583" r=".52779"/><circle transform="matrix(1.75 0 0 -1.75 -27.969 59.719)" cx="105.83" cy="53.583" r=".52779"/><circle transform="matrix(1.75 0 0 -1.75 -27.969 59.719)" cx="116.42" cy="53.583" r=".52779"/><path d="m141.36 16.783v14.35" style="fill:none;stroke-width:.16468;stroke:#808080"/><path d="m129.46 18.865h14.552" style="fill:none;stroke-width:.13229;stroke:#808080"/><rect transform="scale(1,-1)" x="58.021" y="-9.6042" width="37.042" height="37.042" style="fill:none;stroke-dasharray:2.11667, 2.11667;stroke-linecap:square;stroke-width:.52917;stroke:#f00"/><rect transform="scale(1,-1)" x="132.1" y="-28.125" width="37.042" height="37.042" style="fill:none;stroke-dasharray:2.11667, 2.11667;stroke-linecap:square;stroke-width:.52917;stroke:#f00"/><path d="m130.47 15.425q0 0.41754-0.27906 0.6904-0.27698 0.27285-0.70073 0.27285-0.1633 0-0.3452-0.04547t-0.31212-0.13229v0.98392h-0.38861v-3.0799q0-0.46302 0.26045-0.72554 0.26252-0.26252 0.72347-0.26252 0.18603 0 0.339 0.04548 0.15503 0.04341 0.27698 0.13849 0.11783 0.08888 0.1881 0.23151 0.0703 0.14263 0.0703 0.33073 0 0.26252-0.14469 0.45889-0.14262 0.1943-0.40514 0.27078v0.03514q0.32866 0.05374 0.52296 0.26045 0.19431 0.20464 0.19431 0.5271zm-0.40101-0.01034q0-0.18397-0.0724-0.29766-0.0703-0.11576-0.19017-0.17983-0.12196-0.06615-0.27285-0.08888-0.1509-0.02274-0.30179-0.02274h-0.0744v-0.33073h0.0744q0.13642 0 0.27078-0.02894 0.13436-0.03101 0.21497-0.09302 0.0951-0.07028 0.14056-0.17157 0.0475-0.10129 0.0475-0.27699 0-0.23151-0.14262-0.3514-0.14263-0.11989-0.36794-0.11989-0.1509 0-0.25838 0.05581-0.10749 0.05374-0.1757 0.14469-0.0661 0.09095-0.0971 0.21291-0.031 0.11989-0.031 0.24805v1.7818q0.13642 0.07855 0.29145 0.11162 0.15503 0.03101 0.30386 0.03101 0.30799 0 0.47336-0.16123 0.16743-0.1633 0.16743-0.46302z"/><path d="m129.46 30.771v-11.906" style="marker-end:url(#vulkantexture0-llb);stroke-width:.26458;stroke:#000"/><text x="138.71861" y="6.2589712" style="fill:#000000;font-family:sans-serif;letter-spacing:0px;line-height:0%;word-spacing:0px" xml:space="preserve"><tspan x="138.71861" y="6.2589712" style="fill:#f40000;font-family:sans-serif;font-size:3.5278px;line-height:1.25"><tspan style="fill:#000000;font-family:sans-serif;font-size:3.5278px"> i0j1</tspan></tspan></text><text x="157.23944" y="6.2589712" style="fill:#000000;font-family:sans-serif;letter-spacing:0px;line-height:0%;word-spacing:0px" xml:space="preserve"><tspan x="157.23944" y="6.2589712" style="font-size:3.5278px;line-height:1.25"> i1j1</tspan></text><text x="138.71861" y="24.779802" style="fill:#000000;font-family:sans-serif;letter-spacing:0px;line-height:0%;word-spacing:0px" xml:space="preserve"><tspan x="138.71861" y="24.779802" style="font-size:3.5278px;line-height:1.25"> i0j0</tspan></text><text x="157.23944" y="24.779802" style="fill:#000000;font-family:sans-serif;letter-spacing:0px;line-height:0%;word-spacing:0px" xml:space="preserve"><tspan x="157.23944" y="24.779802" style="font-size:3.5278px;line-height:1.25"> i1j0</tspan><tspan x="157.23944" y="29.189528" style="font-size:3.5278px;line-height:1.25"> </tspan></text><path d="m150.36 9.8687-8.2021 8.2021" style="fill:none;marker-end:url(#vulkantexture0-llf);stroke-width:.26458px;stroke:#f00"/><circle transform="matrix(1 0 0 -1 0 -12.542)" cx="141.36" cy="-31.406" r=".92363" style="fill:#f00"/><text x="143.54691" y="20.09103" style="fill:#000000;font-family:sans-serif;letter-spacing:0px;line-height:0%;word-spacing:0px" xml:space="preserve"><tspan x="143.54691" y="20.09103" style="fill:#f40000;font-family:sans-serif;font-size:3.5278px;line-height:1.25">(u-0.5,v-0.5)</tspan></text><circle transform="matrix(1 0 0 -1 0 -12.542)" cx="150.62" cy="-22.146" r=".92363" style="fill:#f00"/><text x="152.21477" y="10.830611" style="fill:#000000;font-family:sans-serif;letter-spacing:0px;line-height:0%;word-spacing:0px" xml:space="preserve"><tspan x="152.21477" y="10.830611" style="fill:#f40000;font-family:sans-serif;font-size:3.5278px;line-height:1.25">(u,v)</tspan></text><text x="64.635269" y="-16.495201" style="fill:#000000;font-family:sans-serif;letter-spacing:0px;line-height:0%;word-spacing:0px" xml:space="preserve"><tspan x="64.635269" y="-16.495201" style="font-size:3.5278px;line-height:0.35"> i0j1'</tspan></text><text x="83.156105" y="-16.495201" style="fill:#000000;font-family:sans-serif;letter-spacing:0px;line-height:0%;word-spacing:0px" xml:space="preserve"><tspan x="83.156105" y="-16.495201" style="font-size:3.5278px;line-height:0.35"> i1j1'</tspan></text><text x="64.635269" y="2.0256376" style="fill:#000000;font-family:sans-serif;letter-spacing:0px;line-height:0%;word-spacing:0px" xml:space="preserve"><tspan x="64.635269" y="2.0256376" style="font-size:3.5278px;line-height:0.35"> i0j0'</tspan></text><text x="83.156105" y="2.0256376" style="fill:#000000;font-family:sans-serif;letter-spacing:0px;line-height:0%;word-spacing:0px" xml:space="preserve"><tspan x="83.156105" y="2.0256376" style="font-size:3.5278px;line-height:0.35"> i1j0'</tspan></text></g></svg>
