<svg width="705.4" height="384.11" version="1.1" viewBox="0 0 186.64 101.63" xmlns="http://www.w3.org/2000/svg"><defs><marker id="vulkantexture1-lla" style="overflow:visible" orient="auto"><path transform="matrix(-.4 0 0 -.4 -4 0)" d="m0 0 5-5-17.5 5 17.5 5z" style="fill-rule:evenodd;fill:#f00;stroke-width:1pt;stroke:#f00"/></marker><marker id="vulkantexture1-llc" style="overflow:visible" orient="auto"><path transform="matrix(-.8 0 0 -.8 -10 0)" d="m0 0 5-5-17.5 5 17.5 5z" style="fill-rule:evenodd;stroke-width:1pt;stroke:#000"/></marker><marker id="vulkantexture1-lle" style="overflow:visible" orient="auto"><path transform="matrix(-.8 0 0 -.8 -10 0)" d="m0 0 5-5-17.5 5 17.5 5z" style="fill-rule:evenodd;stroke-width:1pt;stroke:#000"/></marker><marker id="vulkantexture1-lld" style="overflow:visible" orient="auto"><path transform="matrix(-.8 0 0 -.8 -10 0)" d="m0 0 5-5-17.5 5 17.5 5z" style="fill-rule:evenodd;stroke-width:1pt;stroke:#000"/></marker><marker id="vulkantexture1-llb" style="overflow:visible" orient="auto"><path transform="matrix(-.8 0 0 -.8 -10 0)" d="m0 0 5-5-17.5 5 17.5 5z" style="fill-rule:evenodd;stroke-width:1pt;stroke:#000"/></marker></defs><g transform="translate(-6.9458 47.827)"><path d="m36.854-43.311h148.17l2e-5 74.083h-148.17l-9e-6 -74.083m18.521 0 6e-6 74.083m18.521 0-6e-6 -74.083m18.521 0 1.3e-5 74.083m18.521 0-1e-5 -74.083m18.521 0v74.083m18.521 0-1e-5 -74.083m18.521 0 2e-5 74.083m18.521-18.521h-148.17m-7e-6 -18.521h148.17m0-18.521h-148.17" style="fill:none;stroke-linecap:square;stroke-width:.26458;stroke:#808080"/><path d="m157.24 2.9896-54.24-17.992" style="fill:none;marker-end:url(#vulkantexture1-lla);stroke-width:.26458px;stroke:#f00"/><g transform="translate(-2.6458)"><text x="34.208187" y="-32.729179" style="fill:#000000;font-family:sans-serif;font-feature-settings:normal;font-variant-caps:normal;font-variant-ligatures:normal;font-variant-numeric:normal;letter-spacing:0px;line-height:0%;stroke-width:.26458;word-spacing:0px" xml:space="preserve"><tspan x="34.208187" y="-32.729179" style="font-family:sans-serif;font-feature-settings:normal;font-size:4.2333px;font-variant-caps:normal;font-variant-ligatures:normal;font-variant-numeric:normal;line-height:1.25;stroke-width:.26458">3</tspan></text><text x="34.208187" y="-14.208342" style="fill:#000000;font-family:sans-serif;font-feature-settings:normal;font-variant-caps:normal;font-variant-ligatures:normal;font-variant-numeric:normal;letter-spacing:0px;line-height:0%;stroke-width:.26458;word-spacing:0px" xml:space="preserve"><tspan x="34.208187" y="-14.208342" style="font-family:sans-serif;font-feature-settings:normal;font-size:4.2333px;font-variant-caps:normal;font-variant-ligatures:normal;font-variant-numeric:normal;line-height:1.25;stroke-width:.26458">2</tspan></text><text x="34.208187" y="4.3124924" style="fill:#000000;font-family:sans-serif;font-feature-settings:normal;font-variant-caps:normal;font-variant-ligatures:normal;font-variant-numeric:normal;letter-spacing:0px;line-height:0%;stroke-width:.26458;word-spacing:0px" xml:space="preserve"><tspan x="34.208187" y="4.3124924" style="font-family:sans-serif;font-feature-settings:normal;font-size:4.2333px;font-variant-caps:normal;font-variant-ligatures:normal;font-variant-numeric:normal;line-height:1.25;stroke-width:.26458">1</tspan></text><text x="34.208187" y="22.833326" style="fill:#000000;font-family:sans-serif;font-feature-settings:normal;font-variant-caps:normal;font-variant-ligatures:normal;font-variant-numeric:normal;letter-spacing:0px;line-height:0%;stroke-width:.26458;word-spacing:0px" xml:space="preserve"><tspan x="34.208187" y="22.833326" style="font-family:sans-serif;font-feature-settings:normal;font-size:4.2333px;font-variant-caps:normal;font-variant-ligatures:normal;font-variant-numeric:normal;line-height:1.25;stroke-width:.26458">0</tspan></text><text x="47.437355" y="36.062492" style="fill:#000000;font-family:sans-serif;font-feature-settings:normal;font-variant-caps:normal;font-variant-ligatures:normal;font-variant-numeric:normal;letter-spacing:0px;line-height:0%;stroke-width:.26458;word-spacing:0px" xml:space="preserve"><tspan x="47.437355" y="36.062492" style="font-family:sans-serif;font-feature-settings:normal;font-size:4.2333px;font-variant-caps:normal;font-variant-ligatures:normal;font-variant-numeric:normal;line-height:1.25;stroke-width:.26458">0</tspan></text><text x="65.958191" y="36.062492" style="fill:#000000;font-family:sans-serif;font-feature-settings:normal;font-variant-caps:normal;font-variant-ligatures:normal;font-variant-numeric:normal;letter-spacing:0px;line-height:0%;stroke-width:.26458;word-spacing:0px" xml:space="preserve"><tspan x="65.958191" y="36.062492" style="font-family:sans-serif;font-feature-settings:normal;font-size:4.2333px;font-variant-caps:normal;font-variant-ligatures:normal;font-variant-numeric:normal;line-height:1.25;stroke-width:.26458">1</tspan></text><text x="84.479027" y="36.062492" style="fill:#000000;font-family:sans-serif;font-feature-settings:normal;font-variant-caps:normal;font-variant-ligatures:normal;font-variant-numeric:normal;letter-spacing:0px;line-height:0%;stroke-width:.26458;word-spacing:0px" xml:space="preserve"><tspan x="84.479027" y="36.062492" style="font-family:sans-serif;font-feature-settings:normal;font-size:4.2333px;font-variant-caps:normal;font-variant-ligatures:normal;font-variant-numeric:normal;line-height:1.25;stroke-width:.26458">2</tspan></text><text x="102.99986" y="36.062492" style="fill:#000000;font-family:sans-serif;font-feature-settings:normal;font-variant-caps:normal;font-variant-ligatures:normal;font-variant-numeric:normal;letter-spacing:0px;line-height:0%;stroke-width:.26458;word-spacing:0px" xml:space="preserve"><tspan x="102.99986" y="36.062492" style="font-family:sans-serif;font-feature-settings:normal;font-size:4.2333px;font-variant-caps:normal;font-variant-ligatures:normal;font-variant-numeric:normal;line-height:1.25;stroke-width:.26458">3</tspan></text><text x="121.52069" y="36.062492" style="fill:#000000;font-family:sans-serif;font-feature-settings:normal;font-variant-caps:normal;font-variant-ligatures:normal;font-variant-numeric:normal;letter-spacing:0px;line-height:0%;stroke-width:.26458;word-spacing:0px" xml:space="preserve"><tspan x="121.52069" y="36.062492" style="font-family:sans-serif;font-feature-settings:normal;font-size:4.2333px;font-variant-caps:normal;font-variant-ligatures:normal;font-variant-numeric:normal;line-height:1.25;stroke-width:.26458">4</tspan></text><text x="140.04152" y="36.062492" style="fill:#000000;font-family:sans-serif;font-feature-settings:normal;font-variant-caps:normal;font-variant-ligatures:normal;font-variant-numeric:normal;letter-spacing:0px;line-height:0%;stroke-width:.26458;word-spacing:0px" xml:space="preserve"><tspan x="140.04152" y="36.062492" style="font-family:sans-serif;font-feature-settings:normal;font-size:4.2333px;font-variant-caps:normal;font-variant-ligatures:normal;font-variant-numeric:normal;line-height:1.25;stroke-width:.26458">5</tspan></text><text x="158.56236" y="36.062492" style="fill:#000000;font-family:sans-serif;font-feature-settings:normal;font-variant-caps:normal;font-variant-ligatures:normal;font-variant-numeric:normal;letter-spacing:0px;line-height:0%;stroke-width:.26458;word-spacing:0px" xml:space="preserve"><tspan x="158.56236" y="36.062492" style="font-family:sans-serif;font-feature-settings:normal;font-size:4.2333px;font-variant-caps:normal;font-variant-ligatures:normal;font-variant-numeric:normal;line-height:1.25;stroke-width:.26458">6</tspan></text><text x="177.08319" y="36.062492" style="fill:#000000;font-family:sans-serif;font-feature-settings:normal;font-variant-caps:normal;font-variant-ligatures:normal;font-variant-numeric:normal;letter-spacing:0px;line-height:0%;stroke-width:.26458;word-spacing:0px" xml:space="preserve"><tspan x="177.08319" y="36.062492" style="font-family:sans-serif;font-feature-settings:normal;font-size:4.2333px;font-variant-caps:normal;font-variant-ligatures:normal;font-variant-numeric:normal;line-height:1.25;stroke-width:.26458">7</tspan></text><text x="34.4366" y="-5.1587644" style="fill:#000000;font-family:sans-serif;font-feature-settings:normal;font-style:italic;font-variant-caps:normal;font-variant-ligatures:normal;font-variant-numeric:normal;letter-spacing:0px;line-height:0%;stroke-width:.26458;text-align:center;text-anchor:middle;word-spacing:0px" xml:space="preserve"><tspan x="34.4366" y="-5.1587644" style="font-family:sans-serif;font-feature-settings:normal;font-size:4.2333px;font-style:italic;font-variant-caps:normal;font-variant-ligatures:normal;font-variant-numeric:normal;line-height:1.25;stroke-width:.26458;text-align:center;text-anchor:middle">j</tspan></text><text x="113.4819" y="37.611752" style="fill:#000000;font-family:sans-serif;font-feature-settings:normal;font-style:italic;font-variant-caps:normal;font-variant-ligatures:normal;font-variant-numeric:normal;letter-spacing:0px;line-height:0%;stroke-width:.26458;text-align:center;text-anchor:middle;word-spacing:0px" xml:space="preserve"><tspan x="113.4819" y="37.611752" style="font-family:sans-serif;font-feature-settings:normal;font-size:4.2333px;font-style:italic;font-variant-caps:normal;font-variant-ligatures:normal;font-variant-numeric:normal;line-height:1.25;stroke-width:.26458;text-align:center;text-anchor:middle">i</tspan></text><g transform="translate(-23.813)"><text x="54.556301" y="45.537884" style="fill:#000000;font-family:sans-serif;font-feature-settings:normal;font-variant-caps:normal;font-variant-ligatures:normal;font-variant-numeric:normal;letter-spacing:0px;line-height:0%;stroke-width:.26458;word-spacing:0px" xml:space="preserve"><tspan x="54.556301" y="45.537884" style="font-family:sans-serif;font-feature-settings:normal;font-size:4.2333px;font-variant-caps:normal;font-variant-ligatures:normal;font-variant-numeric:normal;line-height:1.25;stroke-width:.26458">0.0</tspan></text><text x="213.32181" y="45.538918" style="fill:#000000;font-family:sans-serif;font-feature-settings:normal;font-variant-caps:normal;font-variant-ligatures:normal;font-variant-numeric:normal;letter-spacing:0px;line-height:0%;stroke-width:.26458;word-spacing:0px" xml:space="preserve"><tspan x="213.32181" y="45.538918" style="font-family:sans-serif;font-feature-settings:normal;font-size:4.2333px;font-variant-caps:normal;font-variant-ligatures:normal;font-variant-numeric:normal;line-height:1.25;stroke-width:.26458">8.0</tspan></text><path d="m63.312 44h71.438m5.2917 2e-6h71.438" style="fill:none;marker-end:url(#vulkantexture1-lle);stroke-width:.26458px;stroke:#000"/><text x="137.32748" y="45.122406" style="fill:#000000;font-family:sans-serif;font-feature-settings:normal;font-style:italic;font-variant-caps:normal;font-variant-ligatures:normal;font-variant-numeric:normal;letter-spacing:0px;line-height:0%;stroke-width:.26458;text-align:center;text-anchor:middle;word-spacing:0px" xml:space="preserve"><tspan x="137.32748" y="45.122406" style="font-family:sans-serif;font-feature-settings:normal;font-size:4.2333px;font-style:italic;font-variant-caps:normal;font-variant-ligatures:normal;font-variant-numeric:normal;line-height:1.25;stroke-width:.26458;text-align:center;text-anchor:middle">u</tspan></text></g><g transform="translate(-23.813 7.9375)"><text x="54.556301" y="45.537884" style="fill:#000000;font-family:sans-serif;font-feature-settings:normal;font-variant-caps:normal;font-variant-ligatures:normal;font-variant-numeric:normal;letter-spacing:0px;line-height:0%;stroke-width:.26458;word-spacing:0px" xml:space="preserve"><tspan x="54.556301" y="45.537884" style="font-family:sans-serif;font-feature-settings:normal;font-size:4.2333px;font-variant-caps:normal;font-variant-ligatures:normal;font-variant-numeric:normal;line-height:1.25;stroke-width:.26458">0.0</tspan></text><text x="213.32181" y="45.538918" style="fill:#000000;font-family:sans-serif;font-feature-settings:normal;font-variant-caps:normal;font-variant-ligatures:normal;font-variant-numeric:normal;letter-spacing:0px;line-height:0%;stroke-width:.26458;word-spacing:0px" xml:space="preserve"><tspan x="213.32181" y="45.538918" style="font-family:sans-serif;font-feature-settings:normal;font-size:4.2333px;font-variant-caps:normal;font-variant-ligatures:normal;font-variant-numeric:normal;line-height:1.25;stroke-width:.26458">1.0</tspan></text><path d="m63.312 44h71.438m5.2917 2e-6h71.438" style="fill:none;marker-end:url(#vulkantexture1-lld);stroke-width:.26458px;stroke:#000"/><text x="137.32748" y="45.122406" style="fill:#000000;font-family:sans-serif;font-feature-settings:normal;font-style:italic;font-variant-caps:normal;font-variant-ligatures:normal;font-variant-numeric:normal;letter-spacing:0px;line-height:0%;stroke-width:.26458;text-align:center;text-anchor:middle;word-spacing:0px" xml:space="preserve"><tspan x="137.32748" y="45.122406" style="font-family:sans-serif;font-feature-settings:normal;font-size:4.2333px;font-style:italic;font-variant-caps:normal;font-variant-ligatures:normal;font-variant-numeric:normal;line-height:1.25;stroke-width:.26458;text-align:center;text-anchor:middle">s</tspan></text></g><g transform="translate(-23.813 2.6458)"><text x="44.034977" y="-47.066288" style="fill:#000000;font-family:sans-serif;font-feature-settings:normal;font-variant-caps:normal;font-variant-ligatures:normal;font-variant-numeric:normal;letter-spacing:0px;line-height:0%;stroke-width:.26458;word-spacing:0px" xml:space="preserve"><tspan x="44.034977" y="-47.066288" style="font-family:sans-serif;font-feature-settings:normal;font-size:4.2333px;font-variant-caps:normal;font-variant-ligatures:normal;font-variant-numeric:normal;line-height:1.25;stroke-width:.26458">4.0</tspan></text><text x="43.972965" y="32.308716" style="fill:#000000;font-family:sans-serif;font-feature-settings:normal;font-variant-caps:normal;font-variant-ligatures:normal;font-variant-numeric:normal;letter-spacing:0px;line-height:0%;stroke-width:.26458;word-spacing:0px" xml:space="preserve"><tspan x="43.972965" y="32.308716" style="font-family:sans-serif;font-feature-settings:normal;font-size:4.2333px;font-variant-caps:normal;font-variant-ligatures:normal;font-variant-numeric:normal;line-height:1.25;stroke-width:.26458">0.0</tspan></text><path d="m47.437 28.125v-34.396m1e-6 -5.2917v-34.396" style="fill:none;marker-end:url(#vulkantexture1-llc);stroke-width:.26458px;stroke:#000"/><text x="46.93816" y="-7.8045983" style="fill:#000000;font-family:sans-serif;font-feature-settings:normal;font-style:italic;font-variant-caps:normal;font-variant-ligatures:normal;font-variant-numeric:normal;letter-spacing:0px;line-height:0%;stroke-width:.26458;text-align:center;text-anchor:middle;word-spacing:0px" xml:space="preserve"><tspan x="46.93816" y="-7.8045983" style="font-family:sans-serif;font-feature-settings:normal;font-size:4.2333px;font-style:italic;font-variant-caps:normal;font-variant-ligatures:normal;font-variant-numeric:normal;line-height:1.25;stroke-width:.26458;text-align:center;text-anchor:middle">v</tspan></text></g><g transform="translate(-34.396 2.6458)"><text x="44.034977" y="-47.066288" style="fill:#000000;font-family:sans-serif;font-feature-settings:normal;font-variant-caps:normal;font-variant-ligatures:normal;font-variant-numeric:normal;letter-spacing:0px;line-height:0%;stroke-width:.26458;word-spacing:0px" xml:space="preserve"><tspan x="44.034977" y="-47.066288" style="font-family:sans-serif;font-feature-settings:normal;font-size:4.2333px;font-variant-caps:normal;font-variant-ligatures:normal;font-variant-numeric:normal;line-height:1.25;stroke-width:.26458">1.0</tspan></text><text x="43.972965" y="32.308716" style="fill:#000000;font-family:sans-serif;font-feature-settings:normal;font-variant-caps:normal;font-variant-ligatures:normal;font-variant-numeric:normal;letter-spacing:0px;line-height:0%;stroke-width:.26458;word-spacing:0px" xml:space="preserve"><tspan x="43.972965" y="32.308716" style="font-family:sans-serif;font-feature-settings:normal;font-size:4.2333px;font-variant-caps:normal;font-variant-ligatures:normal;font-variant-numeric:normal;line-height:1.25;stroke-width:.26458">0.0</tspan></text><path d="m47.437 28.125v-34.396m1e-6 -5.2917v-34.396" style="fill:none;marker-end:url(#vulkantexture1-llb);stroke-width:.26458px;stroke:#000"/><text x="46.93816" y="-7.8045983" style="fill:#000000;font-family:sans-serif;font-feature-settings:normal;font-style:italic;font-variant-caps:normal;font-variant-ligatures:normal;font-variant-numeric:normal;letter-spacing:0px;line-height:0%;stroke-width:.26458;text-align:center;text-anchor:middle;word-spacing:0px" xml:space="preserve"><tspan x="46.93816" y="-7.8045983" style="font-family:sans-serif;font-feature-settings:normal;font-size:4.2333px;font-style:italic;font-variant-caps:normal;font-variant-ligatures:normal;font-variant-numeric:normal;line-height:1.25;stroke-width:.26458;text-align:center;text-anchor:middle">t</tspan></text></g></g><g transform="matrix(1.75 0 0 -1.75 -27.969 59.719)" style="stroke-width:.15119"><circle cx="42.333" cy="21.833" r=".52779"/><circle cx="52.917" cy="21.833" r=".52779"/><circle cx="63.5" cy="21.833" r=".52779"/><circle cx="74.083" cy="21.833" r=".52779"/><circle cx="84.667" cy="21.833" r=".52779"/><circle cx="95.25" cy="21.833" r=".52779"/><circle cx="105.83" cy="21.833" r=".52779"/><circle cx="116.42" cy="21.833" r=".52779"/><circle cx="42.333" cy="32.417" r=".52779"/><circle cx="52.917" cy="32.417" r=".52779"/><circle cx="63.5" cy="32.417" r=".52779"/><circle cx="74.083" cy="32.417" r=".52779"/><circle cx="84.667" cy="32.417" r=".52779"/><circle cx="95.25" cy="32.417" r=".52779"/><circle cx="105.83" cy="32.417" r=".52779"/><circle cx="116.42" cy="32.417" r=".52779"/><circle cx="42.333" cy="43" r=".52779"/><circle cx="52.917" cy="43" r=".52779"/><circle cx="63.5" cy="43" r=".52779"/><circle cx="74.083" cy="43" r=".52779"/><circle cx="84.667" cy="43" r=".52779"/><circle cx="95.25" cy="43" r=".52779"/><circle cx="105.83" cy="43" r=".52779"/><circle cx="116.42" cy="43" r=".52779"/><circle cx="42.333" cy="53.583" r=".52779"/><circle cx="52.917" cy="53.583" r=".52779"/><circle cx="63.5" cy="53.583" r=".52779"/><circle cx="74.083" cy="53.583" r=".52779"/><circle cx="84.667" cy="53.583" r=".52779"/><circle cx="95.25" cy="53.583" r=".52779"/><circle cx="105.83" cy="53.583" r=".52779"/><circle cx="116.42" cy="53.583" r=".52779"/></g><rect transform="scale(1,-1)" x="86.067" y="-.079163" width="18.521" height="18.521" style="fill:none;stroke-dasharray:2.11667, 2.11667;stroke-linecap:square;stroke-width:.52917;stroke:#f00"/><rect transform="scale(1,-1)" x="141.63" y="-18.6" width="18.521" height="18.521" style="fill:none;stroke-dasharray:2.11667, 2.11667;stroke-linecap:square;stroke-width:.52917;stroke:#f00"/><text x="155.65187" y="7.3173094" style="fill:#000000;font-family:sans-serif;letter-spacing:0px;line-height:0%;word-spacing:0px" xml:space="preserve"><tspan x="155.65187" y="7.3173094" style="fill:#f40000;font-family:sans-serif;font-size:3.5278px;line-height:1.25"><tspan style="fill:#000000;font-family:sans-serif;font-size:3.5278px"> ij</tspan></tspan></text><g transform="matrix(1.5625 0 0 1.5625 -1.1283 -44.646)" aria-label="(Δi,Δj)"><path d="m71.619 25.566h-0.21911q-0.09302-0.1509-0.15296-0.3266-0.05994-0.1757-0.05994-0.3669 0-0.19637 0.04754-0.37827 0.04754-0.18294 0.13953-0.35967 0.08785-0.16743 0.20981-0.31729 0.12299-0.14986 0.27078-0.28525h0.23358v0.01034q-0.11782 0.08682-0.24598 0.22014-0.12712 0.13333-0.22944 0.29456-0.10439 0.16433-0.17053 0.36277-0.06511 0.1974-0.06511 0.41651 0 0.22428 0.06511 0.40824 0.06511 0.185 0.17673 0.31109z" style="fill:#f40000"/><path d="m73.377 25.141h-1.4345l0.93638-1.5389h0.27285zm-0.22634-0.1664-0.17363-1.1927-0.72347 1.1927z" style="fill:#f40000"/><path d="m74.166 23.591-0.04651 0.20154h-0.21911l0.04651-0.20154zm-0.10335 0.39481-0.26665 1.1545h-0.1943l0.26665-1.1545z" style="fill:#f40000"/><path d="m74.663 24.846-0.44855 0.67696h-0.1509l0.33486-0.67696z" style="fill:#f40000"/><path d="m76.267 25.141h-1.4345l0.93638-1.5389h0.27285zm-0.22634-0.1664-0.17363-1.1927-0.72347 1.1927z" style="fill:#f40000"/><path d="m77.162 23.793h-0.22118l0.04651-0.20154h0.22118zm-0.33073 1.3756q-0.04651 0.2005-0.16536 0.30489-0.11782 0.10439-0.29352 0.10439-0.04134 0-0.10852-0.0083t-0.11059-0.02067l0.04031-0.17673h0.01033q0.02997 0.01344 0.07131 0.02584 0.04031 0.01343 0.09405 0.01343 0.07235 0 0.12092-0.02274 0.04961-0.0217 0.08062-0.06615 0.02997-0.04341 0.04961-0.10852 0.01964-0.06408 0.03514-0.13436l0.21601-0.93741h-0.24081l0.03617-0.15606h0.43718z" style="fill:#f40000"/><path d="m77.978 24.226q0 0.19534-0.04858 0.38241-0.04858 0.18604-0.13849 0.35553-0.08992 0.1695-0.21291 0.32039-0.12299 0.15193-0.26768 0.28215h-0.23358v-0.01034q0.11886-0.08888 0.24495-0.21911 0.12712-0.12919 0.23048-0.29559 0.11782-0.19017 0.17673-0.38137 0.05891-0.1912 0.05891-0.39791 0-0.22014-0.06511-0.40514-0.06408-0.18604-0.17673-0.31419v-0.01034h0.21911q0.09198 0.14986 0.15193 0.32556 0.06098 0.17467 0.06098 0.36794z" style="fill:#f40000"/></g><text x="99.560272" y="-10.14519" style="fill:#000000;font-family:sans-serif;letter-spacing:0px;line-height:0%;word-spacing:0px" xml:space="preserve"><tspan x="99.560272" y="-10.14519" style="fill:#f40000;font-family:sans-serif;font-size:3.5278px;line-height:1.25"><tspan style="fill:#000000;font-family:sans-serif;font-size:3.5278px"> ij'</tspan></tspan></text><circle transform="matrix(1 0 0 -1 0 -12.542)" cx="150.62" cy="-22.146" r=".92363" style="fill:#f00"/><text x="151.68561" y="10.830611" style="fill:#000000;font-family:sans-serif;letter-spacing:0px;line-height:0%;word-spacing:0px" xml:space="preserve"><tspan x="151.68561" y="10.830611" style="fill:#f40000;font-family:sans-serif;font-size:3.5278px;line-height:1.25">(u,v)</tspan></text></g></svg>
